SplineFontDB: 3.2
FontName: hindionlyw8mono
FullName: hindionlyw8mono
FamilyName: hindionlyw8mono
Weight: Regular
Copyright: github.com/zawa8/font hscii 4finger1thumb 4f1t maths
Version: w0.000
ItalicAngle: 0
UnderlinePosition: -128
UnderlineWidth: 51
Ascent: 819
Descent: 205
InvalidEm: 0
sfntRevision: 0x00010000
LayerCount: 2
Layer: 0 1 "Back" 1
Layer: 1 1 "Fore" 0
XUID: [1021 242 -508030597 9470343]
UniqueID: 133098919
StyleMap: 0x0040
FSType: 0
OS2Version: 4
OS2_WeightWidthSlopeOnly: 0
OS2_UseTypoMetrics: 1
CreationTime: 1432194851
ModificationTime: 1782414882
PfmFamily: 81
TTFWeight: 400
TTFWidth: 5
LineGap: 0
VLineGap: 0
Panose: 0 0 0 0 0 0 0 0 0 0
OS2TypoAscent: 918
OS2TypoAOffset: 0
OS2TypoDescent: -418
OS2TypoDOffset: 0
OS2TypoLinegap: 0
OS2WinAscent: 1380
OS2WinAOffset: 0
OS2WinDescent: 571
OS2WinDOffset: 0
HheadAscent: 918
HheadAOffset: 0
HheadDescent: -418
HheadDOffset: 0
OS2SubXSize: 666
OS2SubYSize: 614
OS2SubXOff: 0
OS2SubYOff: 77
OS2SupXSize: 666
OS2SupYSize: 614
OS2SupXOff: 0
OS2SupYOff: 358
OS2StrikeYSize: 51
OS2StrikeYPos: 330
OS2CapHeight: 637
OS2XHeight: 549
OS2Vendor: 'zawa'
OS2CodePages: 00000013.00000000
OS2UnicodeRanges: 80008023.00002046.00000000.00000000
MarkAttachClasses: 1
MarkAttachSets: 10
"MarkSet-0" 68 uni0902 uni0901 uni0930094D uni0930094D0902 uni0930094D0901 NullMark
"MarkSet-1" 143 visargaUdattavedic reversedVisargaUdattavedic visargaAnudattavedic reversedVisargaAnudattavedic visargaUdattaTailvedic visargaAnudattaTailvedic
"MarkSet-2" 101 uni20F0 acutecomb uni0306 uni030C uni0302 uni0308 uni0307 gravecomb uni030B uni0304 uni030A tildecomb
"MarkSet-3" 49 uni0306 uni030C uni0302 uni0308 uni0304 tildecomb
"MarkSet-4" 83 uni0945 uni0955 uni0901 invertedCandrabindudeva uni0902.alt uni09450902 uni09450901
"MarkSet-5" 27 uni0941 uni094D uni093C094D

StartChar: exclam
Encoding: 33 33 2
Width: 600
VWidth: 1000
GlyphClass: 1
Flags: W
LayerCount: 2
Fore
SplineSet
293.5 122.599609375 m 4,0,1
 272.700195312 122.599609375 272.700195312 122.599609375 261 135.799804688 c 132,-1,2
 249.299804688 149 249.299804688 149 243.450195312 181.400390625 c 132,-1,3
 237.599609375 213.799804688 237.599609375 213.799804688 236.299804688 268.400390625 c 132,-1,4
 235 323 235 323 235 405.799804688 c 4,5,6
 235 522.200195312 235 522.200195312 236.299804688 587 c 132,-1,7
 237.599609375 651.799804688 237.599609375 651.799804688 245.400390625 683 c 132,-1,8
 253.200195312 714.200195312 253.200195312 714.200195312 269.450195312 720.799804688 c 132,-1,9
 285.700195312 727.400390625 285.700195312 727.400390625 315.599609375 727.400390625 c 4,10,11
 331.200195312 727.400390625 331.200195312 727.400390625 340.299804688 719 c 132,-1,12
 349.400390625 710.599609375 349.400390625 710.599609375 355.25 683 c 132,-1,13
 361.099609375 655.400390625 361.099609375 655.400390625 363.049804688 601.400390625 c 132,-1,14
 365 547.400390625 365 547.400390625 365 455 c 4,15,16
 365 287 365 287 352 204.799804688 c 132,-1,17
 339 122.599609375 339 122.599609375 293.5 122.599609375 c 4,0,1
276.599609375 699.799804688 m 4,18,19
 271.400390625 699.799804688 271.400390625 699.799804688 263.599609375 685.400390625 c 132,-1,20
 255.799804688 671 255.799804688 671 255.799804688 641 c 4,21,22
 255.799804688 625.400390625 255.799804688 625.400390625 257.75 610.400390625 c 132,-1,23
 259.700195312 595.400390625 259.700195312 595.400390625 268.799804688 595.400390625 c 4,24,25
 276.599609375 595.400390625 276.599609375 595.400390625 279.200195312 600.200195312 c 132,-1,26
 281.799804688 605 281.799804688 605 281.799804688 611.599609375 c 132,-1,27
 281.799804688 618.200195312 281.799804688 618.200195312 281.150390625 626.599609375 c 132,-1,28
 280.5 635 280.5 635 280.5 642.200195312 c 4,29,30
 281.799804688 662.599609375 281.799804688 662.599609375 284.400390625 681.200195312 c 132,-1,31
 287 699.799804688 287 699.799804688 276.599609375 699.799804688 c 4,18,19
294.799804688 -21.400390625 m 4,32,33
 270.099609375 -21.400390625 270.099609375 -21.400390625 255.150390625 -6.400390625 c 132,-1,34
 240.200195312 8.599609375 240.200195312 8.599609375 240.200195312 33.7998046875 c 4,35,36
 240.200195312 56.599609375 240.200195312 56.599609375 253.200195312 76.400390625 c 132,-1,37
 266.200195312 96.2001953125 266.200195312 96.2001953125 294.799804688 96.2001953125 c 4,38,39
 324.700195312 96.2001953125 324.700195312 96.2001953125 340.299804688 77.599609375 c 132,-1,40
 355.900390625 59 355.900390625 59 355.900390625 33.7998046875 c 4,41,42
 355.900390625 6.2001953125 355.900390625 6.2001953125 338.349609375 -7.599609375 c 132,-1,43
 320.799804688 -21.400390625 320.799804688 -21.400390625 294.799804688 -21.400390625 c 4,32,33
271.400390625 41 m 4,44,45
 272.700195312 54.2001953125 272.700195312 54.2001953125 277.900390625 65 c 132,-1,46
 283.099609375 75.7998046875 283.099609375 75.7998046875 276.599609375 75.7998046875 c 4,47,48
 267.5 75.7998046875 267.5 75.7998046875 261.650390625 58.400390625 c 132,-1,49
 255.799804688 41 255.799804688 41 255.799804688 27.7998046875 c 4,50,51
 255.799804688 15.7998046875 255.799804688 15.7998046875 262.299804688 15.7998046875 c 4,52,53
 267.5 15.7998046875 267.5 15.7998046875 268.799804688 24.7998046875 c 132,-1,54
 270.099609375 33.7998046875 270.099609375 33.7998046875 271.400390625 41 c 4,44,45
EndSplineSet
EndChar

StartChar: quotedbl
Encoding: 34 34 3
Width: 600
VWidth: 1000
GlyphClass: 1
Flags: W
LayerCount: 2
Fore
SplineSet
242.799804688 714 m 5,0,-1
 216.799804688 456 l 5,1,-1
 145.299804688 456 l 5,2,-1
 119.299804688 714 l 5,3,-1
 242.799804688 714 l 5,0,-1
480.700195312 714 m 5,4,-1
 454.700195312 456 l 5,5,-1
 383.200195312 456 l 5,6,-1
 357.200195312 714 l 5,7,-1
 480.700195312 714 l 5,4,-1
EndSplineSet
EndChar

StartChar: numbersign
Encoding: 35 35 4
Width: 600
VWidth: 1000
GlyphClass: 1
Flags: W
LayerCount: 2
Fore
SplineSet
102 0 m 1,0,-1
 140 199 l 1,1,-1
 32 199 l 1,2,-1
 32 266 l 1,3,-1
 153 266 l 1,4,-1
 185 419 l 5,5,-1
 58 419 l 5,6,-1
 58 485 l 5,7,-1
 197 485 l 5,8,-1
 237 687 l 5,9,-1
 309 687 l 5,10,-1
 269 485 l 5,11,-1
 393 485 l 5,12,-1
 433 687 l 5,13,-1
 502 687 l 5,14,-1
 462 485 l 5,15,-1
 568 485 l 5,16,-1
 568 419 l 5,17,-1
 449 419 l 5,18,-1
 418 266 l 1,19,-1
 547 266 l 1,20,-1
 547 199 l 1,21,-1
 405 199 l 1,22,-1
 364 0 l 1,23,-1
 293 0 l 1,24,-1
 334 199 l 1,25,-1
 211 199 l 1,26,-1
 172 0 l 1,27,-1
 102 0 l 1,0,-1
224 266 m 1,28,-1
 347 266 l 1,29,-1
 378 419 l 5,30,-1
 255 419 l 5,31,-1
 224 266 l 1,28,-1
EndSplineSet
EndChar

StartChar: percent
Encoding: 37 37 5
Width: 600
VWidth: 1000
GlyphClass: 1
Flags: W
LayerCount: 2
Fore
SplineSet
104.700195312 0 m 5,0,-1
 425.099609375 714 l 5,1,-1
 494.400390625 714 l 5,2,-1
 174 0 l 5,3,-1
 104.700195312 0 l 5,0,-1
440.400390625 -9 m 4,4,5
 385.5 -9 385.5 -9 349.049804688 35.5 c 132,-1,6
 312.599609375 80 312.599609375 80 312.599609375 161 c 260,7,8
 312.599609375 242 312.599609375 242 347.25 286 c 132,-1,9
 381.900390625 330 381.900390625 330 442.200195312 330 c 4,10,11
 497.099609375 330 497.099609375 330 533.549804688 286 c 132,-1,12
 570 242 570 242 570 161 c 260,13,14
 570 80 570 80 534.900390625 35.5 c 132,-1,15
 499.799804688 -9 499.799804688 -9 440.400390625 -9 c 4,4,5
441.299804688 49 m 260,16,17
 471.900390625 49 471.900390625 49 487.200195312 76 c 132,-1,18
 502.5 103 502.5 103 502.5 161 c 4,19,20
 502.5 220 502.5 220 487.200195312 245.5 c 132,-1,21
 471.900390625 271 471.900390625 271 441.299804688 271 c 260,22,23
 410.700195312 271 410.700195312 271 394.950195312 245.5 c 132,-1,24
 379.200195312 220 379.200195312 220 379.200195312 161 c 4,25,26
 379.200195312 103 379.200195312 103 394.950195312 76 c 132,-1,27
 410.700195312 49 410.700195312 49 441.299804688 49 c 260,16,17
157.799804688 383 m 4,28,29
 102.900390625 383 102.900390625 383 66.4501953125 427.5 c 132,-1,30
 30 472 30 472 30 553 c 260,31,32
 30 634 30 634 64.650390625 678 c 132,-1,33
 99.2998046875 722 99.2998046875 722 159.599609375 722 c 4,34,35
 214.5 722 214.5 722 250.950195312 678 c 132,-1,36
 287.400390625 634 287.400390625 634 287.400390625 553 c 260,37,38
 287.400390625 472 287.400390625 472 252.299804688 427.5 c 132,-1,39
 217.200195312 383 217.200195312 383 157.799804688 383 c 4,28,29
158.700195312 441 m 260,40,41
 189.299804688 441 189.299804688 441 204.599609375 468 c 132,-1,42
 219.900390625 495 219.900390625 495 219.900390625 553 c 4,43,44
 219.900390625 612 219.900390625 612 204.599609375 637.5 c 132,-1,45
 189.299804688 663 189.299804688 663 158.700195312 663 c 260,46,47
 128.099609375 663 128.099609375 663 112.349609375 637.5 c 132,-1,48
 96.599609375 612 96.599609375 612 96.599609375 553 c 4,49,50
 96.599609375 495 96.599609375 495 112.349609375 468 c 132,-1,51
 128.099609375 441 128.099609375 441 158.700195312 441 c 260,40,41
EndSplineSet
EndChar

StartChar: quotesingle
Encoding: 39 39 6
Width: 600
VWidth: 1000
GlyphClass: 1
Flags: W
LayerCount: 2
Fore
SplineSet
347.5 714 m 1,0,-1
 327.5 456 l 1,1,-1
 272.5 456 l 1,2,-1
 252.5 714 l 1,3,-1
 347.5 714 l 1,0,-1
EndSplineSet
EndChar

StartChar: parenleft
Encoding: 40 40 7
Width: 600
VWidth: 1000
GlyphClass: 1
Flags: W
LayerCount: 2
Fore
SplineSet
377.400390625 -72 m 4,0,1
 312.599609375 -51 312.599609375 -51 268.799804688 -13 c 132,-1,2
 225 25 225 25 198 71.5 c 132,-1,3
 171 118 171 118 159 169.5 c 132,-1,4
 147 221 147 221 147 269 c 4,5,6
 147 315 147 315 157.200195312 363 c 132,-1,7
 167.400390625 411 167.400390625 411 186 456 c 132,-1,8
 204.599609375 501 204.599609375 501 232.200195312 540.5 c 132,-1,9
 259.799804688 580 259.799804688 580 293.400390625 609 c 4,10,11
 325.799804688 636 325.799804688 636 355.799804688 654 c 132,-1,12
 385.799804688 672 385.799804688 672 409.799804688 672 c 4,13,14
 427.799804688 672 427.799804688 672 438.599609375 660 c 132,-1,15
 449.400390625 648 449.400390625 648 449.400390625 636 c 4,16,17
 449.400390625 628 449.400390625 628 434.400390625 617 c 132,-1,18
 419.400390625 606 419.400390625 606 391.799804688 582 c 4,19,20
 355.799804688 550 355.799804688 550 331.799804688 512 c 132,-1,21
 307.799804688 474 307.799804688 474 293.400390625 433.5 c 132,-1,22
 279 393 279 393 273.599609375 351.5 c 132,-1,23
 268.200195312 310 268.200195312 310 268.200195312 272 c 260,24,25
 268.200195312 234 268.200195312 234 275.400390625 192.5 c 132,-1,26
 282.599609375 151 282.599609375 151 299.400390625 113 c 132,-1,27
 316.200195312 75 316.200195312 75 343.799804688 43.5 c 132,-1,28
 371.400390625 12 371.400390625 12 412.200195312 -7 c 4,29,30
 432.599609375 -16 432.599609375 -16 442.799804688 -22.5 c 132,-1,31
 453 -29 453 -29 453 -43 c 4,32,33
 453 -56 453 -56 437.400390625 -66 c 132,-1,34
 421.799804688 -76 421.799804688 -76 401.400390625 -76 c 4,35,36
 388.200195312 -76 388.200195312 -76 377.400390625 -72 c 4,0,1
360.599609375 620 m 4,37,38
 366.599609375 625 366.599609375 625 373.799804688 630.5 c 132,-1,39
 381 636 381 636 372.599609375 636 c 4,40,41
 363 636 363 636 350.400390625 628.5 c 132,-1,42
 337.799804688 621 337.799804688 621 325.799804688 611 c 132,-1,43
 313.799804688 601 313.799804688 601 306 590.5 c 132,-1,44
 298.200195312 580 298.200195312 580 298.200195312 574 c 4,45,46
 298.200195312 569 298.200195312 569 303 569 c 4,47,48
 309 569 309 569 314.400390625 575.5 c 132,-1,49
 319.799804688 582 319.799804688 582 323.400390625 587 c 4,50,51
 328.200195312 594 328.200195312 594 336.599609375 601.5 c 132,-1,52
 345 609 345 609 360.599609375 620 c 4,37,38
291 547 m 4,53,54
 291 555 291 555 283.799804688 555 c 4,55,56
 269.400390625 555 269.400390625 555 269.400390625 547 c 4,57,58
 269.400390625 541 269.400390625 541 273 539.5 c 132,-1,59
 276.599609375 538 276.599609375 538 279 538 c 260,60,61
 281.400390625 538 281.400390625 538 286.200195312 539.5 c 132,-1,62
 291 541 291 541 291 547 c 4,53,54
EndSplineSet
EndChar

StartChar: parenright
Encoding: 41 41 8
Width: 600
VWidth: 1000
GlyphClass: 1
Flags: W
LayerCount: 2
Fore
SplineSet
214.799804688 -93 m 4,0,1
 198 -93 198 -93 183 -84.5 c 132,-1,2
 168 -76 168 -76 168 -66 c 4,3,4
 168 -57 168 -57 180 -43 c 132,-1,5
 192 -29 192 -29 209.400390625 -8.5 c 132,-1,6
 226.799804688 12 226.799804688 12 247.799804688 41 c 132,-1,7
 268.799804688 70 268.799804688 70 286.200195312 108 c 132,-1,8
 303.599609375 146 303.599609375 146 315.599609375 195 c 132,-1,9
 327.599609375 244 327.599609375 244 327.599609375 305 c 4,10,11
 327.599609375 352 327.599609375 352 318.599609375 398.5 c 132,-1,12
 309.599609375 445 309.599609375 445 292.799804688 484 c 132,-1,13
 276 523 276 523 252.599609375 552 c 132,-1,14
 229.200195312 581 229.200195312 581 200.400390625 594 c 4,15,16
 186 601 186 601 169.200195312 610.5 c 132,-1,17
 152.400390625 620 152.400390625 620 152.400390625 638 c 4,18,19
 152.400390625 653 152.400390625 653 168 662.5 c 132,-1,20
 183.599609375 672 183.599609375 672 208.799804688 672 c 4,21,22
 253.200195312 672 253.200195312 672 296.400390625 646 c 132,-1,23
 339.599609375 620 339.599609375 620 373.200195312 572 c 132,-1,24
 406.799804688 524 406.799804688 524 427.200195312 455.5 c 132,-1,25
 447.599609375 387 447.599609375 387 447.599609375 302 c 4,26,27
 447.599609375 227 447.599609375 227 437.400390625 175 c 132,-1,28
 427.200195312 123 427.200195312 123 408.599609375 85 c 132,-1,29
 390 47 390 47 364.799804688 17 c 132,-1,30
 339.599609375 -13 339.599609375 -13 309.599609375 -44 c 4,31,32
 282 -73 282 -73 258.599609375 -83 c 132,-1,33
 235.200195312 -93 235.200195312 -93 214.799804688 -93 c 4,0,1
176.400390625 621 m 4,34,35
 181.200195312 621 181.200195312 621 185.400390625 628.5 c 132,-1,36
 189.599609375 636 189.599609375 636 189.599609375 644 c 4,37,38
 189.599609375 657 189.599609375 657 181.200195312 657 c 4,39,40
 176.400390625 657 176.400390625 657 172.200195312 649.5 c 132,-1,41
 168 642 168 642 168 634 c 4,42,43
 168 621 168 621 176.400390625 621 c 4,34,35
208.799804688 -60 m 260,44,45
 214.799804688 -50 214.799804688 -50 215.400390625 -40 c 132,-1,46
 216 -30 216 -30 211.200195312 -29 c 4,47,48
 208.799804688 -29 208.799804688 -29 204.599609375 -33 c 132,-1,49
 200.400390625 -37 200.400390625 -37 196.200195312 -43 c 132,-1,50
 192 -49 192 -49 189 -55 c 132,-1,51
 186 -61 186 -61 186 -64 c 4,52,53
 186 -72 186 -72 190.799804688 -73 c 4,54,55
 194.400390625 -74 194.400390625 -74 198.599609375 -72 c 132,-1,56
 202.799804688 -70 202.799804688 -70 208.799804688 -60 c 260,44,45
EndSplineSet
EndChar

StartChar: asterisk
Encoding: 42 42 9
Width: 600
VWidth: 1000
GlyphClass: 1
Flags: W
LayerCount: 2
Fore
SplineSet
352.25 771.25 m 5,0,-1
 330.25 569.650390625 l 5,1,-1
 541.450195312 626.349609375 l 5,2,-1
 556.849609375 529.75 l 5,3,-1
 354.450195312 514 l 5,4,-1
 485.349609375 348.099609375 l 5,5,-1
 390.75 298.75 l 5,6,-1
 297.25 482.5 l 5,7,-1
 212.549804688 298.75 l 5,8,-1
 114.650390625 348.099609375 l 5,9,-1
 243.349609375 514 l 5,10,-1
 43.150390625 529.75 l 5,11,-1
 58.5498046875 626.349609375 l 5,12,-1
 267.549804688 569.650390625 l 5,13,-1
 244.450195312 771.25 l 5,14,-1
 352.25 771.25 l 5,0,-1
EndSplineSet
EndChar

StartChar: plus
Encoding: 43 43 10
Width: 600
VWidth: 1000
GlyphClass: 1
Flags: W
LayerCount: 2
Fore
SplineSet
339.599609375 391.5 m 5,0,-1
 558.5 391.5 l 5,1,-1
 558.5 313.400390625 l 5,2,-1
 339.599609375 313.400390625 l 5,3,-1
 339.599609375 86.7998046875 l 5,4,-1
 260.400390625 86.7998046875 l 5,5,-1
 260.400390625 313.400390625 l 5,6,-1
 41.5 313.400390625 l 5,7,-1
 41.5 391.5 l 5,8,-1
 260.400390625 391.5 l 5,9,-1
 260.400390625 619.200195312 l 5,10,-1
 339.599609375 619.200195312 l 5,11,-1
 339.599609375 391.5 l 5,0,-1
EndSplineSet
EndChar

StartChar: comma
Encoding: 44 44 11
Width: 600
VWidth: 1000
GlyphClass: 1
Flags: W
LayerCount: 2
Fore
SplineSet
375.5 105 m 1,0,1
 366.5 70 366.5 70 352.5 29 c 128,-1,2
 338.5 -12 338.5 -12 322 -52.5 c 128,-1,3
 305.5 -93 305.5 -93 289.5 -129 c 1,4,-1
 224.5 -129 l 1,5,6
 234.5 -91 234.5 -91 244 -47.5 c 128,-1,7
 253.5 -4 253.5 -4 261.5 38.5 c 128,-1,8
 269.5 81 269.5 81 274.5 116 c 1,9,-1
 368.5 116 l 1,10,-1
 375.5 105 l 1,0,1
EndSplineSet
EndChar

StartChar: hyphen
Encoding: 45 45 12
Width: 600
VWidth: 1000
GlyphClass: 1
Flags: W
LayerCount: 2
Fore
SplineSet
95.5 229 m 1,0,-1
 95.5 307 l 1,1,-1
 504.5 307 l 1,2,-1
 504.5 229 l 1,3,-1
 95.5 229 l 1,0,-1
EndSplineSet
EndChar

StartChar: period
Encoding: 46 46 13
Width: 600
VWidth: 1000
GlyphClass: 1
Flags: W
LayerCount: 2
Fore
SplineSet
291.75 -62.25 m 4,0,1
 231.75 -62.25 231.75 -62.25 189 -20.25 c 132,-1,2
 146.25 21.75 146.25 21.75 146.25 87.75 c 4,3,4
 146.25 123.75 146.25 123.75 159 156 c 132,-1,5
 171.75 188.25 171.75 188.25 194.25 211.5 c 132,-1,6
 216.75 234.75 216.75 234.75 248.25 249 c 132,-1,7
 279.75 263.25 279.75 263.25 317.25 263.25 c 4,8,9
 347.25 263.25 347.25 263.25 372.75 250.5 c 132,-1,10
 398.25 237.75 398.25 237.75 416.25 215.25 c 132,-1,11
 434.25 192.75 434.25 192.75 444 164.25 c 132,-1,12
 453.75 135.75 453.75 135.75 453.75 104.25 c 4,13,14
 453.75 63.75 453.75 63.75 441 33 c 132,-1,15
 428.25 2.25 428.25 2.25 405.75 -18.75 c 132,-1,16
 383.25 -39.75 383.25 -39.75 354 -51 c 132,-1,17
 324.75 -62.25 324.75 -62.25 291.75 -62.25 c 4,0,1
236.25 197.25 m 4,18,19
 246.75 207.75 246.75 207.75 249 215.25 c 132,-1,20
 251.25 222.75 251.25 222.75 248.25 222.75 c 4,21,22
 236.25 222.75 236.25 222.75 222.75 211.5 c 132,-1,23
 209.25 200.25 209.25 200.25 198 184.5 c 132,-1,24
 186.75 168.75 186.75 168.75 179.25 150.75 c 132,-1,25
 171.75 132.75 171.75 132.75 171.75 117.75 c 4,26,27
 171.75 114.75 171.75 114.75 174 105.75 c 132,-1,28
 176.25 96.75 176.25 96.75 180.75 96.75 c 4,29,30
 186.75 96.75 186.75 96.75 195.75 129.75 c 4,31,32
 200.25 150.75 200.25 150.75 212.25 168 c 132,-1,33
 224.25 185.25 224.25 185.25 236.25 197.25 c 4,18,19
297.75 23.25 m 4,34,35
 315.75 23.25 315.75 23.25 340.5 44.25 c 132,-1,36
 365.25 65.25 365.25 65.25 365.25 104.25 c 4,37,38
 365.25 134.25 365.25 134.25 349.5 154.5 c 132,-1,39
 333.75 174.75 333.75 174.75 308.25 174.75 c 260,40,41
 282.75 174.75 282.75 174.75 261.75 154.5 c 132,-1,42
 240.75 134.25 240.75 134.25 240.75 98.25 c 260,43,44
 240.75 62.25 240.75 62.25 257.25 42.75 c 132,-1,45
 273.75 23.25 273.75 23.25 297.75 23.25 c 4,34,35
EndSplineSet
EndChar

StartChar: slash
Encoding: 47 47 14
Width: 600
VWidth: 1000
GlyphClass: 1
Flags: W
LayerCount: 2
Fore
SplineSet
186.5 -77 m 0,0,1
 182.5 -77 182.5 -77 171 -75 c 128,-1,2
 159.5 -73 159.5 -73 147.5 -68.5 c 128,-1,3
 135.5 -64 135.5 -64 126.5 -57 c 128,-1,4
 117.5 -50 117.5 -50 117.5 -41 c 0,5,6
 117.5 -38 117.5 -38 128 -9.5 c 128,-1,7
 138.5 19 138.5 19 155.5 64 c 128,-1,8
 172.5 109 172.5 109 195 166 c 128,-1,9
 217.5 223 217.5 223 241.5 283 c 128,-1,10
 265.5 343 265.5 343 289.5 402 c 128,-1,11
 313.5 461 313.5 461 333.5 509.5 c 128,-1,12
 353.5 558 353.5 558 368.5 592 c 128,-1,13
 383.5 626 383.5 626 389.5 636 c 0,14,15
 396.5 647 396.5 647 408 656.5 c 128,-1,16
 419.5 666 419.5 666 433.5 666 c 0,17,18
 440.5 666 440.5 666 449 663.5 c 128,-1,19
 457.5 661 457.5 661 465 656.5 c 128,-1,20
 472.5 652 472.5 652 477.5 646 c 128,-1,21
 482.5 640 482.5 640 482.5 633 c 0,22,23
 482.5 625 482.5 625 474 599.5 c 128,-1,24
 465.5 574 465.5 574 454 544.5 c 128,-1,25
 442.5 515 442.5 515 431 487.5 c 128,-1,26
 419.5 460 419.5 460 413.5 447 c 0,27,28
 409.5 438 409.5 438 398.5 410.5 c 128,-1,29
 387.5 383 387.5 383 372.5 344.5 c 128,-1,30
 357.5 306 357.5 306 339.5 259.5 c 128,-1,31
 321.5 213 321.5 213 302.5 166.5 c 128,-1,32
 283.5 120 283.5 120 265 76 c 128,-1,33
 246.5 32 246.5 32 231 -2 c 128,-1,34
 215.5 -36 215.5 -36 203.5 -56.5 c 128,-1,35
 191.5 -77 191.5 -77 186.5 -77 c 0,0,1
161.5 -37 m 4,36,37
 165.5 -25 165.5 -25 173.5 -7 c 132,-1,38
 181.5 11 181.5 11 188.5 27.5 c 132,-1,39
 195.5 44 195.5 44 199 56.5 c 132,-1,40
 202.5 69 202.5 69 197.5 70 c 4,41,42
 195.5 71 195.5 71 190.5 71 c 132,-1,43
 185.5 71 185.5 71 182.5 66 c 4,44,45
 180.5 62 180.5 62 174 48.5 c 132,-1,46
 167.5 35 167.5 35 161 19.5 c 132,-1,47
 154.5 4 154.5 4 149.5 -10.5 c 132,-1,48
 144.5 -25 144.5 -25 144.5 -31 c 4,49,50
 144.5 -38 144.5 -38 152 -40 c 132,-1,51
 159.5 -42 159.5 -42 161.5 -37 c 4,36,37
EndSplineSet
EndChar

StartChar: zero
Encoding: 48 48 15
Width: 600
GlyphClass: 1
Flags: W
LayerCount: 2
Fore
SplineSet
307.01953125 -17 m 4,0,1
 232.607421875 -17 232.607421875 -17 182.766601562 12 c 132,-1,2
 132.923828125 41 132.923828125 41 102.737304688 88 c 132,-1,3
 72.552734375 135 72.552734375 135 60.6171875 194.5 c 132,-1,4
 48.68359375 254 48.68359375 254 48.68359375 314 c 260,5,6
 48.68359375 374 48.68359375 374 62.7236328125 432 c 132,-1,7
 76.763671875 490 76.763671875 490 109.055664062 535.5 c 132,-1,8
 141.34765625 581 141.34765625 581 193.296875 608.5 c 132,-1,9
 245.244140625 636 245.244140625 636 318.251953125 636 c 4,10,11
 367.392578125 636 367.392578125 636 403.194335938 618.5 c 132,-1,12
 438.99609375 601 438.99609375 601 464.969726562 573.5 c 132,-1,13
 490.944335938 546 490.944335938 546 508.494140625 511 c 132,-1,14
 526.043945312 476 526.043945312 476 535.169921875 440 c 132,-1,15
 544.296875 404 544.296875 404 547.805664062 371 c 132,-1,16
 551.31640625 338 551.31640625 338 551.31640625 314 c 4,17,18
 551.31640625 264 551.31640625 264 538.6796875 205.5 c 132,-1,19
 526.043945312 147 526.043945312 147 497.262695312 97.5 c 132,-1,20
 468.48046875 48 468.48046875 48 421.446289062 15.5 c 132,-1,21
 374.412109375 -17 374.412109375 -17 307.01953125 -17 c 4,0,1
152.580078125 524 m 4,22,23
 165.215820312 543 165.215820312 543 172.9375 553 c 132,-1,24
 180.66015625 563 180.66015625 563 180.66015625 566 c 4,25,26
 180.66015625 568 180.66015625 568 175.043945312 568.5 c 132,-1,27
 169.427734375 569 169.427734375 569 161.00390625 562 c 4,28,29
 155.387695312 556 155.387695312 556 145.560546875 543 c 132,-1,30
 135.732421875 530 135.732421875 530 125.903320312 516 c 132,-1,31
 116.076171875 502 116.076171875 502 109.055664062 488 c 132,-1,32
 102.036132812 474 102.036132812 474 102.036132812 467 c 260,33,34
 102.036132812 460 102.036132812 460 109.756835938 462 c 132,-1,35
 117.48046875 464 117.48046875 464 121.692382812 471 c 4,36,37
 125.903320312 479 125.903320312 479 132.923828125 492.5 c 132,-1,38
 139.944335938 506 139.944335938 506 152.580078125 524 c 4,22,23
308.423828125 60 m 4,39,40
 353.352539062 60 353.352539062 60 379.326171875 87 c 132,-1,41
 405.299804688 114 405.299804688 114 418.637695312 154 c 132,-1,42
 431.9765625 194 431.9765625 194 435.486328125 240 c 132,-1,43
 438.99609375 286 438.99609375 286 438.99609375 324 c 4,44,45
 438.99609375 348 438.99609375 348 434.784179688 386.5 c 132,-1,46
 430.572265625 425 430.572265625 425 417.935546875 462.5 c 132,-1,47
 405.299804688 500 405.299804688 500 381.432617188 527 c 132,-1,48
 357.564453125 554 357.564453125 554 318.251953125 554 c 4,49,50
 285.959960938 554 285.959960938 554 263.49609375 526.5 c 132,-1,51
 241.032226562 499 241.032226562 499 225.587890625 460.5 c 132,-1,52
 210.14453125 422 210.14453125 422 203.123046875 380 c 132,-1,53
 196.103515625 338 196.103515625 338 196.103515625 308 c 4,54,55
 196.103515625 293 196.103515625 293 196.103515625 269 c 132,-1,56
 196.103515625 245 196.103515625 245 198.912109375 217 c 132,-1,57
 201.719726562 189 201.719726562 189 208.037109375 161.5 c 132,-1,58
 214.35546875 134 214.35546875 134 226.993164062 111.5 c 132,-1,59
 239.627929688 89 239.627929688 89 259.986328125 74.5 c 132,-1,60
 280.34375 60 280.34375 60 308.423828125 60 c 4,39,40
EndSplineSet
EndChar

StartChar: one
Encoding: 49 49 16
Width: 600
GlyphClass: 1
Flags: W
LayerCount: 2
Fore
SplineSet
547.256835938 -26 m 1,0,-1
 99.2568359375 -26 l 1,1,-1
 99.2568359375 38 l 1,2,-1
 547.256835938 38 l 1,3,-1
 547.256835938 -26 l 1,0,-1
349.000976562 28 m 0,4,5
 277.241210938 28 277.241210938 28 277.241210938 76 c 2,6,-1
 277.241210938 468 l 2,7,8
 277.256835938 482 277.256835938 482 276.4609375 484 c 0,9,10
 275.256835938 491 275.256835938 491 272.560546875 491 c 0,11,12
 267.256835938 491 267.256835938 491 257.741210938 483.5 c 0,13,14
 247.256835938 476 247.256835938 476 211.44140625 462.5 c 0,15,16
 175.256835938 449 175.256835938 449 161.94140625 443 c 0,17,18
 148.256835938 437 148.256835938 437 134.641601562 433 c 0,19,20
 120.256835938 428 120.256835938 428 105.000976562 428 c 0,21,22
 86.2568359375 428 86.2568359375 428 68.341796875 438 c 0,23,24
 49.2568359375 448 49.2568359375 448 53.521484375 463 c 0,25,26
 57.2568359375 476 57.2568359375 476 64.1220703125 493 c 0,27,28
 69.2568359375 506 69.2568359375 506 95.6416015625 518 c 0,29,30
 165.256835938 550 165.256835938 550 186.549804688 560.505859375 c 0,31,32
 242.256835938 591 242.256835938 591 249.161132812 593.5 c 0,33,34
 306.256835938 617 306.256835938 617 312.341796875 622 c 0,35,36
 333.256835938 638 333.256835938 638 361.481445312 638 c 0,37,38
 384.256835938 638 384.256835938 638 384.1015625 637 c 0,39,40
 382.48828125 631.751953125 382.48828125 631.751953125 358.060546875 633 c 0,41,42
 366.256835938 633 366.256835938 633 377.560546875 624 c 0,43,44
 385.435546875 617.860351562 385.435546875 617.860351562 385.361328125 608 c 2,45,-1
 381.361328125 77 l 2,46,47
 381.256835938 61 381.256835938 61 371.622070312 43.5 c 0,48,49
 363.256835938 28 363.256835938 28 349.000976562 28 c 0,4,5
347.44140625 613 m 0,50,51
 355.256835938 621 355.256835938 621 359.921875 624 c 0,52,53
 364.256835938 627 364.256835938 627 359.921875 628 c 0,54,55
 357.256835938 628 357.256835938 628 345.881835938 625 c 0,56,57
 335.256835938 622 335.256835938 622 324.041015625 616 c 0,58,59
 316.256835938 611 316.256835938 611 303.760742188 604 c 128,-1,60
 291.256835938 597 291.256835938 597 291.28125 593 c 0,61,62
 291.256835938 590 291.256835938 590 297.521484375 589 c 0,63,64
 308.256835938 588 308.256835938 588 324.822265625 598 c 128,-1,65
 341.256835938 608 341.256835938 608 347.44140625 613 c 0,50,51
330.28125 74 m 0,66,67
 330.256835938 82 330.256835938 82 325.6015625 87.5 c 0,68,69
 320.256835938 94 320.256835938 94 320.921875 104 c 0,70,71
 321.256835938 109 321.256835938 109 320.141601562 113 c 0,72,73
 319.256835938 117 319.256835938 117 311.560546875 117 c 0,74,75
 305.256835938 117 305.256835938 117 302.201171875 107.5 c 128,-1,76
 299.256835938 98 299.256835938 98 299.08203125 86.5 c 0,77,78
 299.256835938 75 299.256835938 75 302.201171875 65.5 c 128,-1,79
 305.256835938 56 305.256835938 56 311.560546875 56 c 0,80,81
 330.256835938 56 330.256835938 56 330.28125 74 c 0,66,67
EndSplineSet
EndChar

StartChar: two
Encoding: 50 50 17
Width: 600
GlyphClass: 1
Flags: W
LayerCount: 2
Fore
SplineSet
90.5087890625 0 m 2,0,1
 76.46875 0 76.46875 0 64.7685546875 13.5 c 128,-1,2
 53.068359375 27 53.068359375 27 56.189453125 39 c 256,3,4
 59.30859375 51 59.30859375 51 81.1484375 69.5 c 128,-1,5
 102.989257812 88 102.989257812 88 129.508789062 109 c 0,6,7
 187.229492188 155 187.229492188 155 233.249023438 203.5 c 128,-1,8
 279.268554688 252 279.268554688 252 312.029296875 299.5 c 128,-1,9
 344.7890625 347 344.7890625 347 361.94921875 392 c 128,-1,10
 379.108398438 437 379.108398438 437 379.108398438 476 c 0,11,12
 379.108398438 518 379.108398438 518 351.80859375 532.5 c 128,-1,13
 324.508789062 547 324.508789062 547 291.749023438 547 c 256,14,15
 260.548828125 547 260.548828125 547 236.368164062 530 c 128,-1,16
 212.189453125 513 212.189453125 513 212.189453125 475 c 0,17,18
 212.189453125 452 212.189453125 452 219.989257812 440.5 c 128,-1,19
 227.7890625 429 227.7890625 429 227.7890625 413 c 0,20,21
 227.7890625 399 227.7890625 399 202.829101562 392.5 c 128,-1,22
 177.868164062 386 177.868164062 386 160.708984375 386 c 0,23,24
 118.588867188 386 118.588867188 386 91.2890625 413 c 128,-1,25
 63.9892578125 440 63.9892578125 440 63.9892578125 481 c 0,26,27
 63.9892578125 514 63.9892578125 514 80.3681640625 542 c 128,-1,28
 96.7490234375 570 96.7490234375 570 127.94921875 591 c 128,-1,29
 159.1484375 612 159.1484375 612 201.268554688 624.5 c 128,-1,30
 243.388671875 637 243.388671875 637 293.30859375 637 c 0,31,32
 341.66796875 637 341.66796875 637 386.908203125 625 c 128,-1,33
 432.1484375 613 432.1484375 613 467.249023438 591 c 128,-1,34
 502.348632812 569 502.348632812 569 523.408203125 538 c 128,-1,35
 544.46875 507 544.46875 507 544.46875 468 c 0,36,37
 544.46875 420 544.46875 420 524.96875 373 c 128,-1,38
 505.46875 326 505.46875 326 475.829101562 284 c 128,-1,39
 446.189453125 242 446.189453125 242 412.6484375 206 c 128,-1,40
 379.108398438 170 379.108398438 170 350.249023438 143.5 c 128,-1,41
 321.388671875 117 321.388671875 117 301.888671875 100.5 c 128,-1,42
 282.388671875 84 282.388671875 84 282.388671875 81 c 1,43,44
 287.068359375 81 287.068359375 81 294.868164062 81 c 2,45,-1
 333.868164062 81 l 1,46,-1
 472.708984375 84 l 2,47,48
 500.7890625 85 500.7890625 85 515.608398438 81 c 128,-1,49
 530.4296875 77 530.4296875 77 536.66796875 69 c 128,-1,50
 542.908203125 61 542.908203125 61 542.908203125 51 c 128,-1,51
 542.908203125 41 542.908203125 41 542.908203125 30 c 0,52,53
 542.908203125 12 542.908203125 12 525.749023438 6 c 128,-1,54
 508.588867188 0 508.588867188 0 458.66796875 0 c 2,55,-1
 90.5087890625 0 l 2,0,1
115.46875 500 m 0,56,57
 117.029296875 512 117.029296875 512 113.908203125 519 c 128,-1,58
 110.7890625 526 110.7890625 526 106.108398438 525 c 0,59,60
 99.8681640625 525 99.8681640625 525 95.96875 518.5 c 128,-1,61
 92.068359375 512 92.068359375 512 91.2890625 503.5 c 128,-1,62
 90.5087890625 495 90.5087890625 495 90.5087890625 487 c 128,-1,63
 90.5087890625 479 90.5087890625 479 90.5087890625 476 c 0,64,65
 93.62890625 463 93.62890625 463 98.30859375 461 c 0,66,67
 106.108398438 456 106.108398438 456 109.229492188 463 c 128,-1,68
 112.348632812 470 112.348632812 470 115.46875 500 c 0,56,57
120.1484375 434 m 0,69,70
 120.1484375 441 120.1484375 441 107.66796875 441 c 256,71,72
 96.7490234375 441 96.7490234375 441 96.7490234375 433 c 0,73,74
 96.7490234375 431 96.7490234375 431 99.8681640625 428 c 128,-1,75
 102.989257812 425 102.989257812 425 106.108398438 425 c 0,76,77
 112.348632812 425 112.348632812 425 116.249023438 428 c 128,-1,78
 120.1484375 431 120.1484375 431 120.1484375 434 c 0,69,70
117.029296875 51 m 0,79,80
 129.508789062 70 129.508789062 70 126.388671875 71 c 0,81,82
 115.46875 71 115.46875 71 102.989257812 61.5 c 128,-1,83
 90.5087890625 52 90.5087890625 52 90.5087890625 41 c 0,84,85
 90.5087890625 33 90.5087890625 33 96.7490234375 33 c 0,86,87
 104.548828125 33 104.548828125 33 117.029296875 51 c 0,79,80
EndSplineSet
EndChar

StartChar: three
Encoding: 51 51 18
Width: 600
GlyphClass: 1
Flags: W
LayerCount: 2
Fore
SplineSet
382.680664062 498 m 0,0,1
 382.680664062 528 382.680664062 528 360.83984375 540.5 c 128,-1,2
 339 553 339 553 293.759765625 553 c 0,3,4
 240.719726562 553 240.719726562 553 214.98046875 527 c 128,-1,5
 189.240234375 501 189.240234375 501 189.240234375 440 c 0,6,7
 189.240234375 426 189.240234375 426 172.859375 420 c 128,-1,8
 156.48046875 414 156.48046875 414 139.319335938 414 c 0,9,10
 42.599609375 414 42.599609375 414 41.0400390625 505 c 0,11,12
 41.0400390625 533 41.0400390625 533 62.880859375 557 c 128,-1,13
 84.7197265625 581 84.7197265625 581 119.040039062 598.5 c 128,-1,14
 153.359375 616 153.359375 616 197.819335938 626.5 c 128,-1,15
 242.280273438 637 242.280273438 637 287.51953125 637 c 0,16,17
 357.719726562 637 357.719726562 637 407.640625 625.5 c 128,-1,18
 457.559570312 614 457.559570312 614 489.540039062 594.5 c 128,-1,19
 521.51953125 575 521.51953125 575 537.900390625 550 c 128,-1,20
 554.280273438 525 554.280273438 525 554.280273438 499 c 0,21,22
 554.280273438 458 554.280273438 458 526.200195312 428 c 128,-1,23
 498.119140625 398 498.119140625 398 463.799804688 377 c 128,-1,24
 429.48046875 356 429.48046875 356 401.400390625 344 c 128,-1,25
 373.319335938 332 373.319335938 332 373.319335938 326 c 256,26,27
 373.319335938 320 373.319335938 320 402.180664062 313 c 128,-1,28
 431.040039062 306 431.040039062 306 466.140625 290.5 c 128,-1,29
 501.240234375 275 501.240234375 275 530.099609375 247 c 128,-1,30
 558.959960938 219 558.959960938 219 558.959960938 171 c 0,31,32
 558.959960938 124 558.959960938 124 530.880859375 90.5 c 128,-1,33
 502.799804688 57 502.799804688 57 457.559570312 35.5 c 128,-1,34
 412.319335938 14 412.319335938 14 354.599609375 4 c 128,-1,35
 296.880859375 -6 296.880859375 -6 237.599609375 -6 c 0,36,37
 212.640625 -6 212.640625 -6 180.66015625 -1.5 c 128,-1,38
 148.680664062 3 148.680664062 3 120.599609375 13 c 128,-1,39
 92.51953125 23 92.51953125 23 73.01953125 37.5 c 128,-1,40
 53.51953125 52 53.51953125 52 53.51953125 73 c 0,41,42
 53.51953125 88 53.51953125 88 63.66015625 98 c 128,-1,43
 73.7998046875 108 73.7998046875 108 90.9599609375 108 c 0,44,45
 111.240234375 108 111.240234375 108 128.400390625 103 c 128,-1,46
 145.559570312 98 145.559570312 98 161.940429688 92.5 c 128,-1,47
 178.319335938 87 178.319335938 87 197.819335938 82.5 c 128,-1,48
 217.319335938 78 217.319335938 78 240.719726562 78 c 0,49,50
 284.400390625 78 284.400390625 78 313.259765625 86 c 128,-1,51
 342.119140625 94 342.119140625 94 358.5 107.5 c 128,-1,52
 374.880859375 121 374.880859375 121 381.119140625 137.5 c 128,-1,53
 387.359375 154 387.359375 154 387.359375 170 c 0,54,55
 387.359375 203 387.359375 203 359.280273438 225.5 c 128,-1,56
 331.200195312 248 331.200195312 248 284.400390625 248 c 0,57,58
 217.319335938 248 217.319335938 248 190.01953125 263.5 c 128,-1,59
 162.719726562 279 162.719726562 279 162.719726562 299 c 0,60,61
 162.719726562 318 162.719726562 318 197.040039062 342.5 c 128,-1,62
 231.359375 367 231.359375 367 272.700195312 392.5 c 128,-1,63
 314.040039062 418 314.040039062 418 348.359375 445 c 128,-1,64
 382.680664062 472 382.680664062 472 382.680664062 498 c 0,0,1
106.559570312 527 m 0,65,66
 108.119140625 539 108.119140625 539 105 546.5 c 128,-1,67
 101.880859375 554 101.880859375 554 97.2001953125 553 c 0,68,69
 90.9599609375 553 90.9599609375 553 85.5 547 c 128,-1,70
 80.0400390625 541 80.0400390625 541 76.140625 532.5 c 128,-1,71
 72.240234375 524 72.240234375 524 69.900390625 516 c 128,-1,72
 67.5595703125 508 67.5595703125 508 69.119140625 504 c 0,73,74
 72.240234375 491 72.240234375 491 76.919921875 488 c 0,75,76
 84.7197265625 483 84.7197265625 483 94.080078125 490 c 128,-1,77
 103.440429688 497 103.440429688 497 106.559570312 527 c 0,65,66
97.2001953125 462 m 0,78,79
 97.2001953125 469 97.2001953125 469 86.2802734375 469 c 256,80,81
 75.359375 469 75.359375 469 75.359375 461 c 0,82,83
 75.359375 459 75.359375 459 78.48046875 456 c 128,-1,84
 81.599609375 453 81.599609375 453 84.7197265625 453 c 0,85,86
 90.9599609375 453 90.9599609375 453 94.080078125 456 c 128,-1,87
 97.2001953125 459 97.2001953125 459 97.2001953125 462 c 0,78,79
215.759765625 298 m 0,88,89
 218.880859375 303 218.880859375 303 225.119140625 311 c 128,-1,90
 231.359375 319 231.359375 319 239.16015625 327 c 0,91,92
 245.400390625 333 245.400390625 333 246.959960938 338 c 128,-1,93
 248.51953125 343 248.51953125 343 245.400390625 343 c 0,94,95
 239.16015625 343 239.16015625 343 229.799804688 337 c 128,-1,96
 220.440429688 331 220.440429688 331 211.859375 322.5 c 128,-1,97
 203.280273438 314 203.280273438 314 196.259765625 305.5 c 128,-1,98
 189.240234375 297 189.240234375 297 189.240234375 291 c 0,99,100
 189.240234375 282 189.240234375 282 198.599609375 282 c 256,101,102
 206.400390625 282 206.400390625 282 215.759765625 298 c 0,88,89
103.440429688 82 m 0,103,104
 103.440429688 104 103.440429688 104 89.400390625 94 c 0,105,106
 81.599609375 89 81.599609375 89 78.48046875 80 c 128,-1,107
 75.359375 71 75.359375 71 76.919921875 63 c 0,108,109
 78.48046875 59 78.48046875 59 81.599609375 57.5 c 128,-1,110
 84.7197265625 56 84.7197265625 56 87.83984375 56 c 256,111,112
 90.9599609375 56 90.9599609375 56 97.2001953125 65 c 128,-1,113
 103.440429688 74 103.440429688 74 103.440429688 82 c 0,103,104
EndSplineSet
EndChar

StartChar: four
Encoding: 52 52 19
Width: 600
VWidth: 1000
GlyphClass: 1
Flags: W
LayerCount: 2
Fore
SplineSet
492.3359375 614 m 0,0,1
 533.505859375 614 533.505859375 614 537.635742188 597.5 c 4,2,3
 545.436523438 565.286132812 545.436523438 565.286132812 545.436523438 549 c 2,4,-1
 545.436523438 271 l 2,5,6
 547.505859375 180 547.505859375 180 547.795898438 96 c 0,7,8
 548.505859375 -2 548.505859375 -2 488.795898438 -2 c 0,9,10
 465.505859375 -2 465.505859375 -2 445.135742188 7.5 c 0,11,12
 423.896484375 16.828125 423.896484375 16.828125 423.896484375 43 c 2,13,-1
 423.896484375 247 l 2,14,15
 423.505859375 287 423.505859375 287 419.17578125 287 c 256,16,17
 415.505859375 287 415.505859375 287 408.555664062 271 c 0,18,19
 402.505859375 255 402.505859375 255 388.49609375 235.5 c 0,20,21
 371.505859375 213 371.505859375 213 347.786132812 200 c 0,22,23
 334.505859375 193 334.505859375 193 196.15625 193 c 0,24,25
 158.505859375 193 158.505859375 193 86.416015625 256 c 0,26,27
 52.1962890625 286.2734375 52.1962890625 286.2734375 52.1962890625 457 c 2,28,-1
 52.1962890625 583 l 2,29,30
 52.505859375 614 52.505859375 614 97.0361328125 614 c 0,31,32
 128.505859375 614 128.505859375 614 143.055664062 602.5 c 0,33,34
 157.215820312 591.23046875 157.215820312 591.23046875 157.215820312 580 c 2,35,-1
 157.215820312 466 l 2,36,37
 157.505859375 404 157.505859375 404 160.755859375 382 c 0,38,39
 167.505859375 341 167.505859375 341 169.015625 332 c 0,40,41
 171.505859375 299 171.505859375 299 270.49609375 300.5 c 0,42,43
 321.505859375 301 321.505859375 301 322.416015625 301 c 0,44,45
 341.505859375 295 341.505859375 295 365.486328125 320.5 c 0,46,47
 416.505859375 372 416.505859375 372 416.81640625 373 c 0,48,49
 420.505859375 431 420.505859375 431 423.305664062 450.5 c 0,50,51
 428.505859375 493 428.505859375 493 428.616210938 493 c 2,52,-1
 428.616210938 569 l 2,53,54
 428.505859375 583 428.505859375 583 437.465820312 593 c 0,55,56
 445.505859375 602 445.505859375 602 458.116210938 606.5 c 0,57,58
 469.505859375 611 469.505859375 611 476.41796875 612.5 c 128,-1,59
 483.505859375 614 483.505859375 614 492.3359375 614 c 0,0,1
521.8359375 298 m 0,60,61
 518.295898438 298 518.295898438 298 515.936523438 286 c 128,-1,62
 513.576171875 274 513.576171875 274 511.215820312 259 c 128,-1,63
 508.856445312 244 508.856445312 244 507.67578125 132 c 128,-1,64
 506.49609375 20 506.49609375 20 506.49609375 19 c 0,65,66
 506.49609375 17 506.49609375 17 507.0859375 14 c 128,-1,67
 507.67578125 11 507.67578125 11 510.036132812 11 c 0,68,69
 515.936523438 11 515.936523438 11 520.06640625 18.5 c 128,-1,70
 524.196289062 26 524.196289062 26 526.555664062 135 c 128,-1,71
 528.916015625 244 528.916015625 244 530.095703125 253.5 c 128,-1,72
 531.276367188 263 531.276367188 263 531.276367188 266 c 0,73,74
 531.276367188 274 531.276367188 274 528.916015625 286 c 128,-1,75
 526.555664062 298 526.555664062 298 521.8359375 298 c 0,60,61
113.555664062 585 m 0,76,77
 112.977539062 579 112.977539062 579 115.916015625 576 c 0,78,79
 117.697265625 573 117.697265625 573 121.2265625 571 c 0,80,81
 123.59765625 569 123.59765625 569 126.536132812 565 c 0,82,83
 128.317382812 561 128.317382812 561 128.896484375 554 c 0,84,85
 128.317382812 538 128.317382812 538 130.666015625 534 c 0,86,87
 131.857421875 530 131.857421875 530 138.3359375 530 c 256,88,89
 143.657226562 530 143.657226562 530 146.005859375 537.5 c 0,90,91
 147.197265625 545 147.197265625 545 147.776367188 555 c 0,92,93
 147.197265625 575 147.197265625 575 140.696289062 587 c 0,94,95
 133.038085938 599 133.038085938 599 124.17578125 599 c 0,96,97
 120.057617188 599 120.057617188 599 117.095703125 595.5 c 0,98,99
 114.157226562 593 114.157226562 593 113.555664062 585 c 0,76,77
493.515625 588 m 0,100,101
 493.515625 583 493.515625 583 496.465820312 580.5 c 128,-1,102
 499.416015625 578 499.416015625 578 502.956054688 575.5 c 128,-1,103
 506.49609375 573 506.49609375 573 509.446289062 569 c 128,-1,104
 512.396484375 565 512.396484375 565 512.396484375 558 c 0,105,106
 512.396484375 537 512.396484375 537 520.65625 537 c 0,107,108
 523.015625 537 523.015625 537 525.375976562 544.5 c 128,-1,109
 527.736328125 552 527.736328125 552 527.736328125 563 c 0,110,111
 527.736328125 578 527.736328125 578 520.06640625 590 c 128,-1,112
 512.396484375 602 512.396484375 602 502.956054688 602 c 0,113,114
 500.595703125 602 500.595703125 602 497.055664062 598 c 128,-1,115
 493.515625 594 493.515625 594 493.515625 588 c 0,100,101
EndSplineSet
EndChar

StartChar: five
Encoding: 53 53 20
Width: 600
GlyphClass: 1
Flags: W
LayerCount: 2
Fore
SplineSet
140.099609375 -8 m 0,0,1
 104.219726562 -8 104.219726562 -8 84.7197265625 -1.5 c 128,-1,2
 65.2197265625 5 65.2197265625 5 55.859375 14.5 c 128,-1,3
 46.5 24 46.5 24 44.16015625 33.5 c 128,-1,4
 41.8193359375 43 41.8193359375 43 41.8193359375 49 c 0,5,6
 41.8193359375 63 41.8193359375 63 50.400390625 71.5 c 128,-1,7
 58.98046875 80 58.98046875 80 73.01953125 83.5 c 128,-1,8
 87.0595703125 87 87.0595703125 87 105 87.5 c 128,-1,9
 122.940429688 88 122.940429688 88 140.099609375 88 c 0,10,11
 278.940429688 88 278.940429688 88 337.440429688 115 c 128,-1,12
 395.940429688 142 395.940429688 142 395.940429688 201 c 0,13,14
 395.940429688 257 395.940429688 257 354.599609375 283.5 c 128,-1,15
 313.259765625 310 313.259765625 310 235.259765625 310 c 0,16,17
 205.619140625 310 205.619140625 310 185.33984375 307 c 128,-1,18
 165.059570312 304 165.059570312 304 151.01953125 300.5 c 128,-1,19
 136.98046875 297 136.98046875 297 124.5 294 c 128,-1,20
 112.01953125 291 112.01953125 291 94.859375 291 c 256,21,22
 79.259765625 291 79.259765625 291 69.900390625 300 c 128,-1,23
 60.5400390625 309 60.5400390625 309 55.859375 322 c 128,-1,24
 51.1806640625 335 51.1806640625 335 50.400390625 350 c 128,-1,25
 49.619140625 365 49.619140625 365 49.619140625 375 c 2,26,-1
 49.619140625 582 l 2,27,28
 49.619140625 610 49.619140625 610 70.6806640625 620.5 c 128,-1,29
 91.740234375 631 91.740234375 631 122.940429688 631 c 2,30,-1
 494.219726562 631 l 2,31,32
 506.700195312 631 506.700195312 631 518.400390625 623 c 128,-1,33
 530.099609375 615 530.099609375 615 530.099609375 601 c 0,34,35
 530.099609375 583 530.099609375 583 518.400390625 566 c 128,-1,36
 506.700195312 549 506.700195312 549 491.099609375 549 c 2,37,-1
 222.780273438 548 l 2,38,39
 214.98046875 548 214.98046875 548 211.859375 543.5 c 128,-1,40
 208.740234375 539 208.740234375 539 208.740234375 534 c 2,41,-1
 208.740234375 409 l 2,42,43
 208.740234375 393 208.740234375 393 213.419921875 390.5 c 128,-1,44
 218.099609375 388 218.099609375 388 229.01953125 388 c 2,45,-1
 268.01953125 389 l 2,46,47
 331.98046875 391 331.98046875 391 385.799804688 380.5 c 128,-1,48
 439.619140625 370 439.619140625 370 477.83984375 346.5 c 128,-1,49
 516.059570312 323 516.059570312 323 537.119140625 287 c 128,-1,50
 558.180664062 251 558.180664062 251 558.180664062 202 c 0,51,52
 558.180664062 162 558.180664062 162 533.219726562 124.5 c 128,-1,53
 508.259765625 87 508.259765625 87 456 57.5 c 128,-1,54
 403.740234375 28 403.740234375 28 325.740234375 10 c 128,-1,55
 247.740234375 -8 247.740234375 -8 140.099609375 -8 c 0,0,1
93.2998046875 413 m 0,56,57
 93.2998046875 432 93.2998046875 432 91.740234375 442.5 c 128,-1,58
 90.1806640625 453 90.1806640625 453 80.8193359375 446 c 0,59,60
 76.140625 443 76.140625 443 73.01953125 431 c 128,-1,61
 69.900390625 419 69.900390625 419 69.900390625 404.5 c 128,-1,62
 69.900390625 390 69.900390625 390 73.01953125 378 c 128,-1,63
 76.140625 366 76.140625 366 80.8193359375 362 c 256,64,65
 85.5 359 85.5 359 87.0595703125 359 c 0,66,67
 93.2998046875 360 93.2998046875 360 93.2998046875 413 c 0,56,57
107.33984375 334 m 0,68,69
 107.33984375 344 107.33984375 344 97.98046875 344 c 0,70,71
 80.8193359375 344 80.8193359375 344 80.8193359375 330 c 0,72,73
 80.8193359375 323 80.8193359375 323 93.2998046875 323 c 0,74,75
 101.099609375 323 101.099609375 323 104.219726562 327.5 c 128,-1,76
 107.33984375 332 107.33984375 332 107.33984375 334 c 0,68,69
91.740234375 49 m 0,77,78
 90.1806640625 51 90.1806640625 51 90.9599609375 55 c 128,-1,79
 91.740234375 59 91.740234375 59 92.51953125 63 c 128,-1,80
 93.2998046875 67 93.2998046875 67 91.740234375 69.5 c 128,-1,81
 90.1806640625 72 90.1806640625 72 83.9404296875 72 c 0,82,83
 76.140625 72 76.140625 72 73.01953125 63 c 128,-1,84
 69.900390625 54 69.900390625 54 71.4599609375 43 c 256,85,86
 73.01953125 32 73.01953125 32 77.7001953125 22 c 128,-1,87
 82.380859375 12 82.380859375 12 91.740234375 12 c 0,88,89
 94.859375 12 94.859375 12 97.2001953125 23.5 c 128,-1,90
 99.5400390625 35 99.5400390625 35 91.740234375 49 c 0,77,78
EndSplineSet
EndChar

StartChar: six
Encoding: 54 54 21
Width: 600
GlyphClass: 1
Flags: W
LayerCount: 2
Fore
SplineSet
301.989257812 -11 m 4,0,1
 231.7109375 -11 231.7109375 -11 181.986328125 9 c 132,-1,2
 132.260742188 29 132.260742188 29 101.099609375 62.5 c 132,-1,3
 69.9384765625 96 69.9384765625 96 55.353515625 139.5 c 132,-1,4
 40.7666015625 183 40.7666015625 183 40.7666015625 230 c 4,5,6
 40.7666015625 282 40.7666015625 282 52.0380859375 336 c 132,-1,7
 63.30859375 390 63.30859375 390 86.513671875 439 c 132,-1,8
 109.719726562 488 109.719726562 488 146.846679688 530 c 132,-1,9
 183.974609375 572 183.974609375 572 237.015625 601 c 4,10,11
 275.469726562 621 275.469726562 621 313.259765625 628 c 132,-1,12
 351.05078125 635 351.05078125 635 380.223632812 635 c 4,13,14
 386.853515625 635 386.853515625 635 397.4609375 633.5 c 132,-1,15
 408.069335938 632 408.069335938 632 417.350585938 629 c 132,-1,16
 426.633789062 626 426.633789062 626 433.92578125 620.5 c 132,-1,17
 441.219726562 615 441.219726562 615 441.219726562 607 c 4,18,19
 441.219726562 593 441.219726562 593 434.588867188 581 c 132,-1,20
 427.958984375 569 427.958984375 569 392.157226562 560 c 132,-1,21
 356.354492188 551 356.354492188 551 327.845703125 533.5 c 132,-1,22
 299.336914062 516 299.336914062 516 276.794921875 494 c 132,-1,23
 254.25390625 472 254.25390625 472 238.340820312 446 c 132,-1,24
 222.4296875 420 222.4296875 420 209.169921875 394 c 4,25,26
 202.5390625 382 202.5390625 382 197.234375 363 c 132,-1,27
 191.930664062 344 191.930664062 344 191.930664062 333 c 4,28,29
 191.930664062 323 191.930664062 323 197.234375 323 c 4,30,31
 201.212890625 323 201.212890625 323 211.158203125 332.5 c 132,-1,32
 221.103515625 342 221.103515625 342 238.340820312 353.5 c 132,-1,33
 255.579101562 365 255.579101562 365 281.436523438 374.5 c 132,-1,34
 307.29296875 384 307.29296875 384 344.420898438 384 c 4,35,36
 449.174804688 384 449.174804688 384 504.204101562 331 c 132,-1,37
 559.233398438 278 559.233398438 278 559.233398438 191 c 4,38,39
 559.233398438 149 559.233398438 149 538.6796875 112.5 c 132,-1,40
 518.125976562 76 518.125976562 76 482.98828125 48 c 132,-1,41
 447.849609375 20 447.849609375 20 400.775390625 4.5 c 132,-1,42
 353.703125 -11 353.703125 -11 301.989257812 -11 c 4,0,1
295.359375 82 m 4,43,44
 352.375976562 82 352.375976562 82 386.853515625 109 c 132,-1,45
 421.329101562 136 421.329101562 136 421.329101562 195 c 4,46,47
 421.329101562 212 421.329101562 212 417.350585938 229.5 c 132,-1,48
 413.374023438 247 413.374023438 247 402.765625 261 c 132,-1,49
 392.157226562 275 392.157226562 275 373.592773438 284 c 132,-1,50
 355.029296875 293 355.029296875 293 325.857421875 293 c 4,51,52
 300.663085938 293 300.663085938 293 274.142578125 282.5 c 132,-1,53
 247.624023438 272 247.624023438 272 227.0703125 256.5 c 132,-1,54
 206.516601562 241 206.516601562 241 193.919921875 221 c 132,-1,55
 181.32421875 201 181.32421875 201 181.32421875 182 c 4,56,57
 181.32421875 140 181.32421875 140 205.19140625 111 c 132,-1,58
 229.05859375 82 229.05859375 82 295.359375 82 c 4,43,44
124.3046875 110 m 4,59,60
 120.326171875 121 120.326171875 121 115.0234375 130.5 c 132,-1,61
 109.719726562 140 109.719726562 140 104.415039062 152 c 4,62,63
 101.763671875 158 101.763671875 158 99.7744140625 163 c 132,-1,64
 97.78515625 168 97.78515625 168 92.48046875 167 c 4,65,66
 88.50390625 167 88.50390625 167 85.8505859375 159 c 4,67,68
 84.525390625 152 84.525390625 152 89.166015625 138.5 c 132,-1,69
 93.806640625 125 93.806640625 125 101.099609375 112.5 c 132,-1,70
 108.392578125 100 108.392578125 100 115.686523438 91.5 c 132,-1,71
 122.979492188 83 122.979492188 83 125.630859375 83 c 4,72,73
 132.260742188 83 132.260742188 83 132.260742188 88 c 4,74,75
 132.260742188 92 132.260742188 92 129.609375 97.5 c 132,-1,76
 126.95703125 103 126.95703125 103 124.3046875 110 c 4,59,60
EndSplineSet
EndChar

StartChar: seven
Encoding: 55 55 22
Width: 600
GlyphClass: 1
Flags: W
LayerCount: 2
Fore
SplineSet
188.419921875 -2 m 0,0,1
 167 -2 167 -2 150.98046875 6.5 c 128,-1,2
 135 15 135 15 135.380859375 26 c 0,3,4
 134.604492188 35.181640625 134.604492188 35.181640625 153.801757812 72.0908203125 c 128,-1,5
 173 109 173 109 203 160 c 128,-1,6
 233 211 233 211 263.799804688 269.5 c 0,7,8
 293 328 293 328 319.180664062 380 c 0,9,10
 346 432 346 432 366.759765625 472 c 0,11,12
 388 512 388 512 395.619140625 526 c 0,13,14
 404 542 404 542 384.700195312 542 c 2,15,-1
 143.219726562 542 l 2,16,17
 100 542 100 542 75.359375 550.5 c 0,18,19
 51 559 51 559 51.1806640625 587 c 256,20,21
 51 615 51 615 77.7001953125 623 c 0,22,23
 104 631 104 631 146.33984375 631 c 2,24,-1
 483.299804688 631 l 2,25,26
 510 631 510 631 529.319335938 620 c 0,27,28
 549 609 549 609 548.819335938 595 c 0,29,30
 549 585 549 585 530.880859375 542 c 0,31,32
 513 499 513 499 484.859375 439.5 c 0,33,34
 457 380 457 380 422.459960938 311 c 128,-1,35
 388 242 388 242 356.16015625 180.5 c 0,36,37
 306 85 306 85 299.219726562 73 c 0,38,39
 290 58 290 58 260.219726562 11 c 0,40,41
 257 6 257 6 241.5 2 c 128,-1,42
 226 -2 226 -2 188.419921875 -2 c 0,0,1
102.66015625 608 m 0,43,44
 102.66015625 616 102.66015625 616 94.859375 616 c 256,45,46
 87.0595703125 616 87.0595703125 616 76.140625 608.5 c 128,-1,47
 65.2197265625 601 65.2197265625 601 65.2197265625 590 c 0,48,49
 65.2197265625 570 65.2197265625 570 79.259765625 569 c 0,50,51
 83.9404296875 569 83.9404296875 569 88.619140625 574 c 128,-1,52
 93.2998046875 579 93.2998046875 579 96.419921875 585 c 128,-1,53
 99.5400390625 591 99.5400390625 591 101.099609375 597.5 c 128,-1,54
 102.66015625 604 102.66015625 604 102.66015625 608 c 0,43,44
188.419921875 39 m 0,55,56
 192 49 192 49 194.66015625 60 c 0,57,58
 198 71 198 71 200.900390625 75 c 0,59,60
 207 80 207 80 204.799804688 85 c 0,61,62
 202 90 202 90 194.66015625 90 c 0,63,64
 190 90 190 90 184.51953125 83 c 128,-1,65
 179 76 179 76 175.16015625 66 c 0,66,67
 171 56 171 56 168.140625 46.5 c 0,68,69
 165 37 165 37 165.01953125 32 c 0,70,71
 165 19 165 19 172.819335938 19 c 256,72,73
 182 19 182 19 188.419921875 39 c 0,55,56
EndSplineSet
EndChar

StartChar: eight
Encoding: 56 56 23
Width: 600
GlyphClass: 1
Flags: W
LayerCount: 2
Fore
SplineSet
289.391601562 -6 m 4,0,1
 235.025390625 -6 235.025390625 -6 189.279296875 9 c 132,-1,2
 143.532226562 24 143.532226562 24 111.708007812 48 c 132,-1,3
 79.8837890625 72 79.8837890625 72 61.9833984375 103 c 132,-1,4
 44.08203125 134 44.08203125 134 44.08203125 167 c 4,5,6
 44.08203125 206 44.08203125 206 67.287109375 233.5 c 132,-1,7
 90.4912109375 261 90.4912109375 261 118.337890625 280.5 c 132,-1,8
 146.18359375 300 146.18359375 300 169.388671875 313 c 132,-1,9
 192.594726562 326 192.594726562 326 192.594726562 333 c 4,10,11
 192.594726562 341 192.594726562 341 171.37890625 350 c 132,-1,12
 150.162109375 359 150.162109375 359 124.3046875 375.5 c 132,-1,13
 98.44921875 392 98.44921875 392 77.8955078125 417 c 132,-1,14
 57.341796875 442 57.341796875 442 57.341796875 482 c 4,15,16
 57.341796875 515 57.341796875 515 76.5693359375 543.5 c 132,-1,17
 95.7958984375 572 95.7958984375 572 129.609375 593.5 c 132,-1,18
 163.421875 615 163.421875 615 207.1796875 627.5 c 132,-1,19
 250.938476562 640 250.938476562 640 298.674804688 640 c 4,20,21
 334.475585938 640 334.475585938 640 374.919921875 629 c 132,-1,22
 415.361328125 618 415.361328125 618 449.837890625 598.5 c 132,-1,23
 484.313476562 579 484.313476562 579 506.85546875 549 c 132,-1,24
 529.3984375 519 529.3984375 519 529.3984375 480 c 4,25,26
 529.3984375 442 529.3984375 442 510.170898438 419 c 132,-1,27
 490.944335938 396 490.944335938 396 468.401367188 382.5 c 132,-1,28
 445.859375 369 445.859375 369 427.295898438 361.5 c 132,-1,29
 408.732421875 354 408.732421875 354 408.732421875 348 c 4,30,31
 408.732421875 339 408.732421875 339 431.936523438 327 c 132,-1,32
 455.141601562 315 455.141601562 315 482.98828125 296.5 c 132,-1,33
 510.833984375 278 510.833984375 278 533.375976562 248 c 132,-1,34
 555.91796875 218 555.91796875 218 555.91796875 173 c 4,35,36
 555.91796875 139 555.91796875 139 535.365234375 107 c 132,-1,37
 514.811523438 75 514.811523438 75 477.68359375 49.5 c 132,-1,38
 440.555664062 24 440.555664062 24 392.8203125 9 c 132,-1,39
 345.083984375 -6 345.083984375 -6 289.391601562 -6 c 4,0,1
115.686523438 524 m 4,40,41
 117.01171875 530 117.01171875 530 123.641601562 537.5 c 132,-1,42
 130.271484375 545 130.271484375 545 138.228515625 551.5 c 132,-1,43
 146.18359375 558 146.18359375 558 153.4765625 563.5 c 132,-1,44
 160.770507812 569 160.770507812 569 164.749023438 572 c 4,45,46
 179.333984375 584 179.333984375 584 180.66015625 592 c 4,47,48
 180.66015625 596 180.66015625 596 175.35546875 596 c 4,49,50
 163.421875 596 163.421875 596 148.8359375 586.5 c 132,-1,51
 134.25 577 134.25 577 122.31640625 563 c 132,-1,52
 110.381835938 549 110.381835938 549 101.763671875 535 c 132,-1,53
 93.14453125 521 93.14453125 521 93.14453125 513 c 260,54,55
 93.14453125 505 93.14453125 505 98.44921875 505 c 4,56,57
 109.055664062 505 109.055664062 505 115.686523438 524 c 4,40,41
298.674804688 380 m 4,58,59
 315.912109375 380 315.912109375 380 333.150390625 388.5 c 132,-1,60
 350.388671875 397 350.388671875 397 363.6484375 411.5 c 132,-1,61
 376.908203125 426 376.908203125 426 386.190429688 444 c 132,-1,62
 395.471679688 462 395.471679688 462 395.471679688 480 c 4,63,64
 395.471679688 516 395.471679688 516 368.2890625 542 c 132,-1,65
 341.10546875 568 341.10546875 568 297.348632812 568 c 260,66,67
 253.58984375 568 253.58984375 568 222.4296875 545.5 c 132,-1,68
 191.267578125 523 191.267578125 523 191.267578125 484 c 4,69,70
 191.267578125 470 191.267578125 470 197.8984375 452 c 132,-1,71
 204.528320312 434 204.528320312 434 218.450195312 417.5 c 132,-1,72
 232.374023438 401 232.374023438 401 252.92578125 390.5 c 132,-1,73
 273.479492188 380 273.479492188 380 298.674804688 380 c 4,58,59
101.099609375 480 m 4,74,75
 101.099609375 489 101.099609375 489 91.818359375 489 c 4,76,77
 85.1884765625 489 85.1884765625 489 83.19921875 486 c 132,-1,78
 81.2099609375 483 81.2099609375 483 81.2099609375 480 c 4,79,80
 81.2099609375 478 81.2099609375 478 82.5361328125 476 c 4,81,82
 85.1884765625 472 85.1884765625 472 90.4912109375 472 c 4,83,84
 93.14453125 472 93.14453125 472 97.12109375 474 c 132,-1,85
 101.099609375 476 101.099609375 476 101.099609375 480 c 4,74,75
292.044921875 75 m 4,86,87
 357.017578125 75 357.017578125 75 380.885742188 100.5 c 132,-1,88
 404.75390625 126 404.75390625 126 404.75390625 173 c 4,89,90
 404.75390625 192 404.75390625 192 394.145507812 213 c 132,-1,91
 383.538085938 234 383.538085938 234 368.2890625 251.5 c 132,-1,92
 353.040039062 269 353.040039062 269 335.138671875 280.5 c 132,-1,93
 317.23828125 292 317.23828125 292 302.651367188 292 c 4,94,95
 282.76171875 292 282.76171875 292 262.208984375 280 c 132,-1,96
 241.655273438 268 241.655273438 268 225.080078125 250 c 132,-1,97
 208.505859375 232 208.505859375 232 198.561523438 210 c 132,-1,98
 188.616210938 188 188.616210938 188 188.616210938 167 c 4,99,100
 188.616210938 151 188.616210938 151 195.909179688 134.5 c 132,-1,101
 203.201171875 118 203.201171875 118 216.461914062 104.5 c 132,-1,102
 229.721679688 91 229.721679688 91 248.94921875 83 c 132,-1,103
 268.17578125 75 268.17578125 75 292.044921875 75 c 4,86,87
106.404296875 227 m 260,104,105
 110.381835938 235 110.381835938 235 106.404296875 238.5 c 132,-1,106
 102.42578125 242 102.42578125 242 93.14453125 234 c 4,107,108
 89.166015625 231 89.166015625 231 82.5361328125 223.5 c 132,-1,109
 75.9052734375 216 75.9052734375 216 69.9384765625 207 c 132,-1,110
 63.9716796875 198 63.9716796875 198 59.330078125 188 c 132,-1,111
 54.6904296875 178 54.6904296875 178 54.6904296875 170 c 4,112,113
 53.3642578125 162 53.3642578125 162 58.0048828125 154 c 132,-1,114
 62.6455078125 146 62.6455078125 146 71.9287109375 146 c 4,115,116
 82.5361328125 146 82.5361328125 146 81.2099609375 159 c 132,-1,117
 79.8837890625 172 79.8837890625 172 82.5361328125 183 c 4,118,119
 86.513671875 198 86.513671875 198 94.4697265625 208.5 c 132,-1,120
 102.42578125 219 102.42578125 219 106.404296875 227 c 260,104,105
EndSplineSet
EndChar

StartChar: nine
Encoding: 57 57 24
Width: 600
VWidth: 1000
GlyphClass: 1
Flags: W
LayerCount: 2
Fore
SplineSet
297.348632812 623 m 0,0,1
 370 623 370 623 419.33984375 601.5 c 0,2,3
 468 580 468 580 497.57421875 546 c 128,-1,4
 527 512 527 512 539.342773438 470 c 0,5,6
 552 428 552 428 551.940429688 387 c 0,7,8
 552 336 552 336 536.69140625 284 c 0,9,10
 521 232 521 232 494.258789062 185 c 0,11,12
 467 138 467 138 429.94921875 99 c 128,-1,13
 393 60 393 60 349.061523438 34 c 0,14,15
 313 13 313 13 275.469726562 2.5 c 128,-1,16
 238 -8 238 -8 208.505859375 -8 c 0,17,18
 185 -8 185 -8 168 -0.5 c 0,19,20
 152 7 152 7 151.48828125 30 c 4,21,22
 151 45 151 45 162.095703125 60.5 c 132,-1,23
 173 76 173 76 208.505859375 85 c 4,24,25
 241.963867188 85.26171875 241.963867188 85.26171875 270.165039062 100.5 c 0,26,27
 297 115 297 115 318.563476562 135 c 128,-1,28
 340 155 340 155 355.029296875 178.5 c 0,29,30
 358 183 358 183 382.211914062 227 c 0,31,32
 389 239 389 239 394.145507812 257.5 c 0,33,34
 399 276 399 276 399.450195312 287 c 0,35,36
 399 297 399 297 394.145507812 297 c 0,37,38
 390 297 390 297 381.549804688 289 c 128,-1,39
 373 281 373 281 355.69140625 272 c 0,40,41
 338 263 338 263 311.93359375 255 c 0,42,43
 285 247 285 247 245.633789062 247 c 0,44,45
 153 247 153 247 100.436523438 295 c 128,-1,46
 48 343 48 343 48.0595703125 425 c 0,47,48
 48 463 48 463 63.9716796875 499 c 128,-1,49
 80 535 80 535 111.708007812 562.5 c 0,50,51
 144 590 144 590 189.94140625 606.5 c 128,-1,52
 236 623 236 623 297.348632812 623 c 0,0,1
303.978515625 535 m 0,53,54
 248.286132812 535 248.286132812 535 214.473632812 508 c 128,-1,55
 180.66015625 481 180.66015625 481 180.66015625 432 c 0,56,57
 180.66015625 390 180.66015625 390 205.19140625 364.5 c 128,-1,58
 229.721679688 339 229.721679688 339 273.479492188 339 c 0,59,60
 300 339 300 339 324.530273438 347 c 128,-1,61
 349.061523438 355 349.061523438 355 367.625976562 368 c 128,-1,62
 386.190429688 381 386.190429688 381 398.124023438 398.5 c 128,-1,63
 410.05859375 416 410.05859375 416 410.05859375 434 c 0,64,65
 410.05859375 455 410.05859375 455 405.416992188 473 c 128,-1,66
 400.775390625 491 400.775390625 491 388.841796875 505 c 128,-1,67
 376.908203125 519 376.908203125 519 356.354492188 527 c 128,-1,68
 335.80078125 535 335.80078125 535 303.978515625 535 c 0,53,54
114.359375 486 m 0,69,70
 117.01171875 496 117.01171875 496 120.326171875 503.5 c 128,-1,71
 123.641601562 511 123.641601562 511 123.641601562 517 c 0,72,73
 123.641601562 524 123.641601562 524 114.359375 524 c 0,74,75
 110.381835938 524 110.381835938 524 103.088867188 511 c 128,-1,76
 95.7958984375 498 95.7958984375 498 89.8291015625 480 c 128,-1,77
 83.861328125 462 83.861328125 462 79.8837890625 444 c 128,-1,78
 75.9052734375 426 75.9052734375 426 78.55859375 415 c 0,79,80
 82.5361328125 403 82.5361328125 403 89.166015625 403 c 256,81,82
 95.7958984375 403 95.7958984375 403 99.111328125 410.5 c 128,-1,83
 102.42578125 418 102.42578125 418 105.078125 426 c 0,84,85
 110.381835938 443 110.381835938 443 110.381835938 457 c 128,-1,86
 110.381835938 471 110.381835938 471 114.359375 486 c 0,69,70
109.055664062 380 m 0,87,88
 109.055664062 385 109.055664062 385 107.06640625 388.5 c 128,-1,89
 105.078125 392 105.078125 392 101.099609375 392 c 0,90,91
 94.4697265625 392 94.4697265625 392 89.166015625 389 c 128,-1,92
 83.861328125 386 83.861328125 386 83.861328125 376 c 0,93,94
 83.861328125 373 83.861328125 373 87.17578125 370 c 128,-1,95
 90.4912109375 367 90.4912109375 367 95.7958984375 367 c 0,96,97
 103.750976562 367 103.750976562 367 106.404296875 372.5 c 128,-1,98
 109.055664062 378 109.055664062 378 109.055664062 380 c 0,87,88
204.528320312 67 m 6,99,100
 205 70 205 70 198.561523438 69 c 4,101,102
 193 68 193 68 185.963867188 64 c 132,-1,103
 179 60 179 60 174.030273438 53 c 4,104,105
 168 44 168 44 168.725585938 37 c 4,106,107
 169 35 169 35 170.71484375 29 c 4,108,109
 173 23 173 23 178.008789062 23 c 4,110,111
 182 23 182 23 186.625976562 29.5 c 4,112,113
 191 36 191 36 195.24609375 44.5 c 4,114,115
 199 53 199 53 201.875976562 60 c 4,116,-1
 204.528320312 67 l 6,99,100
EndSplineSet
EndChar

StartChar: colon
Encoding: 58 58 25
Width: 600
GlyphClass: 1
Flags: W
LayerCount: 2
Fore
SplineSet
211.099609375 -32.7998046875 m 0,0,1
 211.099609375 20.400390625 211.099609375 20.400390625 237 42.099609375 c 128,-1,2
 262.900390625 63.7998046875 262.900390625 63.7998046875 297.900390625 63.7998046875 c 0,3,4
 335.700195312 63.7998046875 335.700195312 63.7998046875 362.299804688 42.099609375 c 128,-1,5
 388.900390625 20.400390625 388.900390625 20.400390625 388.900390625 -32.7998046875 c 0,6,7
 388.900390625 -84.599609375 388.900390625 -84.599609375 362.299804688 -107 c 128,-1,8
 335.700195312 -129.400390625 335.700195312 -129.400390625 297.900390625 -129.400390625 c 0,9,10
 261.5 -129.400390625 261.5 -129.400390625 236.299804688 -107 c 128,-1,11
 211.099609375 -84.599609375 211.099609375 -84.599609375 211.099609375 -32.7998046875 c 0,0,1
211.099609375 581.799804688 m 0,12,13
 211.099609375 636.400390625 211.099609375 636.400390625 237 657.400390625 c 128,-1,14
 262.900390625 678.400390625 262.900390625 678.400390625 297.900390625 678.400390625 c 0,15,16
 335.700195312 678.400390625 335.700195312 678.400390625 362.299804688 656.700195312 c 128,-1,17
 388.900390625 635 388.900390625 635 388.900390625 581.799804688 c 0,18,19
 388.900390625 530 388.900390625 530 362.299804688 506.900390625 c 128,-1,20
 335.700195312 483.799804688 335.700195312 483.799804688 297.900390625 483.799804688 c 0,21,22
 261.5 483.799804688 261.5 483.799804688 236.299804688 506.900390625 c 128,-1,23
 211.099609375 530 211.099609375 530 211.099609375 581.799804688 c 0,12,13
EndSplineSet
EndChar

StartChar: semicolon
Encoding: 59 59 26
Width: 600
GlyphClass: 1
Flags: W
LayerCount: 2
Fore
SplineSet
400.099609375 65 m 1,0,1
 387.5 14.599609375 387.5 14.599609375 367.900390625 -44.2001953125 c 128,-1,2
 348.299804688 -103 348.299804688 -103 324.5 -161.099609375 c 128,-1,3
 300.700195312 -219.200195312 300.700195312 -219.200195312 276.900390625 -271 c 1,4,-1
 183.099609375 -271 l 1,5,6
 192.900390625 -230.400390625 192.900390625 -230.400390625 203.400390625 -184.900390625 c 128,-1,7
 213.900390625 -139.400390625 213.900390625 -139.400390625 224.400390625 -92.5 c 128,-1,8
 234.900390625 -45.599609375 234.900390625 -45.599609375 242.599609375 -1.5 c 128,-1,9
 250.299804688 42.599609375 250.299804688 42.599609375 255.900390625 80.400390625 c 1,10,-1
 390.299804688 80.400390625 l 1,11,-1
 400.099609375 65 l 1,0,1
239.099609375 605.400390625 m 0,12,13
 239.099609375 660 239.099609375 660 265 681 c 128,-1,14
 290.900390625 702 290.900390625 702 325.900390625 702 c 0,15,16
 363.700195312 702 363.700195312 702 390.299804688 680.299804688 c 128,-1,17
 416.900390625 658.599609375 416.900390625 658.599609375 416.900390625 605.400390625 c 0,18,19
 416.900390625 553.599609375 416.900390625 553.599609375 390.299804688 530.5 c 128,-1,20
 363.700195312 507.400390625 363.700195312 507.400390625 325.900390625 507.400390625 c 0,21,22
 289.5 507.400390625 289.5 507.400390625 264.299804688 530.5 c 128,-1,23
 239.099609375 553.599609375 239.099609375 553.599609375 239.099609375 605.400390625 c 0,12,13
EndSplineSet
EndChar

StartChar: less
Encoding: 60 60 27
Width: 600
GlyphClass: 1
Flags: W
LayerCount: 2
Fore
SplineSet
565.650390625 93.7998046875 m 5,0,-1
 34.349609375 327 l 5,1,-1
 34.349609375 383.099609375 l 5,2,-1
 565.650390625 648.200195312 l 5,3,-1
 565.650390625 560.200195312 l 5,4,-1
 139.950195312 358.900390625 l 5,5,-1
 565.650390625 181.799804688 l 5,6,-1
 565.650390625 93.7998046875 l 5,0,-1
EndSplineSet
EndChar

StartChar: equal
Encoding: 61 61 28
Width: 600
GlyphClass: 1
Flags: W
LayerCount: 2
Fore
SplineSet
42.0498046875 432.549804688 m 5,0,-1
 42.0498046875 512.849609375 l 5,1,-1
 557.950195312 512.849609375 l 5,2,-1
 557.950195312 432.549804688 l 5,3,-1
 42.0498046875 432.549804688 l 5,0,-1
42.0498046875 208.150390625 m 5,4,-1
 42.0498046875 288.450195312 l 5,5,-1
 557.950195312 288.450195312 l 5,6,-1
 557.950195312 208.150390625 l 5,7,-1
 42.0498046875 208.150390625 l 5,4,-1
EndSplineSet
EndChar

StartChar: greater
Encoding: 62 62 29
Width: 600
GlyphClass: 1
Flags: W
LayerCount: 2
Fore
SplineSet
34.349609375 181.799804688 m 5,0,-1
 458.950195312 357.799804688 l 5,1,-1
 34.349609375 560.200195312 l 5,2,-1
 34.349609375 648.200195312 l 5,3,-1
 565.650390625 383.099609375 l 5,4,-1
 565.650390625 327 l 5,5,-1
 34.349609375 93.7998046875 l 5,6,-1
 34.349609375 181.799804688 l 5,0,-1
EndSplineSet
EndChar

StartChar: question
Encoding: 63 63 30
Width: 600
GlyphClass: 1
Flags: W
LayerCount: 2
Fore
SplineSet
206.400390625 204 m 6,0,1
 206.400390625 243 206.400390625 243 216.799804688 271 c 132,-1,2
 227.200195312 299 227.200195312 299 251.900390625 324.5 c 132,-1,3
 276.599609375 350 276.599609375 350 318.200195312 378 c 4,4,5
 370.200195312 412 370.200195312 412 398.799804688 434.5 c 132,-1,6
 427.400390625 457 427.400390625 457 439.75 478.5 c 132,-1,7
 452.099609375 500 452.099609375 500 452.099609375 530 c 4,8,9
 452.099609375 579 452.099609375 579 410.5 606 c 132,-1,10
 368.900390625 633 368.900390625 633 290.900390625 633 c 4,11,12
 225.900390625 633 225.900390625 633 175.200195312 620 c 132,-1,13
 124.5 607 124.5 607 77.7001953125 590 c 5,14,-1
 36.099609375 662 l 5,15,16
 89.400390625 684 89.400390625 684 154.400390625 698 c 132,-1,17
 219.400390625 712 219.400390625 712 298.700195312 712 c 4,18,19
 424.799804688 712 424.799804688 712 494.349609375 663.5 c 132,-1,20
 563.900390625 615 563.900390625 615 563.900390625 532 c 4,21,22
 563.900390625 486 563.900390625 486 544.400390625 454 c 132,-1,23
 524.900390625 422 524.900390625 422 489.799804688 395 c 132,-1,24
 454.700195312 368 454.700195312 368 406.599609375 337 c 4,25,26
 362.400390625 308 362.400390625 308 339 286.5 c 132,-1,27
 315.599609375 265 315.599609375 265 307.799804688 244 c 132,-1,28
 300 223 300 223 300 194 c 6,29,-1
 300 176 l 5,30,-1
 206.400390625 176 l 5,31,-1
 206.400390625 204 l 6,0,1
205 26 m 0,32,33
 205 64 205 64 223 79 c 128,-1,34
 241 94 241 94 268 94 c 0,35,36
 294 94 294 94 312.5 78.5 c 128,-1,37
 331 63 331 63 331 26 c 128,-1,38
 331 -11 331 -11 312.5 -27.5 c 128,-1,39
 294 -44 294 -44 268 -44 c 0,40,41
 240 -44 240 -44 222.5 -27.5 c 128,-1,42
 205 -11 205 -11 205 26 c 0,32,33
EndSplineSet
EndChar

StartChar: bracketleft
Encoding: 91 91 31
Width: 600
GlyphClass: 1
Flags: W
LayerCount: 2
Fore
SplineSet
489.110351562 -82 m 0,0,1
 513.015625 -82 513.015625 -82 530.7109375 -73.5 c 0,2,3
 549.015625 -65 549.015625 -65 548.310546875 -56 c 0,4,5
 549.015625 -10 549.015625 -10 525.91015625 -7 c 0,6,7
 483.015625 -1 483.015625 -1 471.510742188 0 c 0,8,9
 440.015625 2 440.015625 2 409.110351562 5 c 0,10,11
 379.015625 8 379.015625 8 375.510742188 8.5 c 0,12,13
 154.015625 20 154.015625 20 153.7109375 20.5 c 4,14,15
 152.015625 38 152.015625 38 151.310546875 39 c 6,16,-1
 151.310546875 589 l 6,17,18
 151.310546875 589 151.310546875 589 380.310546875 593 c 0,19,20
 382.015625 591 382.015625 591 418.7109375 591 c 256,21,22
 427.015625 591 427.015625 591 456.310546875 590 c 0,23,24
 477.015625 589 477.015625 589 493.91015625 588 c 0,25,26
 514.015625 588 514.015625 588 532.310546875 595.5 c 0,27,28
 546.015625 601 546.015625 601 548.310546875 648 c 0,29,30
 549.015625 660 549.015625 660 521.110351562 669 c 0,31,32
 494.015625 678 494.015625 678 445.91015625 678 c 0,33,34
 331.015625 678 331.015625 678 216.310546875 678 c 0,35,36
 177.015625 678 177.015625 678 145.110351562 676.5 c 128,-1,37
 113.015625 675 113.015625 675 92.310546875 672 c 0,38,39
 72.015625 669 72.015625 669 66.7109375 663 c 0,40,41
 62.015625 658 62.015625 658 61.1103515625 641 c 128,-1,42
 60.015625 624 60.015625 624 60.310546875 584.5 c 0,43,44
 60.015625 545 60.015625 545 59.5107421875 477.5 c 0,45,46
 59.015625 359 59.015625 359 57.1103515625 302 c 0,47,48
 54.015625 198 54.015625 198 52.310546875 130.5 c 0,49,50
 51.015625 63 51.015625 63 52.310546875 22 c 0,51,52
 53.015625 -7 53.015625 -7 58.7109375 -25.5 c 0,53,54
 65.015625 -44 65.015625 -44 74.7109375 -55.5 c 0,55,56
 85.015625 -67 85.015625 -67 97.91015625 -72 c 0,57,58
 112.015625 -77 112.015625 -77 129.110351562 -78 c 0,59,60
 158.015625 -80 158.015625 -80 193.110351562 -81 c 0,61,62
 229.015625 -82 229.015625 -82 407.510742188 -82 c 0,63,64
 440.015625 -82 440.015625 -82 462.7109375 -82 c 0,65,66
 486.015625 -82 486.015625 -82 489.110351562 -82 c 0,0,1
497.110351562 659 m 256,67,68
 503.510742188 664 503.510742188 664 514.7109375 660 c 128,-1,69
 525.91015625 656 525.91015625 656 525.91015625 648 c 0,70,71
 525.91015625 638 525.91015625 638 519.510742188 638 c 256,72,73
 513.110351562 638 513.110351562 638 513.110351562 645 c 0,74,75
 511.510742188 649 511.510742188 649 501.110351562 651.5 c 128,-1,76
 490.7109375 654 490.7109375 654 497.110351562 659 c 256,67,68
EndSplineSet
EndChar

StartChar: backslash
Encoding: 92 92 32
Width: 600
GlyphClass: 1
Flags: W
LayerCount: 2
Fore
SplineSet
137.599609375 682 m 4,0,1
 147.400390625 682 147.400390625 682 173.299804688 645.5 c 132,-1,2
 199.200195312 609 199.200195312 609 232.799804688 554 c 132,-1,3
 266.400390625 499 266.400390625 499 303.5 433 c 132,-1,4
 340.599609375 367 340.599609375 367 373.5 307 c 132,-1,5
 406.400390625 247 406.400390625 247 430.200195312 202.5 c 132,-1,6
 454 158 454 158 462.400390625 145 c 132,-1,7
 470.799804688 132 470.799804688 132 487.599609375 104 c 132,-1,8
 504.400390625 76 504.400390625 76 521.200195312 45.5 c 132,-1,9
 538 15 538 15 549.900390625 -11 c 132,-1,10
 561.799804688 -37 561.799804688 -37 561.799804688 -45 c 4,11,12
 561.799804688 -52 561.799804688 -52 554.799804688 -58.5 c 132,-1,13
 547.799804688 -65 547.799804688 -65 536.599609375 -69.5 c 132,-1,14
 525.400390625 -74 525.400390625 -74 513.5 -76.5 c 132,-1,15
 501.599609375 -79 501.599609375 -79 491.799804688 -79 c 4,16,17
 472.200195312 -79 472.200195312 -79 455.400390625 -69 c 132,-1,18
 438.599609375 -59 438.599609375 -59 428.799804688 -48 c 4,19,20
 420.400390625 -38 420.400390625 -38 398.700195312 -3 c 132,-1,21
 377 32 377 32 348.299804688 81.5 c 132,-1,22
 319.599609375 131 319.599609375 131 285.299804688 191.5 c 132,-1,23
 251 252 251 252 216.700195312 313.5 c 132,-1,24
 182.400390625 375 182.400390625 375 150.200195312 433.5 c 132,-1,25
 118 492 118 492 93.5 538 c 132,-1,26
 69 584 69 584 53.599609375 613 c 132,-1,27
 38.2001953125 642 38.2001953125 642 38.2001953125 645 c 4,28,29
 38.2001953125 654 38.2001953125 654 51.5 661.5 c 132,-1,30
 64.7998046875 669 64.7998046875 669 81.599609375 673.5 c 132,-1,31
 98.400390625 678 98.400390625 678 115.200195312 680 c 132,-1,32
 132 682 132 682 137.599609375 682 c 4,0,1
101.200195312 641 m 4,33,34
 98.400390625 646 98.400390625 646 87.900390625 644 c 132,-1,35
 77.400390625 642 77.400390625 642 77.400390625 635 c 4,36,37
 77.400390625 629 77.400390625 629 84.400390625 614 c 132,-1,38
 91.400390625 599 91.400390625 599 101.200195312 583 c 132,-1,39
 111 567 111 567 120.099609375 553.5 c 132,-1,40
 129.200195312 540 129.200195312 540 132 536 c 4,41,42
 136.200195312 531 136.200195312 531 143.200195312 530.5 c 132,-1,43
 150.200195312 530 150.200195312 530 153 531 c 4,44,45
 160 532 160 532 155.099609375 545 c 132,-1,46
 150.200195312 558 150.200195312 558 140.400390625 575 c 132,-1,47
 130.599609375 592 130.599609375 592 118.700195312 610.5 c 132,-1,48
 106.799804688 629 106.799804688 629 101.200195312 641 c 4,33,34
EndSplineSet
EndChar

StartChar: bracketright
Encoding: 93 93 33
Width: 600
GlyphClass: 1
Flags: W
LayerCount: 2
Fore
SplineSet
110.889648438 -82 m 4,0,1
 86.984375 -82 86.984375 -82 69.2890625 -73.5 c 4,2,3
 50.984375 -65 50.984375 -65 51.689453125 -56 c 4,4,5
 50.984375 -10 50.984375 -10 74.08984375 -7 c 4,6,7
 116.984375 -1 116.984375 -1 128.489257812 0 c 4,8,9
 159.984375 2 159.984375 2 190.889648438 5 c 4,10,11
 220.984375 8 220.984375 8 224.489257812 8.5 c 4,12,13
 445.984375 20 445.984375 20 446.2890625 20.5 c 4,14,15
 447.984375 38 447.984375 38 448.689453125 39 c 6,16,-1
 448.689453125 589 l 6,17,18
 448.689453125 589 448.689453125 589 219.689453125 593 c 4,19,20
 217.984375 591 217.984375 591 181.2890625 591 c 260,21,22
 172.984375 591 172.984375 591 143.689453125 590 c 4,23,24
 122.984375 589 122.984375 589 106.08984375 588 c 4,25,26
 85.984375 588 85.984375 588 67.689453125 595.5 c 4,27,28
 53.984375 601 53.984375 601 51.689453125 648 c 4,29,30
 50.984375 660 50.984375 660 78.8896484375 669 c 4,31,32
 105.984375 678 105.984375 678 154.08984375 678 c 4,33,34
 268.984375 678 268.984375 678 383.689453125 678 c 4,35,36
 422.984375 678 422.984375 678 454.889648438 676.5 c 132,-1,37
 486.984375 675 486.984375 675 507.689453125 672 c 4,38,39
 527.984375 669 527.984375 669 533.2890625 663 c 4,40,41
 537.984375 658 537.984375 658 538.889648438 641 c 132,-1,42
 539.984375 624 539.984375 624 539.689453125 584.5 c 4,43,44
 539.984375 545 539.984375 545 540.489257812 477.5 c 4,45,46
 540.984375 359 540.984375 359 542.889648438 302 c 4,47,48
 545.984375 198 545.984375 198 547.689453125 130.5 c 4,49,50
 548.984375 63 548.984375 63 547.689453125 22 c 4,51,52
 546.984375 -7 546.984375 -7 541.2890625 -25.5 c 4,53,54
 534.984375 -44 534.984375 -44 525.2890625 -55.5 c 4,55,56
 514.984375 -67 514.984375 -67 502.08984375 -72 c 4,57,58
 487.984375 -77 487.984375 -77 470.889648438 -78 c 4,59,60
 441.984375 -80 441.984375 -80 406.889648438 -81 c 4,61,62
 370.984375 -82 370.984375 -82 192.489257812 -82 c 4,63,64
 159.984375 -82 159.984375 -82 137.2890625 -82 c 4,65,66
 113.984375 -82 113.984375 -82 110.889648438 -82 c 4,0,1
102.889648438 659 m 260,67,68
 96.4892578125 664 96.4892578125 664 85.2890625 660 c 132,-1,69
 74.08984375 656 74.08984375 656 74.08984375 648 c 4,70,71
 74.08984375 638 74.08984375 638 80.4892578125 638 c 260,72,73
 86.8896484375 638 86.8896484375 638 86.8896484375 645 c 4,74,75
 88.4892578125 649 88.4892578125 649 98.8896484375 651.5 c 132,-1,76
 109.2890625 654 109.2890625 654 102.889648438 659 c 260,67,68
EndSplineSet
EndChar

StartChar: asciicircum
Encoding: 94 94 34
Width: 600
GlyphClass: 1
Flags: W
LayerCount: 2
Fore
SplineSet
10.4404296875 273 m 5,0,-1
 257.8203125 736 l 5,1,-1
 315.959960938 736 l 5,2,-1
 589.559570312 273 l 5,3,-1
 498.360351562 273 l 5,4,-1
 288.599609375 641 l 5,5,-1
 101.639648438 273 l 5,6,-1
 10.4404296875 273 l 5,0,-1
EndSplineSet
EndChar

StartChar: underscore
Encoding: 95 95 35
Width: 600
GlyphClass: 1
Flags: W
LayerCount: 2
Fore
SplineSet
575.400390625 -161.299804688 m 5,0,-1
 24.599609375 -161.299804688 l 5,1,-1
 24.599609375 -88.7001953125 l 5,2,-1
 575.400390625 -88.7001953125 l 5,3,-1
 575.400390625 -161.299804688 l 5,0,-1
EndSplineSet
EndChar

StartChar: braceleft
Encoding: 123 123 36
Width: 600
GlyphClass: 1
Flags: W
LayerCount: 2
Fore
SplineSet
35 379 m 1,0,1
 76 379 76 379 122.5 388 c 128,-1,2
 169 397 169 397 183.5 417.5 c 128,-1,3
 198 438 198 438 198 471 c 2,4,-1
 198 708 l 2,5,6
 198 759 198 759 220.5 790 c 128,-1,7
 243 821 243 821 379 836 c 128,-1,8
 515 851 515 851 565 852 c 5,9,-1
 565 778 l 5,10,11
 537 778 537 778 420 771.5 c 128,-1,12
 303 765 303 765 292 749 c 128,-1,13
 281 733 281 733 281 701 c 2,14,-1
 281 466 l 2,15,16
 281 415 281 415 253.5 384.5 c 128,-1,17
 226 354 226 354 172 343 c 1,18,-1
 172 338 l 1,19,20
 225 328 225 328 253 298 c 128,-1,21
 281 268 281 268 281 216 c 2,22,-1
 281 -18 l 2,23,24
 281 -50 281 -50 292 -66.5 c 128,-1,25
 303 -83 303 -83 420 -89 c 128,-1,26
 537 -95 537 -95 565 -96 c 5,27,-1
 565 -170 l 5,28,29
 515 -169 515 -169 379 -154 c 128,-1,30
 243 -139 243 -139 220.5 -108 c 128,-1,31
 198 -77 198 -77 198 -26 c 2,32,-1
 198 211 l 2,33,34
 198 245 198 245 183.5 265 c 128,-1,35
 169 285 169 285 122.5 294 c 128,-1,36
 76 303 76 303 35 303 c 1,37,-1
 35 379 l 1,0,1
EndSplineSet
EndChar

StartChar: bar
Encoding: 124 124 37
Width: 600
GlyphClass: 1
Flags: W
LayerCount: 2
Fore
SplineSet
263.5 852 m 5,0,-1
 336.5 852 l 5,1,-1
 336.5 -170 l 5,2,-1
 263.5 -170 l 5,3,-1
 263.5 852 l 5,0,-1
EndSplineSet
EndChar

StartChar: asciitilde
Encoding: 126 126 39
Width: 600
GlyphClass: 1
Flags: W
LayerCount: 2
Fore
SplineSet
29.73046875 343 m 5,0,1
 60.150390625 371 60.150390625 371 95.8349609375 384 c 132,-1,2
 131.51953125 397 131.51953125 397 174.810546875 397 c 4,3,4
 197.040039062 397 197.040039062 397 216.344726562 394.5 c 132,-1,5
 235.650390625 392 235.650390625 392 259.635742188 385.5 c 132,-1,6
 283.620117188 379 283.620117188 379 319.889648438 366 c 4,7,8
 364.349609375 350 364.349609375 350 388.334960938 344 c 132,-1,9
 412.3203125 338 412.3203125 338 436.889648438 338 c 4,10,11
 470.8203125 338 470.8203125 338 506.504882812 355.5 c 132,-1,12
 542.189453125 373 542.189453125 373 570.26953125 398 c 5,13,-1
 570.26953125 317 l 5,14,15
 541.01953125 290 541.01953125 290 504.75 276.5 c 132,-1,16
 468.48046875 263 468.48046875 263 425.189453125 263 c 4,17,18
 402.959960938 263 402.959960938 263 383.655273438 265.5 c 132,-1,19
 364.349609375 268 364.349609375 268 340.950195312 275 c 132,-1,20
 317.549804688 282 317.549804688 282 280.110351562 295 c 4,21,22
 236.819335938 311 236.819335938 311 213.419921875 317 c 132,-1,23
 190.01953125 323 190.01953125 323 163.110351562 323 c 4,24,25
 130.349609375 323 130.349609375 323 94.6650390625 305.5 c 132,-1,26
 58.98046875 288 58.98046875 288 29.73046875 262 c 5,27,-1
 29.73046875 343 l 5,0,1
EndSplineSet
EndChar

StartChar: A
Encoding: 65 65 40
Width: 600
VWidth: 1000
GlyphClass: 2
Flags: W
LayerCount: 2
Fore
SplineSet
558.5 166 m 1,0,-1
 41.5 387 l 1,1,-1
 41.5 437 l 1,2,-1
 558.5 658 l 1,3,-1
 558.5 580 l 1,4,-1
 155.900390625 412 l 1,5,-1
 558.5 244 l 1,6,-1
 558.5 166 l 1,0,-1
41.5 47 m 1,7,-1
 41.5 118 l 1,8,-1
 558.5 118 l 1,9,-1
 558.5 47 l 1,10,-1
 41.5 47 l 1,7,-1
EndSplineSet
EndChar

StartChar: B
Encoding: 66 66 41
Width: 600
VWidth: 1000
GlyphClass: 2
Flags: W
LayerCount: 2
Fore
SplineSet
136.642578125 632 m 4,0,1
 191.639648438 632 191.639648438 632 223.674804688 610 c 4,2,3
 252.322265625 590.43359375 252.322265625 590.43359375 269.555664062 549.5 c 4,4,5
 283.272460938 517.892578125 283.272460938 517.892578125 283.272460938 463 c 6,6,-1
 283.272460938 321 l 5,7,-1
 473.418945312 321 l 5,8,-1
 473.418945312 551 l 5,9,-1
 349.493164062 551 l 5,10,-1
 349.493164062 622 l 5,11,-1
 587.283203125 622 l 5,12,-1
 587.283203125 551 l 5,13,-1
 550.044921875 551 l 5,14,-1
 550.044921875 0 l 5,15,-1
 473.418945312 0 l 5,16,-1
 473.418945312 250 l 5,17,-1
 283.272460938 250 l 5,18,-1
 283.272460938 213 l 6,19,20
 283.66015625 180 283.66015625 180 269.555664062 165.5 c 4,21,22
 256.139648438 151 256.139648438 151 236.918945312 151 c 4,23,24
 219.16015625 151 219.16015625 151 199.079101562 163.5 c 4,25,26
 179.599609375 176 179.599609375 176 162.184570312 195.5 c 4,27,28
 145.200195312 215 145.200195312 215 134.750976562 237 c 4,29,30
 124.559570312 259 124.559570312 259 124.344726562 278 c 4,31,32
 124.559570312 290 124.559570312 290 130.020507812 300 c 4,33,34
 135.740234375 310 135.740234375 310 147.995117188 315.5 c 4,35,36
 160.6796875 321 160.6796875 321 181.10546875 321 c 6,37,-1
 208.5390625 321 l 5,38,-1
 208.5390625 453 l 6,39,40
 208.825195312 509.02734375 208.825195312 509.02734375 192.9296875 538 c 132,-1,41
 177.01953125 567 177.01953125 567 139.48046875 567 c 4,42,43
 113.379882812 567 113.379882812 567 98.802734375 552.5 c 4,44,45
 85 538 85 538 84.61328125 515 c 4,46,47
 85 487 85 487 104.952148438 471.5 c 4,48,49
 125.419921875 456 125.419921875 456 166.915039062 451 c 5,50,-1
 159.34765625 386 l 5,51,52
 96.1796875 391 96.1796875 391 54.3408203125 424.5 c 4,53,54
 12.759765625 458 12.759765625 458 12.716796875 517 c 4,55,56
 12.759765625 574 12.759765625 574 47.7197265625 603 c 4,57,58
 82.419921875 632 82.419921875 632 136.642578125 632 c 4,0,1
EndSplineSet
EndChar

StartChar: D
Encoding: 68 68 43
Width: 600
VWidth: 1000
GlyphClass: 2
Flags: W
LayerCount: 2
Fore
SplineSet
327.224609375 0 m 4,0,1
 234.0546875 0 234.0546875 0 162.665039062 28 c 132,-1,2
 91.275390625 56 91.275390625 56 51.345703125 108 c 132,-1,3
 11.4150390625 160 11.4150390625 160 11.4150390625 232 c 4,4,5
 11.4150390625 338 11.4150390625 338 94.9052734375 394.5 c 132,-1,6
 178.395507812 451 178.395507812 451 347.794921875 451 c 6,7,-1
 409.504882812 451 l 5,8,-1
 391.354492188 420 l 5,9,-1
 391.354492188 551 l 5,10,-1
 87.6455078125 551 l 5,11,-1
 87.6455078125 622 l 5,12,-1
 582.534179688 622 l 5,13,-1
 582.534179688 551 l 5,14,-1
 488.154296875 551 l 5,15,-1
 488.154296875 381 l 5,16,-1
 367.155273438 381 l 6,17,18
 246.154296875 381 246.154296875 381 177.184570312 346.5 c 132,-1,19
 108.215820312 312 108.215820312 312 108.215820312 228 c 4,20,21
 108.215820312 163 108.215820312 163 154.799804688 121.5 c 4,22,23
 203.8046875 78 203.8046875 78 289.715820312 69 c 4,24,25
 299.395507812 68 299.395507812 68 316.334960938 68.5 c 132,-1,26
 333.275390625 69 333.275390625 69 342.955078125 69 c 4,27,28
 411.924804688 69 411.924804688 69 454.879882812 92 c 132,-1,29
 497.834960938 115 497.834960938 115 497.834960938 156 c 4,30,31
 497.834960938 185 497.834960938 185 477.870117188 202 c 132,-1,32
 457.905273438 219 457.905273438 219 419.184570312 219 c 4,33,34
 378.044921875 219 378.044921875 219 355.0546875 200 c 132,-1,35
 332.065429688 181 332.065429688 181 332.065429688 146 c 4,36,37
 332.065429688 118 332.065429688 118 345.375 91.5 c 132,-1,38
 358.684570312 65 358.684570312 65 385.3046875 36 c 5,39,-1
 303.025390625 29 l 5,40,41
 273.984375 62 273.984375 62 259.465820312 93 c 132,-1,42
 244.9453125 124 244.9453125 124 244.9453125 157 c 4,43,44
 244.9453125 216 244.9453125 216 290.3203125 251 c 132,-1,45
 335.6953125 286 335.6953125 286 420.395507812 286 c 4,46,47
 478.474609375 286 478.474609375 286 515.379882812 268 c 132,-1,48
 552.284179688 250 552.284179688 250 570.434570312 220 c 132,-1,49
 588.584960938 190 588.584960938 190 588.584960938 155 c 4,50,51
 588.584960938 86 588.584960938 86 519.009765625 43 c 132,-1,52
 449.434570312 0 449.434570312 0 327.224609375 0 c 4,0,1
EndSplineSet
EndChar

StartChar: E
Encoding: 69 69 44
Width: 600
VWidth: 1000
GlyphClass: 2
Flags: W
LayerCount: 2
Fore
SplineSet
394.049804688 20 m 6,0,1
 210.900390625 20 210.900390625 20 113.549804688 94 c 4,2,3
 17.2998046875 168 17.2998046875 168 16.75 311 c 260,4,5
 17.2998046875 454 17.2998046875 454 112.450195312 528 c 132,-1,6
 207.599609375 602 207.599609375 602 394.049804688 602 c 6,7,-1
 583.25 602 l 5,8,-1
 583.25 531 l 5,9,-1
 380.849609375 531 l 6,10,11
 122.900390625 531 122.900390625 531 98.150390625 347 c 5,12,-1
 583.25 347 l 5,13,-1
 583.25 276 l 5,14,-1
 98.150390625 276 l 5,15,16
 109.700195312 185 109.700195312 185 181.75 138 c 4,17,18
 254.900390625 91 254.900390625 91 380.849609375 91 c 6,19,-1
 583.25 91 l 5,20,-1
 583.25 20 l 5,21,-1
 394.049804688 20 l 6,0,1
EndSplineSet
EndChar

StartChar: F
Encoding: 70 70 45
Width: 600
VWidth: 1000
GlyphClass: 2
Flags: W
LayerCount: 2
Fore
SplineSet
107.001953125 -13 m 0,0,1
 77.3017578125 -13 77.3017578125 -13 58.0517578125 -3.5 c 128,-1,2
 38.8017578125 6 38.8017578125 6 38.8017578125 36 c 2,3,-1
 38.8017578125 502 l 2,4,5
 38.8017578125 541 38.8017578125 541 70.1513671875 558.5 c 0,6,7
 101.731445312 576.12890625 101.731445312 576.12890625 151.001953125 576 c 2,8,-1
 532.702148438 575 l 2,9,10
 544.801757812 575 544.801757812 575 554.702148438 563.5 c 128,-1,11
 564.6015625 552 564.6015625 552 564.6015625 538 c 0,12,13
 564.6015625 531 564.6015625 531 562.952148438 520.5 c 128,-1,14
 561.301757812 510 561.301757812 510 558.001953125 500.5 c 128,-1,15
 554.702148438 491 554.702148438 491 549.751953125 484.5 c 128,-1,16
 544.787109375 477.98046875 544.787109375 477.98046875 538.202148438 478 c 2,17,-1
 192.801757812 479 l 2,18,19
 164.202148438 479 164.202148438 479 164.202148438 453 c 2,20,-1
 164.202148438 329 l 2,21,22
 164.202148438 319 164.202148438 319 171.3515625 314.5 c 0,23,24
 178.725585938 309.858398438 178.725585938 309.858398438 189.501953125 310 c 2,25,-1
 418.301757812 313 l 2,26,27
 427.1015625 313 427.1015625 313 433.702148438 308 c 128,-1,28
 440.301757812 303 440.301757812 303 445.801757812 294.5 c 128,-1,29
 451.301757812 286 451.301757812 286 454.051757812 277 c 128,-1,30
 456.801757812 268 456.801757812 268 456.801757812 260 c 0,31,32
 456.801757812 220.547851562 456.801757812 220.547851562 415.001953125 220 c 2,33,-1
 186.202148438 217 l 2,34,35
 177.401367188 217 177.401367188 217 170.801757812 211 c 128,-1,36
 164.202148438 205 164.202148438 205 164.202148438 197 c 2,37,-1
 164.202148438 35 l 2,38,39
 164.202148438 19 164.202148438 19 159.251953125 9.5 c 128,-1,40
 154.301757812 0 154.301757812 0 146.051757812 -5 c 128,-1,41
 137.801757812 -10 137.801757812 -10 127.3515625 -11.5 c 128,-1,42
 116.901367188 -13 116.901367188 -13 107.001953125 -13 c 0,0,1
93.8017578125 13 m 0,43,44
 92.7021484375 18 92.7021484375 18 83.3515625 29 c 128,-1,45
 74.001953125 40 74.001953125 40 71.8017578125 65 c 0,46,47
 69.6015625 78 69.6015625 78 65.751953125 81 c 128,-1,48
 61.9013671875 84 61.9013671875 84 59.7021484375 84 c 256,49,50
 57.501953125 84 57.501953125 84 55.8515625 78 c 128,-1,51
 54.2021484375 72 54.2021484375 72 56.4013671875 62 c 0,52,53
 56.4013671875 57 56.4013671875 57 58.6015625 47.5 c 128,-1,54
 60.8017578125 38 60.8017578125 38 64.6513671875 28.5 c 128,-1,55
 68.501953125 19 68.501953125 19 74.001953125 12 c 128,-1,56
 79.501953125 5 79.501953125 5 87.2021484375 6 c 0,57,58
 93.8017578125 6 93.8017578125 6 93.8017578125 13 c 0,43,44
EndSplineSet
EndChar

StartChar: G
Encoding: 71 71 46
Width: 600
VWidth: 1000
GlyphClass: 2
Flags: W
LayerCount: 2
Fore
SplineSet
509.861328125 663.379882812 m 0,0,1
 480.6015625 663.379882812 480.6015625 663.379882812 462.890625 681.254882812 c 0,2,3
 445.181640625 699.129882812 445.181640625 699.129882812 445.181640625 729.16015625 c 0,4,5
 445.181640625 756.330078125 445.181640625 756.330078125 460.581054688 779.924804688 c 0,6,7
 475.981445312 803.520507812 475.981445312 803.520507812 509.861328125 803.520507812 c 0,8,9
 545.28125 803.520507812 545.28125 803.520507812 563.760742188 781.35546875 c 0,10,11
 582.240234375 759.190429688 582.240234375 759.190429688 582.240234375 729.16015625 c 0,12,13
 582.240234375 696.270507812 582.240234375 696.270507812 561.451171875 679.825195312 c 0,14,15
 540.661132812 663.379882812 540.661132812 663.379882812 509.861328125 663.379882812 c 0,0,1
EndSplineSet
Refer: 75 103 N 1 0 0 1 -12.9055 0 2
EndChar

StartChar: H
Encoding: 72 72 47
Width: 600
VWidth: 1000
GlyphClass: 2
Flags: W
LayerCount: 2
Fore
SplineSet
303.190429688 497.200195312 m 260,0,1
 272.830078125 497.200195312 272.830078125 497.200195312 251.049804688 516.340820312 c 132,-1,2
 229.270507812 535.479492188 229.270507812 535.479492188 229.270507812 577.720703125 c 4,3,4
 229.270507812 622.599609375 229.270507812 622.599609375 251.049804688 639.759765625 c 132,-1,5
 272.830078125 656.919921875 272.830078125 656.919921875 303.190429688 656.919921875 c 260,6,7
 333.549804688 656.919921875 333.549804688 656.919921875 354.669921875 639.759765625 c 132,-1,8
 375.790039062 622.599609375 375.790039062 622.599609375 375.790039062 577.720703125 c 4,9,10
 375.790039062 535.479492188 375.790039062 535.479492188 354.669921875 516.340820312 c 132,-1,11
 333.549804688 497.200195312 333.549804688 497.200195312 303.190429688 497.200195312 c 260,0,1
18.2900390625 305.799804688 m 5,12,-1
 18.2900390625 399.520507812 l 5,13,-1
 581.709960938 399.520507812 l 5,14,-1
 581.709960938 305.799804688 l 5,15,-1
 18.2900390625 305.799804688 l 5,12,-1
303.190429688 47.080078125 m 260,16,17
 272.830078125 47.080078125 272.830078125 47.080078125 251.049804688 66.2197265625 c 132,-1,18
 229.270507812 85.359375 229.270507812 85.359375 229.270507812 127.599609375 c 4,19,20
 229.270507812 172.479492188 229.270507812 172.479492188 251.049804688 189.640625 c 132,-1,21
 272.830078125 206.799804688 272.830078125 206.799804688 303.190429688 206.799804688 c 260,22,23
 333.549804688 206.799804688 333.549804688 206.799804688 354.669921875 189.640625 c 132,-1,24
 375.790039062 172.479492188 375.790039062 172.479492188 375.790039062 127.599609375 c 4,25,26
 375.790039062 85.359375 375.790039062 85.359375 354.669921875 66.2197265625 c 132,-1,27
 333.549804688 47.080078125 333.549804688 47.080078125 303.190429688 47.080078125 c 260,16,17
EndSplineSet
EndChar

StartChar: I
Encoding: 73 73 48
Width: 600
VWidth: 1000
GlyphClass: 2
Flags: W
LayerCount: 2
Fore
SplineSet
23.2001953125 302.881835938 m 1,0,-1
 23.2001953125 387.118164062 l 1,1,-1
 466.400390625 387.118164062 l 1,2,3
 438.400390625 447.959960938 438.400390625 447.959960938 408 575.881835938 c 1,4,-1
 443.200195312 575.881835938 l 1,5,6
 507.200195312 430.799804688 507.200195312 430.799804688 576.799804688 362.159179688 c 1,7,-1
 576.799804688 327.840820312 l 1,8,9
 507.200195312 259.200195312 507.200195312 259.200195312 443.200195312 114.118164062 c 1,10,-1
 408 114.118164062 l 1,11,12
 438.400390625 242.040039062 438.400390625 242.040039062 466.400390625 302.881835938 c 1,13,-1
 23.2001953125 302.881835938 l 1,0,-1
EndSplineSet
EndChar

StartChar: J
Encoding: 74 74 49
Width: 600
VWidth: 1000
GlyphClass: 2
Flags: W
LayerCount: 2
Fore
SplineSet
446.575195312 210 m 5,0,-1
 464.501953125 181 l 5,1,2
 436.03125 155 436.03125 155 389.10546875 137.5 c 132,-1,3
 342.180664062 120 342.180664062 120 281.018554688 120 c 4,4,5
 214.584960938 120 214.584960938 120 162.387695312 142 c 132,-1,6
 110.190429688 164 110.190429688 164 72.7548828125 210.5 c 132,-1,7
 35.3203125 257 35.3203125 257 13.17578125 329 c 5,8,9
 101.75390625 341 101.75390625 341 150.788085938 362 c 132,-1,10
 199.822265625 383 199.822265625 383 219.331054688 412.5 c 132,-1,11
 238.838867188 442 238.838867188 442 238.838867188 479 c 4,12,13
 238.838867188 520 238.838867188 520 218.275390625 543.5 c 132,-1,14
 197.713867188 567 197.713867188 567 160.806640625 567 c 4,15,16
 131.280273438 567 131.280273438 567 114.407226562 552.5 c 132,-1,17
 97.5361328125 538 97.5361328125 538 97.5361328125 513 c 4,18,19
 97.5361328125 490 97.5361328125 490 115.989257812 474 c 132,-1,20
 134.444335938 458 134.444335938 458 166.079101562 447 c 5,21,-1
 130.225585938 391 l 5,22,23
 69.064453125 409 69.064453125 409 41.6474609375 441.5 c 132,-1,24
 14.23046875 474 14.23046875 474 14.23046875 515 c 4,25,26
 14.23046875 568 14.23046875 568 51.6650390625 600 c 132,-1,27
 89.099609375 632 89.099609375 632 158.697265625 632 c 4,28,29
 237.784179688 632 237.784179688 632 281.018554688 589.5 c 132,-1,30
 324.25390625 547 324.25390625 547 324.25390625 476 c 4,31,32
 324.25390625 397 324.25390625 397 267.836914062 345 c 132,-1,33
 211.421875 293 211.421875 293 94.3720703125 269 c 5,34,-1
 113.353515625 304 l 5,35,36
 140.770507812 243 140.770507812 243 179.259765625 217 c 132,-1,37
 217.749023438 191 217.749023438 191 275.74609375 191 c 4,38,39
 315.818359375 191 315.818359375 191 351.143554688 203 c 132,-1,40
 386.46875 215 386.46875 215 415.467773438 237 c 132,-1,41
 444.466796875 259 444.466796875 259 464.501953125 287 c 5,42,-1
 446.575195312 233 l 5,43,-1
 446.575195312 551 l 5,44,-1
 367.48828125 551 l 5,45,-1
 367.48828125 622 l 5,46,-1
 586.82421875 622 l 5,47,-1
 586.82421875 551 l 5,48,-1
 531.990234375 551 l 5,49,-1
 531.990234375 0 l 5,50,-1
 446.575195312 0 l 5,51,-1
 446.575195312 210 l 5,0,-1
EndSplineSet
EndChar

StartChar: K
Encoding: 75 75 50
Width: 600
VWidth: 1000
GlyphClass: 2
Flags: W
LayerCount: 2
Fore
SplineSet
189.34765625 551 m 1,0,-1
 197.8125 561 l 1,1,2
 206.27734375 542 206.27734375 542 210.509765625 516.5 c 128,-1,3
 214.7421875 491 214.7421875 491 214.7421875 458 c 0,4,5
 214.7421875 374 214.7421875 374 185.885742188 324 c 128,-1,6
 157.029296875 274 157.029296875 274 103.1640625 240 c 1,7,-1
 106.2421875 247 l 1,8,9
 133.174804688 193 133.174804688 193 168.956054688 155.5 c 128,-1,10
 204.73828125 118 204.73828125 118 249.369140625 98.5 c 128,-1,11
 294 79 294 79 346.326171875 79 c 0,12,13
 394.036132812 79 394.036132812 79 434.818359375 94 c 128,-1,14
 475.602539062 109 475.602539062 109 509.4609375 139 c 1,15,-1
 517.155273438 75 l 1,16,17
 485.60546875 40 485.60546875 40 443.66796875 23.5 c 128,-1,18
 401.73046875 7 401.73046875 7 345.556640625 7 c 0,19,20
 283.99609375 7 283.99609375 7 233.979492188 29 c 128,-1,21
 183.9609375 51 183.9609375 51 145.1015625 88.5 c 128,-1,22
 106.2421875 126 106.2421875 126 77.7705078125 172 c 0,23,24
 48.5302734375 220 48.5302734375 220 33.1396484375 262 c 128,-1,25
 17.7490234375 304 17.7490234375 304 17.7490234375 340 c 0,26,27
 17.7490234375 366 17.7490234375 366 28.9072265625 380 c 128,-1,28
 40.064453125 394 40.064453125 394 59.3017578125 394 c 0,29,30
 79.3095703125 394 79.3095703125 394 96.23828125 377.5 c 128,-1,31
 113.16796875 361 113.16796875 361 133.174804688 329 c 1,32,-1
 99.31640625 331 l 1,33,34
 120.862304688 339 120.862304688 339 132.020507812 359 c 128,-1,35
 143.177734375 379 143.177734375 379 147.794921875 405.5 c 128,-1,36
 152.412109375 432 152.412109375 432 152.412109375 458 c 0,37,38
 152.412109375 488 152.412109375 488 148.564453125 515.5 c 128,-1,39
 144.717773438 543 144.717773438 543 134.713867188 564 c 1,40,-1
 150.873046875 551 l 1,41,-1
 37.7568359375 551 l 1,42,-1
 37.7568359375 622 l 1,43,-1
 367.1015625 622 l 1,44,-1
 367.1015625 551 l 1,45,-1
 189.34765625 551 l 1,0,-1
560.395507812 551 m 5,46,-1
 560.395507812 0 l 5,47,-1
 484.06640625 0 l 1,48,-1
 484.06640625 551 l 1,49,-1
 340.169921875 551 l 1,50,-1
 340.169921875 622 l 1,51,-1
 584.250976562 622 l 5,52,-1
 584.250976562 551 l 5,53,-1
 560.395507812 551 l 5,46,-1
500.995117188 208 m 1,54,55
 480.98828125 189 480.98828125 189 455.979492188 178 c 128,-1,56
 430.970703125 167 430.970703125 167 397.11328125 167 c 0,57,58
 354.791015625 167 354.791015625 167 324.010742188 186 c 128,-1,59
 293.23046875 205 293.23046875 205 276.301757812 240 c 128,-1,60
 259.373046875 275 259.373046875 275 259.373046875 322 c 0,61,62
 259.373046875 393 259.373046875 393 295.5390625 433 c 128,-1,63
 331.705078125 473 331.705078125 473 396.342773438 473 c 0,64,65
 414.041992188 473 414.041992188 473 429.81640625 470.5 c 128,-1,66
 445.591796875 468 445.591796875 468 459.443359375 463 c 1,67,-1
 454.825195312 395 l 1,68,69
 441.744140625 400 441.744140625 400 428.27734375 402 c 128,-1,70
 414.811523438 404 414.811523438 404 400.959960938 404 c 0,71,72
 363.255859375 404 363.255859375 404 342.478515625 382.5 c 128,-1,73
 321.702148438 361 321.702148438 361 321.702148438 318 c 256,74,75
 321.702148438 275 321.702148438 275 343.248046875 255 c 128,-1,76
 364.794921875 235 364.794921875 235 396.342773438 235 c 0,77,78
 431.740234375 235 431.740234375 235 459.057617188 256 c 128,-1,79
 486.375 277 486.375 277 500.995117188 306 c 1,80,-1
 500.995117188 208 l 1,54,55
EndSplineSet
EndChar

StartChar: L
Encoding: 76 76 51
Width: 600
VWidth: 1000
GlyphClass: 2
Flags: W
LayerCount: 2
Fore
SplineSet
34.20703125 8 m 0,0,1
 34.259765625 15 34.259765625 15 36.2548828125 20.5 c 0,2,3
 38.458984375 26 38.458984375 26 42.396484375 33.5 c 0,4,5
 46.859375 41 46.859375 41 52.634765625 51 c 128,-1,6
 58.4091796875 61 58.4091796875 61 66.9677734375 76 c 256,7,8
 75.208984375 91 75.208984375 91 80.6171875 103.5 c 0,9,10
 88.859375 125 88.859375 125 89.4892578125 130 c 0,11,12
 93.0595703125 156 93.0595703125 156 94.94921875 160.5 c 0,13,14
 96.9970703125 163.602539062 96.9970703125 163.602539062 96.9970703125 198 c 2,15,-1
 96.9970703125 231 l 1,16,-1
 69.697265625 231 l 2,17,18
 43.708984375 231 43.708984375 231 30.794921875 240 c 0,19,20
 17.458984375 249 17.458984375 249 17.826171875 261 c 0,21,22
 17.458984375 272 17.458984375 272 26.69921875 286 c 0,23,24
 35.3095703125 300 35.3095703125 300 60.142578125 300 c 2,25,-1
 94.267578125 300 l 1,26,-1
 94.267578125 367 l 2,27,28
 94.109375 415 94.109375 415 104.504882812 455 c 0,29,30
 115.109375 497 115.109375 497 139.994140625 529.5 c 0,31,32
 165.509765625 562 165.509765625 562 208.244140625 581 c 0,33,34
 251.609375 600 251.609375 600 316.76171875 600 c 0,35,36
 348.208984375 600 348.208984375 600 377.504882812 592.5 c 0,37,38
 407.009765625 585 407.009765625 585 430.056640625 570.5 c 128,-1,39
 453.208984375 556 453.208984375 556 467.594726562 535 c 0,40,41
 481.559570312 514 481.559570312 514 481.926757812 488 c 0,42,43
 481.559570312 444 481.559570312 444 450.532226562 444 c 0,44,45
 426.958984375 444 426.958984375 444 404.122070312 474 c 0,46,47
 389.159179688 493 389.159179688 493 368.631835938 507.5 c 128,-1,48
 348.208984375 522 348.208984375 522 323.586914062 522 c 0,49,50
 290.458984375 522 290.458984375 522 271.034179688 510 c 128,-1,51
 251.609375 498 251.609375 498 240.322265625 476.5 c 0,52,53
 229.559570312 455 229.559570312 455 225.306640625 425 c 0,54,55
 221.211914062 395.377929688 221.211914062 395.377929688 221.211914062 359 c 2,56,-1
 221.211914062 302 l 1,57,-1
 314.032226562 302 l 2,58,59
 347.159179688 302 347.159179688 302 365.219726562 298.5 c 0,60,61
 383.909179688 295 383.909179688 295 393.201171875 289.5 c 0,62,63
 402.809570312 284 402.809570312 284 405.486328125 276.5 c 128,-1,64
 408.059570312 269 408.059570312 269 408.217773438 260 c 0,65,66
 408.059570312 254 408.059570312 254 406.169921875 248.5 c 0,67,68
 403.859375 243 403.859375 243 396.614257812 239.5 c 0,69,70
 389.159179688 236 389.159179688 236 374.092773438 233.5 c 0,71,72
 358.708984375 231 358.708984375 231 333.142578125 231 c 2,73,-1
 221.211914062 231 l 1,74,-1
 221.211914062 166 l 2,75,76
 221.159179688 119 221.159179688 119 207.561523438 95.5 c 128,-1,77
 193.859375 72 193.859375 72 185.721679688 59 c 0,78,79
 180.208984375 51 180.208984375 51 187.086914062 51.5 c 128,-1,80
 193.859375 52 193.859375 52 207.561523438 54 c 0,81,82
 215.909179688 55 215.909179688 55 223.259765625 56 c 128,-1,83
 230.609375 57 230.609375 57 240.322265625 57.5 c 0,84,85
 249.509765625 58 249.509765625 58 263.526367188 58 c 0,86,87
 281.271484375 58 281.271484375 58 299.017578125 58 c 2,88,-1
 475.1015625 58 l 2,89,90
 531.958984375 58 531.958984375 58 555.63671875 50.5 c 128,-1,91
 579.208984375 43 579.208984375 43 578.842773438 23 c 0,92,93
 579.208984375 -3 579.208984375 -3 561.780273438 -12 c 0,94,95
 544.559570312 -21 544.559570312 -21 506.497070312 -19 c 0,96,97
 435.359375 -17 435.359375 -17 314.713867188 -18.5 c 0,98,99
 193.859375 -20 193.859375 -20 116.107421875 -20 c 0,100,101
 80.458984375 -20 80.458984375 -20 57.412109375 -13 c 128,-1,102
 34.259765625 -6 34.259765625 -6 34.20703125 8 c 0,0,1
142.041992188 440 m 0,103,104
 144.509765625 440 144.509765625 440 150.232421875 451 c 128,-1,105
 156.059570312 462 156.059570312 462 164.564453125 478 c 0,106,107
 173.909179688 494 173.909179688 494 187.086914062 511.5 c 0,108,109
 201.208984375 529 201.208984375 529 221.211914062 542 c 0,110,111
 239.009765625 554 239.009765625 554 241.004882812 559.5 c 0,112,113
 243.208984375 565 243.208984375 565 238.95703125 565 c 0,114,115
 228.509765625 565 228.509765625 565 214.38671875 559.5 c 0,116,117
 201.208984375 554 201.208984375 554 181.626953125 540 c 0,118,119
 170.759765625 532 170.759765625 532 161.833984375 520 c 128,-1,120
 152.909179688 508 152.909179688 508 146.819335938 495 c 0,121,122
 140.309570312 482 140.309570312 482 137.947265625 470 c 0,123,124
 135.059570312 458 135.059570312 458 135.217773438 449 c 256,125,126
 135.059570312 440 135.059570312 440 142.041992188 440 c 0,103,104
142.041992188 412 m 0,127,128
 142.409179688 416 142.409179688 416 137.947265625 418 c 0,129,130
 134.009765625 420 134.009765625 420 129.756835938 420 c 0,131,132
 121.409179688 420 121.409179688 420 118.836914062 414 c 0,133,134
 116.159179688 409 116.159179688 409 116.107421875 408 c 0,135,136
 116.159179688 399 116.159179688 399 129.756835938 399 c 0,137,138
 141.359375 399 141.359375 399 142.041992188 412 c 0,127,128
EndSplineSet
EndChar

StartChar: M
Encoding: 77 77 52
Width: 600
VWidth: 1000
GlyphClass: 2
Flags: W
LayerCount: 2
Fore
SplineSet
41.5 386 m 1,0,-1
 41.5 464 l 1,1,2
 96.5 517 96.5 517 172.400390625 517 c 0,3,4
 240.599609375 517 240.599609375 517 311 487 c 0,5,6
 381.400390625 458 381.400390625 458 432 458 c 0,7,8
 460.599609375 458 460.599609375 458 494.150390625 473.5 c 128,-1,9
 527.700195312 489 527.700195312 489 558.5 517 c 1,10,-1
 558.5 440 l 1,11,12
 504.599609375 386 504.599609375 386 426.5 386 c 0,13,14
 359.400390625 386 359.400390625 386 287.900390625 416 c 0,15,16
 217.5 445 217.5 445 165.799804688 445 c 0,17,18
 139.400390625 445 139.400390625 445 106.400390625 430 c 128,-1,19
 73.400390625 415 73.400390625 415 41.5 386 c 1,0,-1
41.5 189 m 1,20,-1
 41.5 267 l 1,21,22
 96.5 320 96.5 320 172.400390625 320 c 0,23,24
 240.599609375 320 240.599609375 320 311 290 c 0,25,26
 381.400390625 261 381.400390625 261 432 261 c 0,27,28
 460.599609375 261 460.599609375 261 494.150390625 276.5 c 128,-1,29
 527.700195312 292 527.700195312 292 558.5 320 c 1,30,-1
 558.5 243 l 1,31,32
 504.599609375 189 504.599609375 189 426.5 189 c 0,33,34
 359.400390625 189 359.400390625 189 287.900390625 219 c 0,35,36
 217.5 248 217.5 248 165.799804688 248 c 0,37,38
 139.400390625 248 139.400390625 248 106.400390625 233 c 128,-1,39
 73.400390625 218 73.400390625 218 41.5 189 c 1,20,-1
EndSplineSet
EndChar

StartChar: N
Encoding: 78 78 53
Width: 600
VWidth: 1000
GlyphClass: 2
Flags: W
LayerCount: 2
Fore
SplineSet
55.25 0 m 1,0,-1
 55.25 511 l 1,1,-1
 134.450195312 511 l 1,2,-1
 148.75 432 l 1,3,-1
 154.25 432 l 1,4,5
 172 463 172 463 199.900390625 482.5 c 0,6,7
 227 502 227 502 265.349609375 511.5 c 0,8,9
 302 521 302 521 346.75 521 c 0,10,11
 436 521 436 521 490.299804688 475.5 c 0,12,13
 544.75 430.208007812 544.75 430.208007812 544.75 333 c 2,14,-1
 544.75 0 l 1,15,-1
 445.75 0 l 1,16,-1
 445.75 317 l 2,17,18
 446 384 446 384 415.5 416.5 c 0,19,20
 386 448 386 448 318.150390625 448 c 0,21,22
 215.936523438 448 215.936523438 448 191.099609375 396 c 0,23,24
 154.25 319.518554688 154.25 319.518554688 154.25 250 c 2,25,-1
 154.25 0 l 1,26,-1
 55.25 0 l 1,0,-1
EndSplineSet
Refer: 13 46 N 0.64 0 0 0.64 100.352 634.04 2
EndChar

StartChar: O
Encoding: 79 79 54
Width: 600
VWidth: 1000
GlyphClass: 2
Flags: W
LayerCount: 2
Fore
SplineSet
45.75 252.549804688 m 1,0,-1
 45.75 332.849609375 l 1,1,-1
 561.650390625 332.849609375 l 1,2,-1
 561.650390625 252.549804688 l 1,3,-1
 45.75 252.549804688 l 1,0,-1
45.75 28.150390625 m 1,4,-1
 45.75 108.450195312 l 1,5,-1
 561.650390625 108.450195312 l 1,6,-1
 561.650390625 28.150390625 l 1,7,-1
 45.75 28.150390625 l 1,4,-1
206.400390625 543 m 2,8,9
 206.400390625 562.5 206.400390625 562.5 216.799804688 576.5 c 128,-1,10
 227.200195312 590.5 227.200195312 590.5 251.900390625 603.25 c 128,-1,11
 276.599609375 616 276.599609375 616 318.200195312 630 c 0,12,13
 370.200195312 647 370.200195312 647 398.799804688 658.25 c 128,-1,14
 427.400390625 669.5 427.400390625 669.5 439.75 680.25 c 128,-1,15
 452.099609375 691 452.099609375 691 452.099609375 706 c 0,16,17
 452.099609375 730.5 452.099609375 730.5 410.5 744 c 128,-1,18
 368.900390625 757.5 368.900390625 757.5 290.900390625 757.5 c 0,19,20
 225.900390625 757.5 225.900390625 757.5 175.200195312 751 c 128,-1,21
 124.5 744.5 124.5 744.5 77.7001953125 736 c 1,22,-1
 36.099609375 772 l 1,23,24
 89.400390625 783 89.400390625 783 154.400390625 790 c 128,-1,25
 219.400390625 797 219.400390625 797 298.700195312 797 c 0,26,27
 424.799804688 797 424.799804688 797 494.349609375 772.75 c 128,-1,28
 563.900390625 748.5 563.900390625 748.5 563.900390625 707 c 0,29,30
 563.900390625 684 563.900390625 684 544.400390625 668 c 128,-1,31
 524.900390625 652 524.900390625 652 489.799804688 638.5 c 128,-1,32
 454.700195312 625 454.700195312 625 406.599609375 609.5 c 0,33,34
 362.400390625 595 362.400390625 595 339 584.25 c 128,-1,35
 315.599609375 573.5 315.599609375 573.5 307.799804688 563 c 128,-1,36
 300 552.5 300 552.5 300 538 c 2,37,-1
 300 529 l 1,38,-1
 206.400390625 529 l 1,39,-1
 206.400390625 543 l 2,8,9
205 454 m 0,40,41
 205 473 205 473 223 480.5 c 128,-1,42
 241 488 241 488 268 488 c 0,43,44
 294 488 294 488 312.5 480.25 c 128,-1,45
 331 472.5 331 472.5 331 454 c 128,-1,46
 331 435.5 331 435.5 312.5 427.25 c 128,-1,47
 294 419 294 419 268 419 c 0,48,49
 240 419 240 419 222.5 427.25 c 128,-1,50
 205 435.5 205 435.5 205 454 c 0,40,41
EndSplineSet
EndChar

StartChar: P
Encoding: 80 80 55
Width: 600
VWidth: 1000
GlyphClass: 2
Flags: W
LayerCount: 2
Fore
SplineSet
101.750976562 -7 m 0,0,1
 79.306640625 -7 79.306640625 -7 59.498046875 8 c 0,2,3
 40.0869140625 23.171875 40.0869140625 23.171875 40.0869140625 76 c 2,4,-1
 40.0869140625 534.404296875 l 2,5,6
 40.306640625 553 40.306640625 553 49.79296875 562.504882812 c 0,7,8
 74.306640625 583 74.306640625 583 76.056640625 583.580078125 c 0,9,10
 104.306640625 593 104.306640625 593 113.740234375 596.521484375 c 0,11,12
 123.219726562 600.958984375 123.219726562 600.958984375 157.703125 600.958984375 c 2,13,-1
 342.697265625 600.958984375 l 2,14,15
 380.306640625 601 380.306640625 601 418.635742188 592.084960938 c 0,16,17
 459.306640625 583 459.306640625 583 493.430664062 563.984375 c 0,18,19
 527.306640625 545 527.306640625 545 550.52734375 513.698242188 c 0,20,21
 573.306640625 481 573.306640625 481 573.365234375 439.008789062 c 256,22,23
 572.306640625 395 572.306640625 395 551.098632812 360.991210938 c 0,24,25
 529.306640625 326 529.306640625 326 495.716796875 303.310546875 c 0,26,27
 453.306640625 273 453.306640625 273 423.7734375 267.814453125 c 0,28,29
 351.306640625 256 351.306640625 256 350.690429688 255.612304688 c 2,30,-1
 199.95703125 255.612304688 l 2,31,32
 190.306640625 256 190.306640625 256 179.971679688 252.654296875 c 0,33,34
 170.266601562 249.989257812 170.266601562 249.989257812 170.266601562 243.041015625 c 2,35,-1
 170.266601562 72 l 2,36,37
 170.306640625 42 170.306640625 42 163.985351562 28 c 0,38,39
 158.306640625 16 158.306640625 16 147.427734375 8 c 0,40,41
 138.306640625 0 138.306640625 0 125.161132812 -3.5 c 0,42,43
 113.306640625 -7 113.306640625 -7 101.750976562 -7 c 0,0,1
369.661132812 321.428710938 m 2,44,45
 389.59375 321.428710938 389.59375 321.428710938 407.34375 327.34375 c 0,46,47
 425.306640625 333 425.306640625 333 441.03125 346.201171875 c 0,48,49
 457.348632812 360.830078125 457.348632812 360.830078125 465.58203125 379.848632812 c 0,50,51
 474.306640625 400 474.306640625 400 474.717773438 430.133789062 c 0,52,53
 474.306640625 466 474.306640625 466 465.58203125 483.008789062 c 0,54,55
 454.306640625 506 454.306640625 506 441.603515625 516.286132812 c 0,56,57
 425.306640625 529 425.306640625 529 408.485351562 533.6640625 c 0,58,59
 390.849609375 538.840820312 390.849609375 538.840820312 373.086914062 538.840820312 c 2,60,-1
 198.814453125 538.840820312 l 2,61,62
 170.266601562 539 170.266601562 539 170.266601562 513.698242188 c 2,63,-1
 170.266601562 338.436523438 l 2,64,65
 170.305664062 321.428710938 170.305664062 321.428710938 205.666015625 321.428710938 c 2,66,-1
 369.661132812 321.428710938 l 2,44,45
85.763671875 28 m 256,67,68
 80.306640625 33 80.306640625 33 76.056640625 46 c 0,69,70
 72.306640625 59 72.306640625 59 72.0595703125 85.5 c 0,71,72
 72.306640625 112 72.306640625 112 64.068359375 112 c 0,73,74
 58.306640625 112 58.306640625 112 56.64453125 103.5 c 0,75,76
 55.306640625 99 55.306640625 99 54.9306640625 83 c 0,77,78
 54.306640625 49 54.306640625 49 62.92578125 29 c 0,79,80
 69.306640625 13 69.306640625 13 82.337890625 13 c 0,81,82
 84.306640625 13 84.306640625 13 88.046875 15 c 0,83,84
 91.306640625 17 91.306640625 17 91.4736328125 19 c 0,85,86
 91.306640625 23 91.306640625 23 85.763671875 28 c 256,67,68
EndSplineSet
EndChar

StartChar: Q
Encoding: 81 81 56
Width: 600
VWidth: 1000
GlyphClass: 2
Flags: W
LayerCount: 2
Fore
SplineSet
589.440429688 551 m 5,0,-1
 524.639648438 551 l 5,1,-1
 524.639648438 0 l 5,2,-1
 437.16015625 0 l 5,3,-1
 437.16015625 185 l 5,4,-1
 456.599609375 160 l 5,5,6
 430.6796875 135 430.6796875 135 385.3203125 118.5 c 132,-1,7
 339.959960938 102 339.959960938 102 276.240234375 102 c 4,8,9
 211.440429688 102 211.440429688 102 163.379882812 121 c 132,-1,10
 115.3203125 140 115.3203125 140 88.8603515625 174 c 132,-1,11
 62.400390625 208 62.400390625 208 62.400390625 253 c 4,12,13
 62.400390625 302 62.400390625 302 79.1396484375 315.5 c 4,14,15
 103.440429688 335 103.440429688 335 135.83984375 365 c 4,16,17
 138 367 138 367 141.780273438 368.5 c 132,-1,18
 145.559570312 370 145.559570312 370 149.879882812 372 c 4,19,20
 173.639648438 385 173.639648438 385 201.719726562 389 c 132,-1,21
 229.799804688 393 229.799804688 393 260.040039062 393 c 4,22,23
 275.16015625 393 275.16015625 393 290.8203125 391.5 c 132,-1,24
 306.48046875 390 306.48046875 390 318.360351562 388 c 5,25,-1
 309.719726562 318 l 5,26,27
 298.919921875 320 298.919921875 320 288.120117188 320.5 c 132,-1,28
 277.3203125 321 277.3203125 321 262.200195312 321 c 4,29,30
 225.48046875 321 225.48046875 321 200.099609375 313 c 132,-1,31
 174.719726562 305 174.719726562 305 161.759765625 289 c 132,-1,32
 148.799804688 273 148.799804688 273 148.799804688 249 c 4,33,34
 148.799804688 211 148.799804688 211 184.440429688 191.5 c 132,-1,35
 220.080078125 172 220.080078125 172 275.16015625 172 c 4,36,37
 332.400390625 172 332.400390625 172 378.83984375 196.5 c 132,-1,38
 425.280273438 221 425.280273438 221 452.280273438 260 c 5,39,-1
 437.16015625 208 l 5,40,-1
 437.16015625 551 l 5,41,-1
 370.200195312 551 l 5,42,-1
 370.200195312 622 l 5,43,-1
 589.440429688 622 l 5,44,-1
 589.440429688 551 l 5,0,-1
142.3203125 331 m 5,45,46
 105.599609375 347 105.599609375 347 75.3603515625 370.5 c 132,-1,47
 45.1201171875 394 45.1201171875 394 27.83984375 425.5 c 132,-1,48
 10.5595703125 457 10.5595703125 457 10.5595703125 496 c 4,49,50
 10.5595703125 560 10.5595703125 560 53.759765625 596 c 132,-1,51
 96.9599609375 632 96.9599609375 632 171.48046875 632 c 4,52,53
 220.080078125 632 220.080078125 632 251.400390625 617 c 132,-1,54
 282.719726562 602 282.719726562 602 297.299804688 577 c 132,-1,55
 311.879882812 552 311.879882812 552 311.879882812 521 c 4,56,57
 311.879882812 495 311.879882812 495 300.540039062 472 c 132,-1,58
 289.200195312 449 289.200195312 449 264.360351562 428 c 5,59,-1
 199.559570312 464 l 5,60,61
 214.6796875 478 214.6796875 478 221.700195312 492 c 132,-1,62
 228.719726562 506 228.719726562 506 228.719726562 520 c 4,63,64
 228.719726562 543 228.719726562 543 214.139648438 555.5 c 132,-1,65
 199.559570312 568 199.559570312 568 171.48046875 568 c 4,66,67
 136.919921875 568 136.919921875 568 115.860351562 547 c 132,-1,68
 94.7998046875 526 94.7998046875 526 94.7998046875 490 c 4,69,70
 94.7998046875 452 94.7998046875 452 119.639648438 425 c 132,-1,71
 144.48046875 398 144.48046875 398 190.919921875 378 c 5,72,-1
 142.3203125 331 l 5,45,46
EndSplineSet
EndChar

StartChar: R
Encoding: 82 82 57
Width: 600
VWidth: 1000
GlyphClass: 2
Flags: W
LayerCount: 2
Fore
SplineSet
45 0 m 1,0,-1
 45 60 l 1,1,-1
 208 75 l 1,2,-1
 208 461 l 1,3,-1
 61 474 l 1,4,-1
 61 536 l 1,5,-1
 280 536 l 1,6,-1
 292 438 l 1,7,-1
 296 438 l 1,8,9
 324 491 324 491 357.5 518.5 c 0,10,11
 391 546 391 546 446 546 c 0,12,13
 480 546 480 546 506.5 540 c 0,14,15
 533 534 533 534 555 524 c 1,16,-1
 531 445 l 1,17,18
 515 454 515 454 493 460.5 c 0,19,20
 471 467 471 467 446 467 c 0,21,22
 403 467 403 467 370 440 c 0,23,24
 337 413 337 413 318 368 c 0,25,26
 299 323 299 323 299 269 c 2,27,-1
 299 75 l 1,28,-1
 455 60 l 1,29,-1
 455 0 l 1,30,-1
 45 0 l 1,0,-1
EndSplineSet
Refer: 13 46 N 0.64 0 0 0.64 104.448 655.544 2
EndChar

StartChar: S
Encoding: 83 83 58
Width: 600
VWidth: 1000
GlyphClass: 2
Flags: W
LayerCount: 2
Fore
SplineSet
555.635742188 551 m 5,0,-1
 555.635742188 0 l 5,1,-1
 476.903320312 0 l 5,2,-1
 476.903320312 551 l 5,3,-1
 390.396484375 551 l 5,4,-1
 390.396484375 622 l 5,5,-1
 591.599609375 622 l 5,6,-1
 591.599609375 551 l 5,7,-1
 555.635742188 551 l 5,0,-1
106.572265625 173 m 4,8,9
 62.83203125 173 62.83203125 173 35.6162109375 194 c 132,-1,10
 8.400390625 215 8.400390625 215 8.400390625 249 c 4,11,12
 8.400390625 278 8.400390625 278 26.3828125 293.5 c 132,-1,13
 44.3642578125 309 44.3642578125 309 72.552734375 309 c 4,14,15
 99.767578125 309 99.767578125 309 121.15234375 295.5 c 132,-1,16
 142.536132812 282 142.536132812 282 166.8359375 251 c 5,17,-1
 177.528320312 230 l 5,18,19
 224.18359375 187 224.18359375 187 265.494140625 137.5 c 132,-1,20
 306.803710938 88 306.803710938 88 342.767578125 38 c 5,21,-1
 275.700195312 -6 l 5,22,23
 225.15625 66 225.15625 66 185.790039062 117 c 132,-1,24
 146.423828125 168 146.423828125 168 114.34765625 202 c 5,25,-1
 102.68359375 251 l 5,26,27
 156.14453125 257 156.14453125 257 197.453125 281.5 c 132,-1,28
 238.763671875 306 238.763671875 306 263.064453125 349 c 132,-1,29
 287.364257812 392 287.364257812 392 287.364257812 451 c 4,30,31
 287.364257812 507 287.364257812 507 263.549804688 536.5 c 132,-1,32
 239.736328125 566 239.736328125 566 195.99609375 566 c 4,33,34
 162.947265625 566 162.947265625 566 144.48046875 548.5 c 132,-1,35
 126.01171875 531 126.01171875 531 126.01171875 505 c 4,36,37
 126.01171875 470 126.01171875 470 154.685546875 453.5 c 132,-1,38
 183.360351562 437 183.360351562 437 233.903320312 433 c 5,39,-1
 222.239257812 368 l 5,40,41
 145.452148438 374 145.452148438 374 99.767578125 409 c 132,-1,42
 54.083984375 444 54.083984375 444 54.083984375 509 c 4,43,44
 54.083984375 565 54.083984375 565 90.5341796875 598.5 c 132,-1,45
 126.983398438 632 126.983398438 632 194.052734375 632 c 4,46,47
 246.540039062 632 246.540039062 632 284.447265625 609.5 c 132,-1,48
 322.35546875 587 322.35546875 587 343.25390625 545.5 c 132,-1,49
 364.15234375 504 364.15234375 504 364.15234375 445 c 4,50,51
 364.15234375 378 364.15234375 378 339.366210938 326.5 c 132,-1,52
 314.580078125 275 314.580078125 275 270.83984375 240.5 c 132,-1,53
 227.099609375 206 227.099609375 206 169.751953125 189 c 5,54,-1
 159.060546875 182 l 5,55,56
 142.536132812 178 142.536132812 178 131.358398438 175.5 c 132,-1,57
 120.1796875 173 120.1796875 173 106.572265625 173 c 4,8,9
EndSplineSet
EndChar

StartChar: T
Encoding: 84 84 59
Width: 600
VWidth: 1000
GlyphClass: 2
Flags: W
LayerCount: 2
Fore
SplineSet
599.5 551 m 1,0,-1
 381.5 551 l 1,1,-1
 381.5 414 l 1,2,3
 453.5 384 453.5 384 496.5 327.5 c 128,-1,4
 539.5 271 539.5 271 539.5 198 c 0,5,6
 539.5 128 539.5 128 506.5 84.5 c 128,-1,7
 473.5 41 473.5 41 418.5 20.5 c 128,-1,8
 363.5 0 363.5 0 297.5 0 c 0,9,10
 222.5 0 222.5 0 166 25 c 128,-1,11
 109.5 50 109.5 50 78 98.5 c 128,-1,12
 46.5 147 46.5 147 46.5 216 c 0,13,14
 46.5 283 46.5 283 81 328.5 c 128,-1,15
 115.5 374 115.5 374 173 397 c 128,-1,16
 230.5 420 230.5 420 297.5 420 c 2,17,-1
 304.5 420 l 1,18,-1
 300.5 415 l 1,19,-1
 300.5 551 l 1,20,-1
 0.5 551 l 1,21,-1
 0.5 622 l 1,22,-1
 599.5 622 l 1,23,-1
 599.5 551 l 1,0,-1
293.5 72 m 256,24,25
 341.5 72 341.5 72 378.5 85.5 c 128,-1,26
 415.5 99 415.5 99 437 127.5 c 128,-1,27
 458.5 156 458.5 156 458.5 200 c 0,28,29
 458.5 248 458.5 248 431 286.5 c 128,-1,30
 403.5 325 403.5 325 353.5 349 c 1,31,-1
 318.5 349 l 2,32,33
 264.5 349 264.5 349 221 335 c 128,-1,34
 177.5 321 177.5 321 152 290.5 c 128,-1,35
 126.5 260 126.5 260 126.5 210 c 0,36,37
 126.5 164 126.5 164 148.5 133 c 128,-1,38
 170.5 102 170.5 102 208 87 c 128,-1,39
 245.5 72 245.5 72 293.5 72 c 256,24,25
EndSplineSet
EndChar

StartChar: U
Encoding: 85 85 60
Width: 600
VWidth: 1000
GlyphClass: 2
Flags: W
LayerCount: 2
Fore
SplineSet
41.5 166 m 1,0,-1
 41.5 244 l 1,1,-1
 444.099609375 412 l 1,2,-1
 41.5 580 l 1,3,-1
 41.5 658 l 1,4,-1
 558.5 437 l 1,5,-1
 558.5 387 l 1,6,-1
 41.5 166 l 1,0,-1
41.5 47 m 1,7,-1
 41.5 118 l 1,8,-1
 558.5 118 l 1,9,-1
 558.5 47 l 1,10,-1
 41.5 47 l 1,7,-1
EndSplineSet
EndChar

StartChar: V
Encoding: 86 86 61
Width: 600
VWidth: 0
GlyphClass: 2
Flags: W
LayerCount: 2
Fore
SplineSet
255 0 m 1,0,-1
 0 620 l 1,1,-1
 94 620 l 1,2,-1
 300 100 l 1,3,-1
 505 620 l 1,4,-1
 600 620 l 1,5,-1
 345 0 l 1,6,-1
 255 0 l 1,0,-1
EndSplineSet
EndChar

StartChar: W
Encoding: 87 87 62
Width: 600
VWidth: 1000
GlyphClass: 2
Flags: W
LayerCount: 2
Fore
SplineSet
203.305664062 778.6484375 m 1024,0,1
570.288085938 518 m 1,2,-1
 37.66796875 518 l 1,3,-1
 37.66796875 597 l 1,4,-1
 570.288085938 597 l 1,5,-1
 570.288085938 518 l 1,2,-1
401.98828125 -20 m 0,6,7
 379.217773438 -20 379.217773438 -20 362.8828125 -14 c 0,8,9
 346.217773438 -8 346.217773438 -8 335.163085938 3.5 c 128,-1,10
 324.217773438 15 324.217773438 15 315.858398438 31 c 0,11,12
 304.41796875 55 304.41796875 55 301.0078125 67 c 0,13,14
 300.017578125 71 300.017578125 71 299.02734375 77 c 0,15,16
 297.817382812 83 297.817382812 83 296.552734375 89 c 0,17,18
 295.618164062 95 295.618164062 95 293.583007812 99 c 0,19,20
 292.317382812 103 292.317382812 103 290.118164062 103 c 256,21,22
 287.91796875 103 287.91796875 103 286.158203125 95.5 c 0,23,24
 284.618164062 88 284.618164062 88 280.217773438 77 c 0,25,26
 270.317382812 51 270.317382812 51 261.408203125 32.5 c 0,27,28
 252.717773438 14 252.717773438 14 241.11328125 2.5 c 128,-1,29
 229.618164062 -9 229.618164062 -9 215.868164062 -14.5 c 128,-1,30
 202.118164062 -20 202.118164062 -20 182.208007812 -20 c 0,31,32
 142.717773438 -20 142.717773438 -20 113.40234375 -6.5 c 0,33,34
 84.41796875 7 84.41796875 7 65.3876953125 31.5 c 0,35,36
 47.017578125 56 47.017578125 56 37.66796875 89.5 c 0,37,38
 28.7578125 121.421875 28.7578125 121.421875 28.7578125 163 c 2,39,-1
 28.7578125 502 l 2,40,41
 28.3173828125 512 28.3173828125 512 31.7275390625 525.5 c 0,42,43
 34.91796875 539 34.91796875 539 41.626953125 551 c 0,44,45
 48.1181640625 563 48.1181640625 563 59.9423828125 571.5 c 0,46,47
 71.2177734375 580 71.2177734375 580 89.1474609375 580 c 0,48,49
 117.41796875 580 117.41796875 580 128.747070312 559.5 c 0,50,51
 139.543945312 538.7578125 139.543945312 538.7578125 139.637695312 507 c 2,52,-1
 140.626953125 173 l 2,53,54
 140.517578125 163 140.517578125 163 142.608398438 146.5 c 0,55,56
 144.91796875 130 144.91796875 130 149.04296875 114 c 0,57,58
 153.717773438 98 153.717773438 98 162.408203125 86.5 c 0,59,60
 171.317382812 75 171.317382812 75 184.188476562 75 c 0,61,62
 206.517578125 75 206.517578125 75 220.322265625 109 c 128,-1,63
 234.017578125 143 234.017578125 143 240.618164062 199 c 128,-1,64
 247.217773438 255 247.217773438 255 249.033203125 265.5 c 0,65,66
 250.517578125 276 250.517578125 276 250.517578125 352 c 0,67,68
 250.517578125 416 250.517578125 416 260.41796875 440.5 c 128,-1,69
 270.317382812 465 270.317382812 465 300.017578125 465 c 0,70,71
 314.317382812 465 314.317382812 465 322.788085938 460 c 0,72,73
 331.91796875 455 331.91796875 455 337.637695312 439 c 0,74,75
 344.017578125 423 344.017578125 423 346.052734375 393 c 0,76,77
 348.41796875 363 348.41796875 363 348.52734375 313 c 0,78,-1
 348.52734375 251 l 0,79,-1
 350.012695312 216.5 l 0,80,81
 351.717773438 182 351.717773438 182 353.97265625 161.5 c 128,-1,82
 356.118164062 141 356.118164062 141 361.397460938 126 c 0,83,84
 370.41796875 97 370.41796875 97 380.208007812 85.5 c 0,85,86
 390.217773438 74 390.217773438 74 402.977539062 74 c 0,87,88
 461.387695312 74 461.387695312 74 461.387695312 219 c 2,89,-1
 461.387695312 519 l 2,90,91
 461.717773438 530 461.717773438 530 463.368164062 541 c 128,-1,92
 465.017578125 552 465.017578125 552 470.79296875 560.5 c 0,93,94
 476.017578125 569 476.017578125 569 486.137695312 574.5 c 0,95,96
 495.817382812 580 495.817382812 580 510.887695312 580 c 0,97,98
 542.017578125 580 542.017578125 580 556.922851562 562.5 c 0,99,100
 571.27734375 545.520507812 571.27734375 545.520507812 571.27734375 519 c 2,101,-1
 571.27734375 200 l 2,102,103
 571.717773438 158 571.717773438 158 559.892578125 118.5 c 0,104,105
 548.618164062 79 548.618164062 79 527.22265625 48 c 128,-1,106
 505.717773438 17 505.717773438 17 474.2578125 -1.5 c 0,107,108
 443.017578125 -20 443.017578125 -20 401.98828125 -20 c 0,6,7
53.5078125 495 m 0,109,110
 60.2177734375 495 60.2177734375 495 62.9130859375 502 c 128,-1,111
 65.7177734375 509 65.7177734375 509 66.376953125 514 c 0,112,113
 67.91796875 528 67.91796875 528 77.267578125 537.5 c 0,114,115
 92.1181640625 553 92.1181640625 553 92.1181640625 559 c 0,116,117
 92.1181640625 561 92.1181640625 561 90.1376953125 564 c 0,118,119
 87.7177734375 567 87.7177734375 567 85.1884765625 567 c 0,120,121
 78.91796875 567 78.91796875 567 72.3173828125 560.5 c 128,-1,122
 65.7177734375 554 65.7177734375 554 59.447265625 545 c 0,123,124
 53.6181640625 536 53.6181640625 536 50.04296875 525.5 c 0,125,126
 47.017578125 515 47.017578125 515 46.5771484375 507 c 0,127,128
 47.017578125 503 47.017578125 503 47.5673828125 499 c 128,-1,129
 48.1181640625 495 48.1181640625 495 53.5078125 495 c 0,109,110
494.05859375 513 m 0,130,131
 493.618164062 523 493.618164062 523 497.02734375 531 c 0,132,133
 500.217773438 539 500.217773438 539 503.958007812 546 c 0,134,135
 509.017578125 554 509.017578125 554 507.91796875 559 c 128,-1,136
 506.817382812 564 506.817382812 564 503.958007812 564 c 0,137,138
 499.118164062 564 499.118164062 564 492.572265625 560.5 c 128,-1,139
 485.91796875 557 485.91796875 557 482.177734375 547 c 0,140,141
 477.118164062 531 477.118164062 531 478.712890625 516 c 128,-1,142
 480.41796875 501 480.41796875 501 488.118164062 501 c 0,143,144
 490.317382812 501 490.317382812 501 492.077148438 504.5 c 0,145,146
 493.618164062 508 493.618164062 508 494.05859375 513 c 0,130,131
277.247070312 401 m 0,147,148
 276.91796875 402 276.91796875 402 279.227539062 411.5 c 0,149,150
 281.317382812 421 281.317382812 421 284.177734375 427 c 0,151,152
 291.217773438 440 291.217773438 440 293.087890625 445 c 0,153,154
 295.618164062 450 295.618164062 450 292.09765625 450 c 0,155,156
 290.118164062 450 290.118164062 450 284.672851562 448 c 128,-1,157
 279.118164062 446 279.118164062 446 274.27734375 439 c 0,158,159
 263.717773438 424 263.717773438 424 263.8828125 407 c 0,160,161
 264.817382812 390 264.817382812 390 272.297851562 390 c 0,162,163
 276.91796875 390 276.91796875 390 277.247070312 401 c 0,147,148
129.73828125 17 m 0,164,165
 128.41796875 22 128.41796875 22 115.876953125 31 c 0,166,167
 103.118164062 40 103.118164062 40 97.0673828125 47 c 0,168,169
 86.6181640625 58 86.6181640625 58 81.72265625 69 c 0,170,171
 77.8173828125 80 77.8173828125 80 72.3173828125 79 c 0,172,173
 67.91796875 79 67.91796875 79 68.8525390625 72 c 0,174,175
 69.017578125 65 69.017578125 65 73.802734375 55 c 0,176,177
 77.8173828125 45 77.8173828125 45 87.16796875 34 c 128,-1,178
 96.517578125 23 96.517578125 23 108.947265625 14 c 0,179,180
 114.997070312 9 114.997070312 9 124.788085938 9 c 0,181,182
 131.717773438 9 131.717773438 9 129.73828125 17 c 0,164,165
393.077148438 2 m 0,183,184
 393.517578125 6 393.517578125 6 389.61328125 7 c 128,-1,185
 385.817382812 8 385.817382812 8 383.177734375 8 c 0,186,187
 378.118164062 9 378.118164062 9 368.327148438 18 c 0,188,189
 358.317382812 27 358.317382812 27 352.48828125 37 c 0,190,191
 341.641601562 54 341.641601562 54 334.66796875 54 c 0,192,193
 331.91796875 54 331.91796875 54 331.697265625 49 c 0,194,195
 331.91796875 47 331.91796875 47 335.163085938 39 c 128,-1,196
 338.517578125 31 338.517578125 31 345.55859375 22 c 0,197,198
 352.817382812 13 352.817382812 13 361.892578125 5.5 c 0,199,200
 371.517578125 -2 371.517578125 -2 382.188476562 -3 c 0,201,202
 385.817382812 -3 385.817382812 -3 389.118164062 -3 c 128,-1,203
 392.41796875 -3 392.41796875 -3 393.077148438 2 c 0,183,184
EndSplineSet
EndChar

StartChar: X
Encoding: 88 88 63
Width: 600
VWidth: 1000
GlyphClass: 2
Flags: W
LayerCount: 2
Fore
SplineSet
169.995117188 95.224609375 m 1,0,-1
 114.10546875 151.114257812 l 1,1,-1
 244.514648438 281.525390625 l 1,2,-1
 114.10546875 411.935546875 l 1,3,-1
 169.995117188 467.825195312 l 1,4,-1
 300.405273438 337.415039062 l 1,5,-1
 430.814453125 467.825195312 l 1,6,-1
 486.705078125 411.935546875 l 1,7,-1
 356.294921875 281.525390625 l 1,8,-1
 486.705078125 151.114257812 l 1,9,-1
 430.814453125 95.224609375 l 1,10,-1
 300.405273438 225.635742188 l 1,11,-1
 169.995117188 95.224609375 l 1,0,-1
300.405273438 11.794921875 m 0,12,13
 244.514648438 11.794921875 244.514648438 11.794921875 195.915039062 32.4501953125 c 128,-1,14
 147.314453125 53.10546875 147.314453125 53.10546875 110.459960938 89.9599609375 c 128,-1,15
 73.60546875 126.814453125 73.60546875 126.814453125 52.9501953125 175.415039062 c 128,-1,16
 32.294921875 224.014648438 32.294921875 224.014648438 32.294921875 279.905273438 c 0,17,18
 32.294921875 334.985351562 32.294921875 334.985351562 52.9501953125 383.584960938 c 128,-1,19
 73.60546875 432.185546875 73.60546875 432.185546875 110.459960938 469.040039062 c 128,-1,20
 147.314453125 505.89453125 147.314453125 505.89453125 195.915039062 526.549804688 c 128,-1,21
 244.514648438 547.205078125 244.514648438 547.205078125 300.405273438 547.205078125 c 0,22,23
 355.485351562 547.205078125 355.485351562 547.205078125 404.084960938 526.549804688 c 128,-1,24
 452.685546875 505.89453125 452.685546875 505.89453125 489.540039062 469.040039062 c 128,-1,25
 526.39453125 432.185546875 526.39453125 432.185546875 547.049804688 383.584960938 c 128,-1,26
 567.705078125 334.985351562 567.705078125 334.985351562 567.705078125 279.905273438 c 0,27,28
 567.705078125 224.014648438 567.705078125 224.014648438 547.049804688 175.415039062 c 128,-1,29
 526.39453125 126.814453125 526.39453125 126.814453125 489.540039062 89.9599609375 c 128,-1,30
 452.685546875 53.10546875 452.685546875 53.10546875 404.084960938 32.4501953125 c 128,-1,31
 355.485351562 11.794921875 355.485351562 11.794921875 300.405273438 11.794921875 c 0,12,13
300.405273438 53.10546875 m 256,32,33
 347.385742188 53.10546875 347.385742188 53.10546875 388.290039062 70.51953125 c 128,-1,34
 429.1953125 87.935546875 429.1953125 87.935546875 460.379882812 119.120117188 c 128,-1,35
 491.564453125 150.3046875 491.564453125 150.3046875 508.98046875 191.614257812 c 128,-1,36
 526.39453125 232.924804688 526.39453125 232.924804688 526.39453125 279.905273438 c 256,37,38
 526.39453125 326.885742188 526.39453125 326.885742188 508.98046875 367.790039062 c 128,-1,39
 491.564453125 408.6953125 491.564453125 408.6953125 460.379882812 439.879882812 c 128,-1,40
 429.1953125 471.064453125 429.1953125 471.064453125 388.290039062 488.48046875 c 128,-1,41
 347.385742188 505.89453125 347.385742188 505.89453125 300.405273438 505.89453125 c 256,42,43
 253.424804688 505.89453125 253.424804688 505.89453125 212.114257812 488.48046875 c 128,-1,44
 170.8046875 471.064453125 170.8046875 471.064453125 139.620117188 439.879882812 c 128,-1,45
 108.435546875 408.6953125 108.435546875 408.6953125 91.01953125 367.790039062 c 128,-1,46
 73.60546875 326.885742188 73.60546875 326.885742188 73.60546875 279.905273438 c 256,47,48
 73.60546875 232.924804688 73.60546875 232.924804688 91.01953125 191.614257812 c 128,-1,49
 108.435546875 150.3046875 108.435546875 150.3046875 139.620117188 119.120117188 c 128,-1,50
 170.8046875 87.935546875 170.8046875 87.935546875 212.114257812 70.51953125 c 128,-1,51
 253.424804688 53.10546875 253.424804688 53.10546875 300.405273438 53.10546875 c 256,32,33
EndSplineSet
EndChar

StartChar: Y
Encoding: 89 89 64
Width: 600
VWidth: 1000
GlyphClass: 2
Flags: W
LayerCount: 2
Fore
SplineSet
303.9296875 -37 m 0,0,1
 278.904296875 -37 278.904296875 -37 266.009765625 -20.5 c 128,-1,2
 253.049804688 -4.18359375 253.049804688 -4.18359375 253.049804688 15 c 2,3,-1
 253.049804688 129 l 2,4,5
 252.904296875 143 252.904296875 143 251.609375 152.5 c 0,6,7
 249.904296875 163 249.904296875 163 246.809570312 174 c 0,8,9
 242.904296875 185 242.904296875 185 237.689453125 198.5 c 0,10,11
 224.5546875 230.418945312 224.5546875 230.418945312 223.290039062 232 c 2,12,-1
 13.669921875 494 l 2,13,14
 9.904296875 499 9.904296875 499 13.099609375 511.5 c 0,15,16
 15.904296875 522 15.904296875 522 24.5048828125 531.5 c 0,17,18
 33.904296875 541 33.904296875 541 46.744140625 547.5 c 0,19,20
 60.904296875 554 60.904296875 554 78.677734375 554 c 0,21,22
 91.904296875 554 91.904296875 554 98.6357421875 549.5 c 0,23,24
 105.192382812 544.5390625 105.192382812 544.5390625 114.032226562 533 c 2,25,-1
 281.047851562 315 l 2,26,27
 281.904296875 314 281.904296875 314 293.19140625 292 c 0,28,29
 299.904296875 280 299.904296875 280 306.391601562 280 c 256,30,31
 313.904296875 280 313.904296875 280 319.063476562 289.5 c 0,32,33
 332.904296875 314 332.904296875 314 332.791992188 315 c 2,34,-1
 500.512695312 544 l 2,35,36
 508.904296875 555 508.904296875 555 517.62109375 557.5 c 0,37,38
 528.904296875 560 528.904296875 560 537.0078125 560 c 0,39,40
 551.904296875 560 551.904296875 560 562.668945312 553 c 0,41,42
 572.904296875 546 572.904296875 546 579.776367188 536 c 0,43,44
 585.904296875 526 585.904296875 526 587.759765625 515 c 0,45,46
 589.81640625 502.53515625 589.81640625 502.53515625 584.908203125 496 c 2,47,-1
 376.889648438 219 l 2,48,49
 373.904296875 211 373.904296875 211 366.330078125 193.5 c 0,50,51
 360.904296875 180 360.904296875 180 361.049804688 172 c 0,52,53
 359.904296875 161 359.904296875 161 359.129882812 147.5 c 0,54,55
 358.904296875 127 358.904296875 127 358.650390625 112 c 2,56,-1
 358.650390625 15 l 2,57,58
 358.904296875 -2 358.904296875 -2 353.369140625 -10 c 0,59,60
 347.904296875 -20 347.904296875 -20 339.9296875 -26 c 128,-1,61
 331.904296875 -32 331.904296875 -32 322.169921875 -34.5 c 0,62,63
 312.904296875 -37 312.904296875 -37 303.9296875 -37 c 0,0,1
49.0244140625 489 m 0,64,65
 46.904296875 497 46.904296875 497 47.3134765625 502.5 c 128,-1,66
 47.904296875 508 47.904296875 508 46.744140625 513 c 256,67,68
 45.904296875 518 45.904296875 518 43.3232421875 522 c 128,-1,69
 40.904296875 526 40.904296875 526 38.7607421875 525 c 0,70,71
 25.904296875 520 25.904296875 520 27.92578125 506 c 128,-1,72
 29.904296875 492 29.904296875 492 33.0576171875 484 c 0,73,74
 38.904296875 472 38.904296875 472 46.744140625 475 c 0,75,76
 52.904296875 477 52.904296875 477 51.3056640625 481 c 128,-1,77
 49.904296875 485 49.904296875 485 49.0244140625 489 c 0,64,65
288.569335938 -4 m 0,78,79
 285.9296875 0 285.9296875 0 283.290039062 10 c 0,80,81
 277.9296875 24 277.9296875 24 278.009765625 37 c 0,82,83
 276.9296875 60 276.9296875 60 273.208984375 60 c 0,84,85
 271.9296875 60 271.9296875 60 270.330078125 56.5 c 128,-1,86
 268.9296875 53 268.9296875 53 267.450195312 44 c 0,87,88
 265.9296875 12 265.9296875 12 272.729492188 -2 c 0,89,90
 279.9296875 -16 279.9296875 -16 288.569335938 -16 c 0,91,92
 292.9296875 -16 292.9296875 -16 291.450195312 -12.5 c 128,-1,93
 289.9296875 -9 289.9296875 -9 288.569335938 -4 c 0,78,79
EndSplineSet
EndChar

StartChar: Z
Encoding: 90 90 65
Width: 600
VWidth: 1000
GlyphClass: 2
Flags: W
LayerCount: 2
Fore
SplineSet
556.147460938 551 m 5,0,-1
 556.147460938 0 l 5,1,-1
 486.407226562 0 l 5,2,-1
 486.407226562 551 l 5,3,-1
 402.889648438 551 l 5,4,-1
 402.889648438 622 l 5,5,-1
 581.977539062 622 l 5,6,-1
 581.977539062 551 l 5,7,-1
 556.147460938 551 l 5,0,-1
395.140625 271 m 4,8,9
 435.607421875 271 435.607421875 271 465.7421875 278.5 c 132,-1,10
 495.876953125 286 495.876953125 286 530.317382812 303 c 5,11,-1
 530.317382812 228 l 5,12,13
 508.791992188 215 508.791992188 215 481.670898438 207.5 c 132,-1,14
 454.549804688 200 454.549804688 200 424.415039062 200 c 4,15,16
 397.723632812 200 397.723632812 200 371.893554688 204 c 132,-1,17
 346.063476562 208 346.063476562 208 315.067382812 219 c 5,18,-1
 273.740234375 271 l 5,19,-1
 278.905273438 286 l 5,20,21
 309.041015625 279 309.041015625 279 336.162109375 275 c 132,-1,22
 363.283203125 271 363.283203125 271 395.140625 271 c 4,8,9
215.192382812 222 m 4,23,24
 190.22265625 222 190.22265625 222 164.822265625 215.5 c 132,-1,25
 139.423828125 209 139.423828125 209 117.8984375 199 c 5,26,27
 93.791015625 217 93.791015625 217 72.265625 240 c 132,-1,28
 50.7412109375 263 50.7412109375 263 37.8251953125 291.5 c 132,-1,29
 24.91015625 320 24.91015625 320 24.91015625 352 c 4,30,31
 24.91015625 408 24.91015625 408 56.337890625 436.5 c 132,-1,32
 87.763671875 465 87.763671875 465 153.200195312 465 c 6,33,-1
 259.963867188 465 l 5,34,-1
 259.963867188 551 l 5,35,-1
 62.7939453125 551 l 5,36,-1
 62.7939453125 622 l 5,37,-1
 416.666015625 622 l 5,38,-1
 416.666015625 551 l 5,39,-1
 329.704101562 551 l 5,40,-1
 329.704101562 394 l 5,41,-1
 159.2265625 394 l 6,42,43
 124.786132812 394 124.786132812 394 109.2890625 381 c 132,-1,44
 93.791015625 368 93.791015625 368 93.791015625 344 c 4,45,46
 93.791015625 324 93.791015625 324 104.553710938 307 c 132,-1,47
 115.315429688 290 115.315429688 290 130.813476562 276 c 5,48,49
 152.338867188 285 152.338867188 285 175.584960938 289.5 c 132,-1,50
 198.833007812 294 198.833007812 294 225.5234375 294 c 4,51,52
 272.017578125 294 272.017578125 294 303.444335938 276.5 c 132,-1,53
 334.870117188 259 334.870117188 259 350.798828125 227.5 c 132,-1,54
 366.727539062 196 366.727539062 196 366.727539062 154 c 4,55,56
 366.727539062 75 366.727539062 75 315.067382812 37.5 c 132,-1,57
 263.408203125 0 263.408203125 0 176.446289062 0 c 4,58,59
 169.557617188 0 169.557617188 0 163.1015625 0 c 132,-1,60
 156.643554688 0 156.643554688 0 150.186523438 0.5 c 132,-1,61
 143.728515625 1 143.728515625 1 137.701171875 1 c 4,62,63
 84.3193359375 4 84.3193359375 4 51.1708984375 24 c 132,-1,64
 18.0224609375 44 18.0224609375 44 18.0224609375 82 c 4,65,66
 18.0224609375 105 18.0224609375 105 30.5068359375 118.5 c 132,-1,67
 42.9921875 132 42.9921875 132 64.5166015625 132 c 4,68,69
 89.4853515625 132 89.4853515625 132 109.2890625 111 c 132,-1,70
 129.091796875 90 129.091796875 90 153.200195312 41 c 5,71,72
 182.473632812 3 182.473632812 3 215.622070312 -34.5 c 132,-1,73
 248.770507812 -72 248.770507812 -72 284.932617188 -109 c 5,74,-1
 224.662109375 -161 l 5,75,76
 187.639648438 -114 187.639648438 -114 154.921875 -66 c 4,77,78
 113.330078125 -4.876953125 113.330078125 -4.876953125 94.6513671875 31 c 6,79,-1
 72.265625 74 l 5,80,81
 93.791015625 71 93.791015625 71 122.203125 69.5 c 132,-1,82
 150.6171875 68 150.6171875 68 166.974609375 68 c 4,83,84
 203.999023438 68 203.999023438 68 233.272460938 75.5 c 132,-1,85
 262.546875 83 262.546875 83 279.766601562 101.5 c 132,-1,86
 296.986328125 120 296.986328125 120 296.986328125 154 c 4,87,88
 296.986328125 186 296.986328125 186 278.043945312 204 c 132,-1,89
 259.102539062 222 259.102539062 222 215.192382812 222 c 4,23,24
EndSplineSet
EndChar

StartChar: a
Encoding: 97 97 66
Width: 600
VWidth: 1000
GlyphClass: 2
Flags: W
LayerCount: 2
Fore
SplineSet
118 77 m 0,0,1
 106 93 106 93 97 108.5 c 128,-1,2
 88 124 88 124 86 139 c 0,3,4
 83 153 83 153 77 152 c 0,5,6
 69 152 69 152 72 134 c 0,7,8
 73 125 73 125 77.5 112 c 128,-1,9
 82 99 82 99 88 88 c 128,-1,10
 94 77 94 77 102 69.5 c 128,-1,11
 110 62 110 62 119 63 c 0,12,13
 127 65 127 65 118 77 c 0,0,1
229.5 -1 m 0,14,15
 168 -1 168 -1 121.5 30.5 c 0,16,17
 74 62 74 62 48 123.5 c 128,-1,18
 22 185 22 185 21.5 274 c 0,19,20
 22 368 22 368 54.5 433.5 c 0,21,22
 88 499 88 499 142 534 c 128,-1,23
 196 569 196 569 259.5 569 c 0,24,25
 294 569 294 569 326 555 c 128,-1,26
 358 541 358 541 385 509.5 c 128,-1,27
 412 478 412 478 426.5 426 c 1,28,-1
 429.5 426 l 1,29,-1
 452.5 509 l 1,30,-1
 542.5 509 l 1,31,32
 532 456 532 456 520 420 c 128,-1,33
 508 384 508 384 498 326.5 c 128,-1,34
 488 269 488 269 481 218.5 c 0,35,36
 475 178 475 178 474.5 131 c 0,37,38
 474 104 474 104 490 89.5 c 128,-1,39
 506 75 506 75 528.5 75 c 0,40,41
 538 75 538 75 547.5 77 c 0,42,43
 558 79 558 79 565.5 83 c 1,44,-1
 578.5 13 l 1,45,46
 568 8 568 8 550.5 3.5 c 0,47,48
 534 -1 534 -1 509.5 -1 c 0,49,50
 462 -1 462 -1 432 25.5 c 128,-1,51
 402 52 402 52 402.5 109 c 1,52,-1
 398.5 109 l 1,53,54
 336 -1 336 -1 229.5 -1 c 0,14,15
248.5 76 m 0,55,56
 284.5 76 284.5 76 317 98.5 c 128,-1,57
 349.5 121 349.5 121 371.5 159.5 c 128,-1,58
 393.5 198 393.5 198 396.5 244 c 2,59,-1
 405.5 347 l 1,60,61
 393.5 391 393.5 391 378 419.5 c 128,-1,62
 362.5 448 362.5 448 344.5 464 c 128,-1,63
 326.5 480 326.5 480 307 486 c 128,-1,64
 287.5 492 287.5 492 268.5 492 c 0,65,66
 229.5 492 229.5 492 194.5 467.5 c 128,-1,67
 159.5 443 159.5 443 137.5 395 c 128,-1,68
 115.5 347 115.5 347 115.5 275 c 0,69,70
 115.5 180 115.5 180 151 128 c 128,-1,71
 186.5 76 186.5 76 248.5 76 c 0,55,56
EndSplineSet
EndChar

StartChar: ampersand
Encoding: 38 38 67
Width: 600
VWidth: 1000
GlyphClass: 1
Flags: W
LayerCount: 2
Fore
SplineSet
214 -10 m 0,0,1
 155 -10 155 -10 113.5 14 c 128,-1,2
 72 38 72 38 50.5 80.5 c 128,-1,3
 29 123 29 123 29 176 c 0,4,5
 29 233 29 233 51.5 275.5 c 128,-1,6
 74 318 74 318 110 351.5 c 128,-1,7
 146 385 146 385 187 414 c 0,8,9
 210 430 210 430 238 454 c 128,-1,10
 266 478 266 478 287 509.5 c 128,-1,11
 308 541 308 541 308 580 c 0,12,13
 308 616 308 616 289 636 c 128,-1,14
 270 656 270 656 239 656 c 256,15,16
 208 656 208 656 189.5 635 c 128,-1,17
 171 614 171 614 171 576 c 0,18,19
 171 550 171 550 179.5 522 c 128,-1,20
 188 494 188 494 202.5 468 c 128,-1,21
 217 442 217 442 234 420 c 2,22,-1
 571 0 l 1,23,-1
 464 0 l 1,24,-1
 182 364 l 2,25,26
 160 393 160 393 138.5 427 c 128,-1,27
 117 461 117 461 103 499.5 c 128,-1,28
 89 538 89 538 89 578 c 0,29,30
 89 644 89 644 129 684.5 c 128,-1,31
 169 725 169 725 239 725 c 256,32,33
 309 725 309 725 349 684.5 c 128,-1,34
 389 644 389 644 389 580 c 0,35,36
 389 530 389 530 366 490 c 128,-1,37
 343 450 343 450 308 418.5 c 128,-1,38
 273 387 273 387 238 359 c 0,39,40
 209 336 209 336 180.5 310.5 c 128,-1,41
 152 285 152 285 133.5 253.5 c 128,-1,42
 115 222 115 222 115 181 c 0,43,44
 115 133 115 133 144 100 c 128,-1,45
 173 67 173 67 224 67 c 0,46,47
 261 67 261 67 293.5 84.5 c 128,-1,48
 326 102 326 102 353 132 c 128,-1,49
 380 162 380 162 400.5 198.5 c 128,-1,50
 421 235 421 235 434.5 274 c 128,-1,51
 448 313 448 313 454 349 c 1,52,-1
 537 349 l 1,53,54
 527 292 527 292 507.5 239 c 128,-1,55
 488 186 488 186 459 140.5 c 128,-1,56
 430 95 430 95 393 61.5 c 128,-1,57
 356 28 356 28 311 9 c 128,-1,58
 266 -10 266 -10 214 -10 c 0,0,1
EndSplineSet
EndChar

StartChar: at
Encoding: 64 64 68
Width: 600
GlyphClass: 1
Flags: W
LayerCount: 2
Fore
SplineSet
281.684570312 -23.400390625 m 4,0,1
 225.254882812 -23.400390625 225.254882812 -23.400390625 177.734375 0.9365234375 c 132,-1,2
 130.215820312 25.271484375 130.215820312 25.271484375 96.0595703125 69.576171875 c 132,-1,3
 61.9052734375 113.879882812 61.9052734375 113.879882812 43.095703125 176.903320312 c 132,-1,4
 24.2841796875 239.927734375 24.2841796875 239.927734375 24.2841796875 316.056640625 c 4,5,6
 24.2841796875 403.416015625 24.2841796875 403.416015625 46.0654296875 477.671875 c 132,-1,7
 67.845703125 551.927734375 67.845703125 551.927734375 106.950195312 607.463867188 c 132,-1,8
 146.0546875 663 146.0546875 663 199.020507812 694.200195312 c 132,-1,9
 251.984375 725.400390625 251.984375 725.400390625 313.365234375 725.400390625 c 260,10,11
 374.745117188 725.400390625 374.745117188 725.400390625 423.75 699.19140625 c 132,-1,12
 472.754882812 672.983398438 472.754882812 672.983398438 506.415039062 626.80859375 c 132,-1,13
 540.075195312 580.631835938 540.075195312 580.631835938 557.895507812 520.103515625 c 132,-1,14
 575.715820312 459.576171875 575.715820312 459.576171875 575.715820312 390.936523438 c 4,15,16
 575.715820312 341.016601562 575.715820312 341.016601562 565.3203125 297.959960938 c 132,-1,17
 554.924804688 254.903320312 554.924804688 254.903320312 536.609375 222.456054688 c 132,-1,18
 518.294921875 190.0078125 518.294921875 190.0078125 494.040039062 171.288085938 c 132,-1,19
 469.784179688 152.568359375 469.784179688 152.568359375 442.065429688 152.568359375 c 4,20,21
 420.284179688 152.568359375 420.284179688 152.568359375 407.415039062 163.176757812 c 132,-1,22
 394.544921875 173.783203125 394.544921875 173.783203125 387.120117188 186.263671875 c 132,-1,23
 379.6953125 198.743164062 379.6953125 198.743164062 374.745117188 209.3515625 c 132,-1,24
 369.794921875 219.959960938 369.794921875 219.959960938 365.834960938 219.959960938 c 260,25,26
 361.875 219.959960938 361.875 219.959960938 352.965820312 208.728515625 c 132,-1,27
 344.0546875 197.49609375 344.0546875 197.49609375 330.690429688 185.639648438 c 132,-1,28
 317.325195312 173.783203125 317.325195312 173.783203125 300 162.551757812 c 132,-1,29
 282.674804688 151.3203125 282.674804688 151.3203125 261.884765625 151.3203125 c 260,30,31
 240.104492188 151.3203125 240.104492188 151.3203125 221.790039062 163.799804688 c 132,-1,32
 203.474609375 176.280273438 203.474609375 176.280273438 190.604492188 198.120117188 c 132,-1,33
 177.734375 219.959960938 177.734375 219.959960938 169.815429688 248.6640625 c 132,-1,34
 161.895507812 277.368164062 161.895507812 277.368164062 161.895507812 311.063476562 c 4,35,36
 161.895507812 354.743164062 161.895507812 354.743164062 173.775390625 395.303710938 c 132,-1,37
 185.655273438 435.86328125 185.655273438 435.86328125 204.465820312 467.063476562 c 132,-1,38
 223.275390625 498.263671875 223.275390625 498.263671875 248.025390625 516.983398438 c 132,-1,39
 272.775390625 535.703125 272.775390625 535.703125 299.504882812 535.703125 c 4,40,41
 312.375 535.703125 312.375 535.703125 320.294921875 530.711914062 c 132,-1,42
 328.215820312 525.719726562 328.215820312 525.719726562 333.659179688 520.728515625 c 132,-1,43
 339.104492188 515.736328125 339.104492188 515.736328125 342.075195312 511.368164062 c 132,-1,44
 345.044921875 507 345.044921875 507 348.015625 507 c 260,45,46
 350.984375 507 350.984375 507 353.955078125 512.616210938 c 132,-1,47
 356.924804688 518.231445312 356.924804688 518.231445312 360.884765625 524.471679688 c 132,-1,48
 364.845703125 530.711914062 364.845703125 530.711914062 371.280273438 536.952148438 c 132,-1,49
 377.715820312 543.19140625 377.715820312 543.19140625 387.615234375 543.19140625 c 4,50,51
 409.395507812 543.19140625 409.395507812 543.19140625 417.315429688 518.856445312 c 132,-1,52
 425.234375 494.51953125 425.234375 494.51953125 426.720703125 462.072265625 c 132,-1,53
 428.205078125 429.624023438 428.205078125 429.624023438 426.224609375 396.551757812 c 132,-1,54
 424.245117188 363.48046875 424.245117188 363.48046875 424.245117188 348.50390625 c 4,55,56
 424.245117188 332.280273438 424.245117188 332.280273438 427.215820312 314.80859375 c 132,-1,57
 430.184570312 297.3359375 430.184570312 297.3359375 435.134765625 282.360351562 c 132,-1,58
 440.084960938 267.383789062 440.084960938 267.383789062 446.025390625 258.6484375 c 132,-1,59
 451.965820312 249.912109375 451.965820312 249.912109375 458.895507812 249.912109375 c 4,60,61
 470.775390625 249.912109375 470.775390625 249.912109375 481.169921875 280.48828125 c 132,-1,62
 491.565429688 311.063476562 491.565429688 311.063476562 491.565429688 362.231445312 c 4,63,64
 491.565429688 423.383789062 491.565429688 423.383789062 482.654296875 472.056640625 c 132,-1,65
 473.745117188 520.728515625 473.745117188 520.728515625 453.9453125 555.047851562 c 132,-1,66
 434.145507812 589.368164062 434.145507812 589.368164062 401.474609375 607.463867188 c 132,-1,67
 368.8046875 625.559570312 368.8046875 625.559570312 322.275390625 625.559570312 c 260,68,69
 275.745117188 625.559570312 275.745117188 625.559570312 236.640625 603.096679688 c 132,-1,70
 197.534179688 580.631835938 197.534179688 580.631835938 169.3203125 541.3203125 c 132,-1,71
 141.104492188 502.0078125 141.104492188 502.0078125 125.265625 448.34375 c 132,-1,72
 109.424804688 394.6796875 109.424804688 394.6796875 109.424804688 332.280273438 c 4,73,74
 109.424804688 276.120117188 109.424804688 276.120117188 123.284179688 228.696289062 c 132,-1,75
 137.145507812 181.271484375 137.145507812 181.271484375 161.400390625 146.952148438 c 132,-1,76
 185.655273438 112.631835938 185.655273438 112.631835938 218.325195312 93.2880859375 c 132,-1,77
 250.995117188 73.943359375 250.995117188 73.943359375 287.625 73.943359375 c 4,78,79
 314.354492188 73.943359375 314.354492188 73.943359375 341.084960938 82.056640625 c 132,-1,80
 367.815429688 90.16796875 367.815429688 90.16796875 392.0703125 100.776367188 c 132,-1,81
 416.325195312 111.383789062 416.325195312 111.383789062 438.104492188 119.49609375 c 132,-1,82
 459.884765625 127.608398438 459.884765625 127.608398438 476.715820312 127.608398438 c 4,83,84
 505.424804688 127.608398438 505.424804688 127.608398438 505.424804688 100.151367188 c 4,85,86
 505.424804688 78.9365234375 505.424804688 78.9365234375 485.625 56.4716796875 c 132,-1,87
 465.825195312 34.0078125 465.825195312 34.0078125 433.650390625 15.912109375 c 132,-1,88
 401.474609375 -2.18359375 401.474609375 -2.18359375 361.379882812 -12.7919921875 c 132,-1,89
 321.284179688 -23.400390625 321.284179688 -23.400390625 281.684570312 -23.400390625 c 4,0,1
198.525390625 379.703125 m 4,90,91
 202.484375 379.703125 202.484375 379.703125 207.434570312 392.80859375 c 132,-1,92
 212.384765625 405.912109375 212.384765625 405.912109375 214.365234375 408.408203125 c 4,93,94
 222.284179688 425.879882812 222.284179688 425.879882812 232.6796875 441.48046875 c 132,-1,95
 243.075195312 457.080078125 243.075195312 457.080078125 254.955078125 470.80859375 c 4,96,97
 259.904296875 477.047851562 259.904296875 477.047851562 253.965820312 477.047851562 c 4,98,99
 247.034179688 477.047851562 247.034179688 477.047851562 236.145507812 466.440429688 c 132,-1,100
 225.254882812 455.83203125 225.254882812 455.83203125 215.849609375 441.48046875 c 132,-1,101
 206.4453125 427.127929688 206.4453125 427.127929688 200.009765625 412.151367188 c 132,-1,102
 193.575195312 397.176757812 193.575195312 397.176757812 193.575195312 388.440429688 c 4,103,104
 193.575195312 385.943359375 193.575195312 385.943359375 195.059570312 382.823242188 c 132,-1,105
 196.544921875 379.703125 196.544921875 379.703125 198.525390625 379.703125 c 4,90,91
285.645507812 256.151367188 m 4,106,107
 295.544921875 256.151367188 295.544921875 256.151367188 306.434570312 268.0078125 c 132,-1,108
 317.325195312 279.86328125 317.325195312 279.86328125 326.729492188 297.3359375 c 132,-1,109
 336.134765625 314.80859375 336.134765625 314.80859375 341.580078125 337.896484375 c 132,-1,110
 347.025390625 360.983398438 347.025390625 360.983398438 347.025390625 384.696289062 c 4,111,112
 347.025390625 438.360351562 347.025390625 438.360351562 314.354492188 438.360351562 c 4,113,114
 301.484375 438.360351562 301.484375 438.360351562 288.120117188 429 c 132,-1,115
 274.754882812 419.639648438 274.754882812 419.639648438 264.359375 404.6640625 c 132,-1,116
 253.965820312 389.688476562 253.965820312 389.688476562 247.529296875 370.34375 c 132,-1,117
 241.095703125 351 241.095703125 351 241.095703125 331.032226562 c 4,118,119
 241.095703125 298.583984375 241.095703125 298.583984375 251.490234375 277.368164062 c 132,-1,120
 261.884765625 256.151367188 261.884765625 256.151367188 285.645507812 256.151367188 c 4,106,107
196.544921875 347.256835938 m 4,121,122
 196.544921875 355.9921875 196.544921875 355.9921875 191.595703125 358.48828125 c 4,123,124
 188.625 359.736328125 188.625 359.736328125 185.159179688 355.368164062 c 132,-1,125
 181.6953125 351 181.6953125 351 181.6953125 347.256835938 c 4,126,127
 181.6953125 342.263671875 181.6953125 342.263671875 184.169921875 337.896484375 c 132,-1,128
 186.645507812 333.528320312 186.645507812 333.528320312 189.615234375 333.528320312 c 260,129,130
 192.584960938 333.528320312 192.584960938 333.528320312 194.565429688 338.51953125 c 132,-1,131
 196.544921875 343.51171875 196.544921875 343.51171875 196.544921875 347.256835938 c 4,121,122
EndSplineSet
EndChar

StartChar: b
Encoding: 98 98 69
Width: 600
GlyphClass: 2
Flags: W
LayerCount: 2
Fore
SplineSet
585.5703125 564 m 5,0,-1
 528.5703125 564 l 5,1,-1
 528.5703125 0 l 5,2,-1
 433.950195312 0 l 5,3,-1
 433.950195312 202 l 5,4,-1
 462.450195312 176 l 5,5,6
 422.549804688 146 422.549804688 146 373.530273438 131 c 132,-1,7
 324.509765625 116 324.509765625 116 257.25 116 c 4,8,9
 147.809570312 116 147.809570312 116 83.400390625 165 c 132,-1,10
 18.990234375 214 18.990234375 214 18.990234375 295 c 4,11,12
 18.990234375 389 18.990234375 389 90.240234375 434 c 132,-1,13
 161.490234375 479 161.490234375 479 273.209960938 479 c 4,14,15
 308.549804688 479 308.549804688 479 337.620117188 476.5 c 132,-1,16
 366.690429688 474 366.690429688 474 392.91015625 469 c 5,17,-1
 386.0703125 398 l 5,18,19
 359.849609375 403 359.849609375 403 333.629882812 406 c 132,-1,20
 307.41015625 409 307.41015625 409 280.049804688 409 c 4,21,22
 201.389648438 409 201.389648438 409 157.5 381 c 132,-1,23
 113.610351562 353 113.610351562 353 113.610351562 295 c 4,24,25
 113.610351562 240 113.610351562 240 154.650390625 212.5 c 132,-1,26
 195.690429688 185 195.690429688 185 260.669921875 185 c 4,27,28
 301.709960938 185 301.709960938 185 337.049804688 196.5 c 132,-1,29
 372.389648438 208 372.389648438 208 401.459960938 227 c 132,-1,30
 430.530273438 246 430.530273438 246 448.76953125 266 c 5,31,-1
 433.950195312 221 l 5,32,-1
 433.950195312 564 l 5,33,-1
 14.4296875 564 l 5,34,-1
 14.4296875 637 l 5,35,-1
 585.5703125 637 l 5,36,-1
 585.5703125 564 l 5,0,-1
204.809570312 434 m 5,37,-1
 405.450195312 210 l 5,38,-1
 351.870117188 167 l 5,39,-1
 131.849609375 411 l 5,40,-1
 204.809570312 434 l 5,37,-1
EndSplineSet
EndChar

StartChar: c
Encoding: 99 99 70
Width: 600
VWidth: 1000
GlyphClass: 2
Flags: W
LayerCount: 2
Fore
SplineSet
424.259765625 17 m 0,0,1
 289.740234375 17 289.740234375 17 215.639648438 84 c 128,-1,2
 141.540039062 151 141.540039062 151 141.540039062 272 c 0,3,4
 141.540039062 352 141.540039062 352 174.599609375 407.5 c 128,-1,5
 207.66015625 463 207.66015625 463 269.219726562 492 c 1,6,-1
 9.2998046875 492 l 1,7,-1
 9.2998046875 564 l 1,8,-1
 590.700195312 564 l 1,9,-1
 590.700195312 492 l 1,10,-1
 474.419921875 492 l 2,11,12
 367.259765625 492 367.259765625 492 306.26953125 438.5 c 128,-1,13
 245.280273438 385 245.280273438 385 245.280273438 279 c 0,14,15
 245.280273438 192 245.280273438 192 294.299804688 141.5 c 128,-1,16
 343.3203125 91 343.3203125 91 434.51953125 91 c 0,17,18
 476.700195312 91 476.700195312 91 515.459960938 100.5 c 128,-1,19
 554.219726562 110 554.219726562 110 590.700195312 126 c 1,20,-1
 590.700195312 48 l 1,21,22
 557.639648438 32 557.639648438 32 517.740234375 24.5 c 128,-1,23
 477.83984375 17 477.83984375 17 424.259765625 17 c 0,0,1
EndSplineSet
EndChar

StartChar: d
Encoding: 100 100 71
Width: 600
GlyphClass: 2
Flags: W
LayerCount: 2
Fore
SplineSet
371.400390625 227 m 4,0,1
 334.200195312 227 334.200195312 227 297 221 c 132,-1,2
 259.799804688 215 259.799804688 215 231 204 c 5,3,4
 179.400390625 232 179.400390625 232 138 269 c 132,-1,5
 96.599609375 306 96.599609375 306 96.599609375 356 c 4,6,7
 96.599609375 415 96.599609375 415 143.400390625 445 c 132,-1,8
 190.200195312 475 190.200195312 475 287.400390625 475 c 6,9,-1
 432.599609375 475 l 5,10,-1
 432.599609375 564 l 5,11,-1
 30.599609375 564 l 5,12,-1
 30.599609375 637 l 5,13,-1
 592.200195312 637 l 5,14,-1
 592.200195312 564 l 5,15,-1
 532.200195312 564 l 5,16,-1
 532.200195312 403 l 5,17,-1
 288.599609375 403 l 6,18,19
 239.400390625 403 239.400390625 403 217.200195312 390 c 132,-1,20
 195 377 195 377 195 350 c 4,21,22
 195 331 195 331 210.599609375 313 c 132,-1,23
 226.200195312 295 226.200195312 295 246.599609375 283 c 5,24,25
 276.599609375 291 276.599609375 291 310.799804688 296 c 132,-1,26
 345 301 345 301 381 301 c 4,27,28
 480.599609375 301 480.599609375 301 532.799804688 262.5 c 132,-1,29
 585 224 585 224 585 158 c 4,30,31
 585 113 585 113 559.799804688 77 c 132,-1,32
 534.599609375 41 534.599609375 41 481.799804688 20.5 c 132,-1,33
 429 0 429 0 345 0 c 4,34,35
 239.400390625 0 239.400390625 0 156.599609375 34.5 c 132,-1,36
 73.7998046875 69 73.7998046875 69 7.7998046875 122 c 5,37,-1
 70.2001953125 189 l 5,38,39
 135 133 135 133 201.599609375 104.5 c 132,-1,40
 268.200195312 76 268.200195312 76 342.599609375 76 c 4,41,42
 414.599609375 76 414.599609375 76 450 96.5 c 132,-1,43
 485.400390625 117 485.400390625 117 485.400390625 155 c 4,44,45
 485.400390625 189 485.400390625 189 459 208 c 132,-1,46
 432.599609375 227 432.599609375 227 371.400390625 227 c 4,0,1
EndSplineSet
EndChar

StartChar: dollar
Encoding: 36 36 72
Width: 600
VWidth: 1000
GlyphClass: 1
Flags: W
LayerCount: 2
Fore
SplineSet
376.677734375 739.662109375 m 260,0,1
 408.081054688 735.099609375 408.081054688 735.099609375 417.666992188 714.4296875 c 132,-1,2
 427.275390625 693.711914062 427.275390625 693.711914062 423.665039062 676.018554688 c 6,3,-1
 288.918945312 15.8212890625 l 6,4,5
 285.729492188 0.05078125 285.729492188 0.05078125 271.125 -10.0029296875 c 132,-1,6
 256.51953125 -20.0556640625 256.51953125 -20.0556640625 233.259765625 -16.6767578125 c 4,7,8
 223.956054688 -15.3251953125 223.956054688 -15.3251953125 209.267578125 -5.07421875 c 4,9,10
 192.454101562 6.5 192.454101562 6.5 195.842773438 23.2548828125 c 6,11,-1
 329.625976562 684.607421875 l 6,12,13
 334.01171875 706.291015625 334.01171875 706.291015625 339.64453125 725.2578125 c 132,-1,14
 345.276367188 744.223632812 345.276367188 744.223632812 376.677734375 739.662109375 c 260,0,1
260.109375 33.1962890625 m 4,15,16
 257.915039062 22.3544921875 257.915039062 22.3544921875 253.513671875 15.384765625 c 132,-1,17
 249.110351562 8.4150390625 249.110351562 8.4150390625 246.467773438 4.232421875 c 132,-1,18
 243.827148438 0.05078125 243.827148438 0.05078125 243.427734375 -1.919921875 c 132,-1,19
 243.029296875 -3.8916015625 243.029296875 -3.8916015625 248.84375 -4.736328125 c 4,20,21
 255.822265625 -5.75 255.822265625 -5.75 260.989257812 -0.9208984375 c 132,-1,22
 266.157226562 3.9091796875 266.157226562 3.9091796875 269.977539062 10.962890625 c 132,-1,23
 273.798828125 18.017578125 273.798828125 18.017578125 275.876953125 25.3251953125 c 132,-1,24
 277.953125 32.6328125 277.953125 32.6328125 278.950195312 37.560546875 c 4,25,26
 281.541992188 50.3740234375 281.541992188 50.3740234375 280.146484375 61.2294921875 c 132,-1,27
 278.750976562 72.0859375 278.750976562 72.0859375 271.772460938 73.099609375 c 4,28,29
 268.283203125 73.6064453125 268.283203125 73.6064453125 266.8046875 69.255859375 c 132,-1,30
 265.326171875 64.9052734375 265.326171875 64.9052734375 263.930664062 58.005859375 c 132,-1,31
 262.53515625 51.1064453125 262.53515625 51.1064453125 261.720703125 44.1220703125 c 132,-1,32
 260.90625 37.138671875 260.90625 37.138671875 260.109375 33.1962890625 c 4,15,16
275.219726562 81 m 4,33,34
 216.219726562 81 216.219726562 81 162.530273438 90 c 132,-1,35
 108.83984375 99 108.83984375 99 69.900390625 115 c 5,36,-1
 69.900390625 198 l 5,37,38
 111.200195312 182 111.200195312 182 161.349609375 168.5 c 132,-1,39
 211.5 155 211.5 155 281.120117188 155 c 4,40,41
 359 155 359 155 391.450195312 175.5 c 132,-1,42
 423.900390625 196 423.900390625 196 423.900390625 235 c 4,43,44
 423.900390625 256 423.900390625 256 412.690429688 269.5 c 132,-1,45
 401.48046875 283 401.48046875 283 369.620117188 297 c 132,-1,46
 337.759765625 311 337.759765625 311 276.400390625 333 c 4,47,48
 215.040039062 356 215.040039062 356 171.379882812 376 c 132,-1,49
 127.719726562 396 127.719726562 396 104.120117188 423.5 c 132,-1,50
 80.51953125 451 80.51953125 451 80.51953125 494 c 4,51,52
 80.51953125 542 80.51953125 542 109.4296875 573.5 c 132,-1,53
 138.33984375 605 138.33984375 605 193.209960938 621 c 132,-1,54
 248.080078125 637 248.080078125 637 323.599609375 637 c 4,55,56
 375.51953125 637 375.51953125 637 422.719726562 629 c 132,-1,57
 469.919921875 621 469.919921875 621 520.66015625 603 c 5,58,-1
 488.799804688 533 l 5,59,60
 441.599609375 550 441.599609375 550 402.0703125 556 c 132,-1,61
 362.540039062 562 362.540039062 562 323.599609375 562 c 4,62,63
 250.440429688 562 250.440429688 562 216.809570312 546 c 132,-1,64
 183.1796875 530 183.1796875 530 183.1796875 496 c 4,65,66
 183.1796875 474 183.1796875 474 197.9296875 459 c 132,-1,67
 212.6796875 444 212.6796875 444 246.309570312 430 c 132,-1,68
 279.940429688 416 279.940429688 416 335.400390625 396 c 4,69,70
 397.940429688 374 397.940429688 374 441.599609375 355 c 132,-1,71
 485.259765625 336 485.259765625 336 507.6796875 309.5 c 132,-1,72
 530.099609375 283 530.099609375 283 530.099609375 237 c 4,73,74
 530.099609375 186 530.099609375 186 501.190429688 151.5 c 132,-1,75
 472.280273438 117 472.280273438 117 415.639648438 99 c 132,-1,76
 359 81 359 81 275.219726562 81 c 4,33,34
EndSplineSet
EndChar

StartChar: e
Encoding: 101 101 73
Width: 600
VWidth: 1000
GlyphClass: 2
Flags: W
LayerCount: 2
Fore
SplineSet
344.400390625 3.759765625 m 4,0,1
 241.200195312 3.759765625 241.200195312 3.759765625 166.799804688 38.3203125 c 132,-1,2
 92.400390625 72.8798828125 92.400390625 72.8798828125 52.2001953125 139.299804688 c 132,-1,3
 12 205.719726562 12 205.719726562 12 301.83984375 c 4,4,5
 12 396.879882812 12 396.879882812 50.400390625 464.379882812 c 132,-1,6
 88.7998046875 531.879882812 88.7998046875 531.879882812 157.200195312 568.059570312 c 132,-1,7
 225.599609375 604.240234375 225.599609375 604.240234375 316.799804688 604.240234375 c 4,8,9
 400.799804688 604.240234375 400.799804688 604.240234375 461.400390625 570.759765625 c 132,-1,10
 522 537.280273438 522 537.280273438 555 476.259765625 c 132,-1,11
 588 415.240234375 588 415.240234375 588 329.919921875 c 6,12,-1
 588 285.639648438 l 5,13,-1
 121.200195312 285.639648438 l 5,14,15
 123.599609375 210.040039062 123.599609375 210.040039062 153 165.759765625 c 132,-1,16
 182.400390625 121.48046875 182.400390625 121.48046875 233.400390625 102.580078125 c 132,-1,17
 284.400390625 83.6796875 284.400390625 83.6796875 351.599609375 83.6796875 c 4,18,19
 404.400390625 83.6796875 404.400390625 83.6796875 456 96.6396484375 c 132,-1,20
 507.599609375 109.599609375 507.599609375 109.599609375 559.200195312 131.200195312 c 5,21,-1
 559.200195312 44.7998046875 l 5,22,23
 504 23.2001953125 504 23.2001953125 448.799804688 13.48046875 c 132,-1,24
 393.599609375 3.759765625 393.599609375 3.759765625 344.400390625 3.759765625 c 4,0,1
480 363.400390625 m 5,25,26
 477.599609375 414.16015625 477.599609375 414.16015625 458.400390625 450.33984375 c 132,-1,27
 439.200195312 486.51953125 439.200195312 486.51953125 403.799804688 505.959960938 c 132,-1,28
 368.400390625 525.400390625 368.400390625 525.400390625 316.799804688 525.400390625 c 4,29,30
 236.400390625 525.400390625 236.400390625 525.400390625 186.599609375 481.66015625 c 132,-1,31
 136.799804688 437.919921875 136.799804688 437.919921875 123.599609375 363.400390625 c 5,32,-1
 480 363.400390625 l 5,25,26
EndSplineSet
EndChar

StartChar: f
Encoding: 102 102 74
Width: 600
GlyphClass: 2
Flags: W
LayerCount: 2
Fore
SplineSet
364 564 m 5,0,-1
 364 321 l 5,1,-1
 349.599609375 349 l 5,2,3
 372.799804688 379 372.799804688 379 399.200195312 394 c 132,-1,4
 425.599609375 409 425.599609375 409 458.400390625 409 c 4,5,6
 516.799804688 409 516.799804688 409 550 366.5 c 132,-1,7
 583.200195312 324 583.200195312 324 583.200195312 245 c 4,8,9
 583.200195312 191 583.200195312 191 566.400390625 141.5 c 132,-1,10
 549.599609375 92 549.599609375 92 513.599609375 42 c 5,11,-1
 457.599609375 87 l 5,12,13
 484.799804688 123 484.799804688 123 501.599609375 162.5 c 132,-1,14
 518.400390625 202 518.400390625 202 518.400390625 245 c 4,15,16
 518.400390625 291 518.400390625 291 501.599609375 314.5 c 132,-1,17
 484.799804688 338 484.799804688 338 455.200195312 338 c 4,18,19
 424.799804688 338 424.799804688 338 400.799804688 317.5 c 132,-1,20
 376.799804688 297 376.799804688 297 359.200195312 263 c 5,21,-1
 364 300 l 5,22,-1
 364 0 l 5,23,-1
 297.599609375 0 l 5,24,-1
 297.599609375 244 l 5,25,-1
 310.400390625 220 l 5,26,27
 290.400390625 194 290.400390625 194 260.400390625 179 c 132,-1,28
 230.400390625 164 230.400390625 164 194.400390625 164 c 4,29,30
 144 164 144 164 112.400390625 188.5 c 132,-1,31
 80.7998046875 213 80.7998046875 213 66.400390625 258.5 c 132,-1,32
 52 304 52 304 52 369 c 6,33,-1
 52 564 l 5,34,-1
 16.7998046875 564 l 5,35,-1
 16.7998046875 637 l 5,36,-1
 573.599609375 637 l 5,37,-1
 573.599609375 564 l 5,38,-1
 364 564 l 5,0,-1
118.400390625 564 m 5,39,-1
 118.400390625 371 l 6,40,41
 118.400390625 320 118.400390625 320 127.200195312 290.5 c 132,-1,42
 136 261 136 261 153.599609375 249 c 132,-1,43
 171.200195312 237 171.200195312 237 196.799804688 237 c 4,44,45
 228.799804688 237 228.799804688 237 259.599609375 259.5 c 132,-1,46
 290.400390625 282 290.400390625 282 312.799804688 313 c 5,47,-1
 297.599609375 258 l 5,48,-1
 297.599609375 564 l 5,49,-1
 118.400390625 564 l 5,39,-1
EndSplineSet
EndChar

StartChar: g
Encoding: 103 103 75
Width: 600
VWidth: 1000
GlyphClass: 2
Flags: W
LayerCount: 2
Fore
SplineSet
298.650390625 1 m 0,0,1
 216.786132812 1 216.786132812 1 164.513671875 34 c 0,2,3
 112.026367188 67 112.026367188 67 82.21875 117 c 0,4,5
 52.6259765625 167 52.6259765625 167 41.3935546875 225 c 0,6,7
 29.9462890625 283 29.9462890625 283 30.37890625 334 c 0,8,9
 29.9462890625 390 29.9462890625 390 47.8740234375 443.5 c 0,10,11
 65.5859375 497 65.5859375 497 102.306640625 538.5 c 128,-1,12
 139.026367188 580 139.026367188 580 198.209960938 605.5 c 0,13,14
 256.74609375 631 256.74609375 631 340.122070312 631 c 0,15,16
 375.545898438 631 375.545898438 631 413.346679688 625 c 128,-1,17
 451.146484375 619 451.146484375 619 483.330078125 602.5 c 0,18,19
 514.866210938 586 514.866210938 586 536.465820312 558 c 128,-1,20
 558.06640625 530 558.06640625 530 557.849609375 486 c 0,21,22
 558.06640625 470 558.06640625 470 549.426757812 460.5 c 128,-1,23
 540.786132812 451 540.786132812 451 528.690429688 445.5 c 0,24,25
 515.946289062 440 515.946289062 440 503.418945312 438.5 c 0,26,27
 490.026367188 437 490.026367188 437 482.682617188 437 c 0,28,29
 464.106445312 437 464.106445312 437 448.338867188 447 c 0,30,31
 431.706054688 457 431.706054688 457 432.138671875 486 c 0,32,33
 431.706054688 509 431.706054688 509 421.770507812 521 c 0,34,35
 411.186523438 533 411.186523438 533 397.146484375 538.5 c 128,-1,36
 383.106445312 544 383.106445312 544 369.282226562 545 c 0,37,38
 356.106445312 546 356.106445312 546 347.8984375 546 c 0,39,40
 313.986328125 546 313.986328125 546 269.706054688 531.5 c 0,41,42
 227.984375 517.837890625 227.984375 517.837890625 201.990234375 488 c 0,43,44
 162.786132812 443 162.786132812 443 155.009765625 415 c 0,45,46
 139.026367188 361 139.026367188 361 142.049804688 320 c 0,47,48
 146.5859375 263 146.5859375 263 146.5859375 251 c 0,49,50
 146.5859375 248 146.5859375 248 180.173828125 175 c 0,51,52
 196.266601562 139 196.266601562 139 238.38671875 113.5 c 128,-1,53
 280.505859375 88 280.505859375 88 327.162109375 88 c 0,54,55
 357.186523438 88 357.186523438 88 379.002929688 103 c 0,56,57
 401.465820312 118 401.465820312 118 415.938476562 140 c 0,58,59
 430.625976562 162 430.625976562 162 438.619140625 186.5 c 0,60,61
 446.826171875 211 446.826171875 211 445.098632812 230 c 0,62,63
 443.5859375 246 443.5859375 246 419.826171875 247.5 c 128,-1,64
 396.06640625 249 396.06640625 249 366.04296875 249 c 2,65,-1
 285.690429688 249 l 2,66,67
 278.346679688 249 278.346679688 249 271.43359375 255 c 0,68,69
 265.38671875 261 265.38671875 261 261.06640625 269.5 c 128,-1,70
 256.74609375 278 256.74609375 278 254.5859375 287 c 128,-1,71
 252.426757812 296 252.426757812 296 251.994140625 302 c 0,72,73
 252.426757812 318 252.426757812 318 265.602539062 330.5 c 0,74,75
 279.626953125 343.181640625 279.626953125 343.181640625 309.018554688 343 c 2,76,-1
 471.018554688 342 l 2,77,78
 487.866210938 342 487.866210938 342 505.362304688 336.5 c 0,79,80
 522.426757812 331 522.426757812 331 536.465820312 320.5 c 128,-1,81
 550.505859375 310 550.505859375 310 559.146484375 293.5 c 128,-1,82
 567.786132812 277 567.786132812 277 568.21875 254 c 0,83,84
 567.786132812 219 567.786132812 219 568.866210938 189 c 128,-1,85
 569.946289062 159 569.946289062 159 569.513671875 115 c 0,86,87
 569.946289062 81 569.946289062 81 566.2734375 60 c 0,88,89
 563.465820312 39 563.465820312 39 555.258789062 27 c 0,90,91
 547.266601562 15 547.266601562 15 536.465820312 10.5 c 128,-1,92
 525.666015625 6 525.666015625 6 509.8984375 6 c 0,93,94
 487.866210938 6 487.866210938 6 477.499023438 18.5 c 0,95,96
 467.346679688 31 467.346679688 31 462.59375 46 c 0,97,98
 457.625976562 61 457.625976562 61 456.762695312 73.5 c 0,99,100
 455.465820312 86 455.465820312 86 451.579101562 86 c 256,101,102
 447.90625 86 447.90625 86 439.9140625 72.5 c 0,103,104
 431.706054688 59 431.706054688 59 415.290039062 43.5 c 0,105,106
 398.2265625 28 398.2265625 28 371.2265625 14.5 c 128,-1,107
 344.2265625 1 344.2265625 1 298.650390625 1 c 0,0,1
175.530273438 82 m 0,108,109
 175.530273438 87 175.530273438 87 154.793945312 110 c 0,110,111
 145.72265625 121 145.72265625 121 136.650390625 135.5 c 128,-1,112
 127.579101562 150 127.579101562 150 121.098632812 164 c 128,-1,113
 114.619140625 178 114.619140625 178 110.73046875 190 c 128,-1,114
 106.842773438 202 106.842773438 202 108.138671875 206 c 0,115,116
 109.43359375 211 109.43359375 211 105.545898438 213.5 c 128,-1,117
 101.659179688 216 101.659179688 216 100.362304688 216 c 0,118,119
 89.994140625 216 89.994140625 216 87.40234375 205 c 256,120,121
 84.810546875 194 84.810546875 194 91.9384765625 173 c 128,-1,122
 99.06640625 152 99.06640625 152 111.37890625 131 c 128,-1,123
 123.690429688 110 123.690429688 110 138.59375 94 c 128,-1,124
 153.499023438 78 153.499023438 78 165.162109375 77 c 0,125,126
 174.233398438 75 174.233398438 75 175.530273438 82 c 0,108,109
516.37890625 31 m 0,127,128
 516.37890625 39 516.37890625 39 506.009765625 44.5 c 128,-1,129
 495.642578125 50 495.642578125 50 494.346679688 62 c 0,130,131
 494.346679688 65 494.346679688 65 493.698242188 73 c 128,-1,132
 493.049804688 81 493.049804688 81 486.5703125 81 c 256,133,134
 480.08984375 81 480.08984375 81 478.793945312 74.5 c 128,-1,135
 477.499023438 68 477.499023438 68 477.499023438 63 c 256,136,137
 477.499023438 58 477.499023438 58 479.442382812 50.5 c 128,-1,138
 481.38671875 43 481.38671875 43 485.2734375 36.5 c 128,-1,139
 489.162109375 30 489.162109375 30 494.346679688 25 c 128,-1,140
 499.530273438 20 499.530273438 20 506.009765625 20 c 256,141,142
 512.490234375 20 512.490234375 20 514.43359375 24 c 128,-1,143
 516.37890625 28 516.37890625 28 516.37890625 31 c 0,127,128
201.450195312 65 m 0,144,145
 202.74609375 68 202.74609375 68 199.505859375 70.5 c 128,-1,146
 196.266601562 73 196.266601562 73 193.673828125 73 c 0,147,148
 188.490234375 74 188.490234375 74 186.545898438 71 c 128,-1,149
 184.602539062 68 184.602539062 68 183.306640625 66 c 0,150,151
 182.009765625 61 182.009765625 61 185.25 59.5 c 128,-1,152
 188.490234375 58 188.490234375 58 191.08203125 58 c 0,153,154
 198.858398438 58 198.858398438 58 201.450195312 65 c 0,144,145
EndSplineSet
EndChar

StartChar: grave
Encoding: 96 96 76
Width: 600
GlyphClass: 1
Flags: W
LayerCount: 2
Fore
SplineSet
304.799804688 792.150390625 m 5,0,1
 318 766.849609375 318 766.849609375 339 736.599609375 c 132,-1,2
 360 706.349609375 360 706.349609375 382.200195312 676.650390625 c 132,-1,3
 404.400390625 646.950195312 404.400390625 646.950195312 423.599609375 626.049804688 c 5,4,-1
 423.599609375 612.849609375 l 5,5,-1
 350.400390625 612.849609375 l 5,6,7
 330 628.25 330 628.25 304.200195312 650.25 c 132,-1,8
 278.400390625 672.25 278.400390625 672.25 253.200195312 696.450195312 c 132,-1,9
 228 720.650390625 228 720.650390625 207.599609375 743.200195312 c 132,-1,10
 187.200195312 765.75 187.200195312 765.75 176.400390625 781.150390625 c 5,11,-1
 176.400390625 792.150390625 l 5,12,-1
 304.799804688 792.150390625 l 5,0,1
EndSplineSet
EndChar

StartChar: h
Encoding: 104 104 77
Width: 600
VWidth: 1000
GlyphClass: 2
Flags: W
LayerCount: 2
Fore
SplineSet
77.5 0 m 1,0,-1
 77.5 646 l 5,1,-1
 167.5 646 l 5,2,-1
 167.5 400 l 2,3,4
 167.803468208 378.150289017 167.803468208 378.150289017 166 352 c 0,5,6
 164 323 164 323 163.5 306 c 1,7,-1
 168.5 306 l 1,8,9
 186 339 186 339 211 360 c 128,-1,10
 236 381 236 381 268.5 391.5 c 0,11,12
 300 402 300 402 336.5 402 c 0,13,14
 420 402 420 402 471 355.5 c 0,15,16
 522.5 308.544117647 522.5 308.544117647 522.5 206 c 2,17,-1
 522.5 0 l 1,18,-1
 432.5 0 l 1,19,-1
 432.5 188 l 2,20,21
 432 261 432 261 401.5 295 c 0,22,23
 370 329 370 329 313.5 329 c 0,24,25
 270 329 270 329 236.5 306 c 0,26,27
 193 276 193 276 185.5 239.5 c 0,28,29
 167.5 141.271428571 167.5 141.271428571 167.5 134 c 2,30,-1
 167.5 0 l 1,31,-1
 77.5 0 l 1,0,-1
EndSplineSet
EndChar

StartChar: i
Encoding: 105 105 78
Width: 600
VWidth: 1000
GlyphClass: 2
Flags: W
LayerCount: 2
Fore
SplineSet
230.5 576 m 0,0,1
 190.5 576 190.5 576 162 604 c 128,-1,2
 133.5 632 133.5 632 133.5 676 c 0,3,4
 133.5 700 133.5 700 142 721.5 c 128,-1,5
 150.5 743 150.5 743 165.5 758.5 c 128,-1,6
 180.5 774 180.5 774 201.5 783.5 c 128,-1,7
 222.5 793 222.5 793 247.5 793 c 0,8,9
 267.5 793 267.5 793 284.5 784.5 c 128,-1,10
 301.5 776 301.5 776 313.5 761 c 128,-1,11
 325.5 746 325.5 746 332 727 c 128,-1,12
 338.5 708 338.5 708 338.5 687 c 0,13,14
 338.5 660 338.5 660 330 639.5 c 128,-1,15
 321.5 619 321.5 619 306.5 605 c 128,-1,16
 291.5 591 291.5 591 272 583.5 c 128,-1,17
 252.5 576 252.5 576 230.5 576 c 0,0,1
193.5 749 m 0,18,19
 200.5 756 200.5 756 202 761 c 128,-1,20
 203.5 766 203.5 766 201.5 766 c 0,21,22
 193.5 766 193.5 766 184.5 758.5 c 128,-1,23
 175.5 751 175.5 751 168 740.5 c 128,-1,24
 160.5 730 160.5 730 155.5 718 c 128,-1,25
 150.5 706 150.5 706 150.5 696 c 0,26,27
 150.5 694 150.5 694 152 688 c 128,-1,28
 153.5 682 153.5 682 156.5 682 c 0,29,30
 160.5 682 160.5 682 166.5 704 c 0,31,32
 169.5 718 169.5 718 177.5 729.5 c 128,-1,33
 185.5 741 185.5 741 193.5 749 c 0,18,19
234.5 633 m 0,34,35
 246.5 633 246.5 633 263 647 c 128,-1,36
 279.5 661 279.5 661 279.5 687 c 0,37,38
 279.5 707 279.5 707 269 720.5 c 128,-1,39
 258.5 734 258.5 734 241.5 734 c 256,40,41
 224.5 734 224.5 734 210.5 720.5 c 128,-1,42
 196.5 707 196.5 707 196.5 683 c 256,43,44
 196.5 659 196.5 659 207.5 646 c 128,-1,45
 218.5 633 218.5 633 234.5 633 c 0,34,35
47 0 m 5,46,-1
 47 60 l 5,47,-1
 257.099609375 75 l 5,48,-1
 257.099609375 461 l 5,49,-1
 64.599609375 474 l 5,50,-1
 64.599609375 536 l 5,51,-1
 356.099609375 536 l 5,52,-1
 356.099609375 75 l 5,53,-1
 553 60 l 5,54,-1
 553 0 l 5,55,-1
 47 0 l 5,46,-1
EndSplineSet
EndChar

StartChar: j
Encoding: 106 106 79
Width: 600
VWidth: 1000
GlyphClass: 2
Flags: W
LayerCount: 2
Fore
SplineSet
538.799804688 551 m 5,0,-1
 538.799804688 0 l 5,1,-1
 441.599609375 0 l 5,2,-1
 441.599609375 328 l 5,3,-1
 274.799804688 328 l 6,4,5
 199.200195312 328 199.200195312 328 156 306 c 132,-1,6
 112.799804688 284 112.799804688 284 112.799804688 231 c 4,7,8
 112.799804688 182 112.799804688 182 150 138 c 132,-1,9
 187.200195312 94 187.200195312 94 259.200195312 37 c 5,10,-1
 190.799804688 -14 l 5,11,12
 106.799804688 54 106.799804688 54 61.2001953125 114 c 132,-1,13
 15.599609375 174 15.599609375 174 15.599609375 241 c 4,14,15
 15.599609375 322 15.599609375 322 81.599609375 360.5 c 132,-1,16
 147.599609375 399 147.599609375 399 258 399 c 6,17,-1
 441.599609375 399 l 5,18,-1
 441.599609375 551 l 5,19,-1
 49.2001953125 551 l 5,20,-1
 49.2001953125 622 l 5,21,-1
 584.400390625 622 l 5,22,-1
 584.400390625 551 l 5,23,-1
 538.799804688 551 l 5,0,-1
EndSplineSet
EndChar

StartChar: k
Encoding: 107 107 80
Width: 600
GlyphClass: 2
Flags: W
LayerCount: 2
Fore
SplineSet
567.959960938 521.341796875 m 1,0,-1
 362.16015625 521.341796875 l 1,1,-1
 362.16015625 315.290039062 l 1,2,-1
 350.400390625 324.529296875 l 1,3,4
 367.200195312 348.553710938 367.200195312 348.553710938 396.599609375 363.799804688 c 128,-1,5
 426 379.046875 426 379.046875 462.959960938 379.046875 c 0,6,7
 524.280273438 379.046875 524.280273438 379.046875 558.299804688 338.390625 c 128,-1,8
 592.3203125 297.734375 592.3203125 297.734375 592.3203125 227.509765625 c 0,9,10
 592.3203125 178.538085938 592.3203125 178.538085938 575.099609375 132.337890625 c 128,-1,11
 557.879882812 86.1376953125 557.879882812 86.1376953125 520.080078125 39.9384765625 c 1,12,-1
 460.440429688 81.517578125 l 1,13,14
 489 113.858398438 489 113.858398438 506.639648438 149.431640625 c 128,-1,15
 524.280273438 185.005859375 524.280273438 185.005859375 524.280273438 228.434570312 c 0,16,17
 524.280273438 270.014648438 524.280273438 270.014648438 505.799804688 291.265625 c 128,-1,18
 487.3203125 312.517578125 487.3203125 312.517578125 455.400390625 312.517578125 c 0,19,20
 426.83984375 312.517578125 426.83984375 312.517578125 401.219726562 292.190429688 c 128,-1,21
 375.599609375 271.862304688 375.599609375 271.862304688 359.639648438 236.75 c 1,22,-1
 362.16015625 271.862304688 l 1,23,-1
 362.16015625 0.2060546875 l 1,24,-1
 292.440429688 0.2060546875 l 1,25,-1
 292.440429688 198.865234375 l 1,26,-1
 304.200195312 172.994140625 l 1,27,28
 288.240234375 155.438476562 288.240234375 155.438476562 268.080078125 141.115234375 c 128,-1,29
 247.919921875 126.793945312 247.919921875 126.793945312 222.719726562 119.40234375 c 128,-1,30
 197.51953125 112.009765625 197.51953125 112.009765625 168.959960938 112.009765625 c 0,31,32
 125.280273438 112.009765625 125.280273438 112.009765625 88.3203125 130.490234375 c 128,-1,33
 51.3603515625 148.970703125 51.3603515625 148.970703125 29.51953125 185.467773438 c 128,-1,34
 7.6796875 221.965820312 7.6796875 221.965820312 7.6796875 275.55859375 c 0,35,36
 7.6796875 353.173828125 7.6796875 353.173828125 54.7197265625 396.140625 c 128,-1,37
 101.759765625 439.10546875 101.759765625 439.10546875 184.919921875 439.10546875 c 0,38,39
 207.599609375 439.10546875 207.599609375 439.10546875 226.919921875 436.796875 c 128,-1,40
 246.240234375 434.485351562 246.240234375 434.485351562 262.200195312 429.865234375 c 1,41,-1
 256.3203125 360.565429688 l 1,42,43
 242.040039062 365.185546875 242.040039062 365.185546875 224.400390625 367.49609375 c 128,-1,44
 206.759765625 369.805664062 206.759765625 369.805664062 186.599609375 369.805664062 c 0,45,46
 134.51953125 369.805664062 134.51953125 369.805664062 105.959960938 344.858398438 c 128,-1,47
 77.400390625 319.909179688 77.400390625 319.909179688 77.400390625 272.786132812 c 0,48,49
 77.400390625 226.5859375 77.400390625 226.5859375 103.860351562 203.485351562 c 128,-1,50
 130.3203125 180.385742188 130.3203125 180.385742188 168.959960938 180.385742188 c 0,51,52
 210.120117188 180.385742188 210.120117188 180.385742188 243.719726562 203.485351562 c 128,-1,53
 277.3203125 226.5859375 277.3203125 226.5859375 295.799804688 258.92578125 c 1,54,-1
 292.440429688 211.802734375 l 1,55,-1
 292.440429688 521.341796875 l 1,56,-1
 15.240234375 521.341796875 l 1,57,-1
 15.240234375 588.793945312 l 1,58,-1
 567.959960938 588.793945312 l 1,59,-1
 567.959960938 521.341796875 l 1,0,-1
EndSplineSet
EndChar

StartChar: l
Encoding: 108 108 81
Width: 600
GlyphClass: 2
Flags: W
LayerCount: 2
Fore
SplineSet
41.5 564 m 1,0,-1
 41.5 637 l 1,1,-1
 595.5 637 l 1,2,-1
 595.5 564 l 1,3,-1
 561.5 564 l 1,4,-1
 561.5 0 l 1,5,-1
 478.5 0 l 1,6,-1
 478.5 388 l 1,7,-1
 523.5 355 l 1,8,9
 507.5 362 507.5 362 493 364.5 c 128,-1,10
 478.5 367 478.5 367 466.5 367 c 0,11,12
 431.5 367 431.5 367 404 351 c 128,-1,13
 376.5 335 376.5 335 357.5 298 c 128,-1,14
 338.5 261 338.5 261 327.5 198 c 1,15,-1
 245.5 222 l 1,16,17
 259.5 330 259.5 330 316.5 384 c 128,-1,18
 373.5 438 373.5 438 466.5 438 c 0,19,20
 486.5 438 486.5 438 504 435 c 128,-1,21
 521.5 432 521.5 432 533.5 428 c 1,22,-1
 537.5 406 l 1,23,-1
 478.5 425 l 1,24,-1
 478.5 564 l 1,25,-1
 41.5 564 l 1,0,-1
298.5 311 m 1,26,27
 281.5 336 281.5 336 254.5 351.5 c 128,-1,28
 227.5 367 227.5 367 190.5 367 c 0,29,30
 142.5 367 142.5 367 115 337.5 c 128,-1,31
 87.5 308 87.5 308 87.5 260 c 0,32,33
 87.5 202 87.5 202 130.5 152.5 c 128,-1,34
 173.5 103 173.5 103 267.5 49 c 1,35,-1
 219.5 -14 l 1,36,37
 119.5 45 119.5 45 62 113 c 128,-1,38
 4.5 181 4.5 181 4.5 268 c 0,39,40
 4.5 353 4.5 353 54.5 396.5 c 128,-1,41
 104.5 440 104.5 440 182.5 440 c 0,42,43
 233.5 440 233.5 440 271.5 421 c 128,-1,44
 309.5 402 309.5 402 337.5 372 c 1,45,-1
 298.5 311 l 1,26,27
EndSplineSet
EndChar

StartChar: m
Encoding: 109 109 82
Width: 600
GlyphClass: 2
Flags: W
LayerCount: 2
Fore
SplineSet
506.5 564 m 5,0,-1
 506.5 0 l 5,1,-1
 423.5 0 l 5,2,-1
 423.5 256 l 5,3,-1
 219.5 256 l 1,4,-1
 219.5 218 l 2,5,6
 219 184 219 184 204.5 169.5 c 0,7,8
 189 155 189 155 170.5 155 c 256,9,10
 151 155 151 155 129.5 167.5 c 0,11,12
 107 180 107 180 89 200 c 128,-1,13
 71 220 71 220 59 242.5 c 0,14,15
 48 263 48 263 47.5 285 c 0,16,17
 47 303 47 303 61.5 316 c 128,-1,18
 76 329 76 329 109.5 329 c 2,19,-1
 136.5 329 l 1,20,-1
 136.5 564 l 1,21,-1
 18.5 564 l 1,22,-1
 18.5 637 l 1,23,-1
 581.5 637 l 5,24,-1
 581.5 564 l 5,25,-1
 506.5 564 l 5,0,-1
423.5 564 m 5,26,-1
 219.5 564 l 1,27,-1
 219.5 329 l 1,28,-1
 423.5 329 l 5,29,-1
 423.5 564 l 5,26,-1
EndSplineSet
EndChar

StartChar: n
Encoding: 110 110 83
Width: 600
GlyphClass: 2
Flags: W
LayerCount: 2
Fore
SplineSet
40 637 m 1,0,-1
 580 637 l 5,1,-1
 580 564 l 5,2,-1
 470 564 l 1,3,-1
 470 0 l 1,4,-1
 387 0 l 1,5,-1
 387 305 l 1,6,-1
 191 305 l 1,7,-1
 191 250 l 2,8,9
 190.989257812 222 190.989257812 222 176.5 207 c 0,10,11
 161.989257812 193 161.989257812 193 139 193 c 0,12,13
 121.989257812 193 121.989257812 193 99.5 205 c 0,14,15
 77.9892578125 217 77.9892578125 217 60 237.5 c 128,-1,16
 41.9892578125 258 41.9892578125 258 31 281 c 128,-1,17
 19.9892578125 304 19.9892578125 304 20 326 c 0,18,19
 19.9892578125 350 19.9892578125 350 34 364 c 128,-1,20
 47.9892578125 378 47.9892578125 378 82 378 c 2,21,-1
 387 378 l 1,22,-1
 387 564 l 1,23,-1
 40 564 l 1,24,-1
 40 637 l 1,0,-1
EndSplineSet
EndChar

StartChar: o
Encoding: 111 111 84
Width: 600
VWidth: 1000
GlyphClass: 2
Flags: W
LayerCount: 2
Fore
SplineSet
297.486328125 -0.35546875 m 0,0,1
 225.076171875 -0.35546875 225.076171875 -0.35546875 171.271484375 29.591796875 c 128,-1,2
 117.465820312 59.5400390625 117.465820312 59.5400390625 82.267578125 106.91015625 c 128,-1,3
 47.068359375 154.282226562 47.068359375 154.282226562 29.4677734375 213.088867188 c 128,-1,4
 11.8681640625 271.89453125 11.8681640625 271.89453125 11.8681640625 330.700195312 c 0,5,6
 11.8681640625 402.57421875 11.8681640625 402.57421875 31.982421875 463.55859375 c 128,-1,7
 52.0966796875 524.541992188 52.0966796875 524.541992188 89.810546875 568.647460938 c 128,-1,8
 127.5234375 612.751953125 127.5234375 612.751953125 181.831054688 637.797851562 c 128,-1,9
 236.138671875 662.845703125 236.138671875 662.845703125 303.520507812 662.845703125 c 0,10,11
 365.874023438 662.845703125 365.874023438 662.845703125 418.168945312 638.342773438 c 128,-1,12
 470.46484375 613.840820312 470.46484375 613.840820312 508.1796875 570.825195312 c 128,-1,13
 545.892578125 527.809570312 545.892578125 527.809570312 567.01171875 468.458984375 c 128,-1,14
 588.131835938 409.108398438 588.131835938 409.108398438 588.131835938 340.501953125 c 0,15,16
 588.131835938 270.805664062 588.131835938 270.805664062 566.509765625 208.732421875 c 128,-1,17
 544.88671875 146.66015625 544.88671875 146.66015625 506.16796875 100.376953125 c 128,-1,18
 467.448242188 54.0947265625 467.448242188 54.0947265625 414.146484375 26.869140625 c 128,-1,19
 360.844726562 -0.35546875 360.844726562 -0.35546875 297.486328125 -0.35546875 c 0,0,1
299.498046875 83.4970703125 m 0,20,21
 401.073242188 83.4970703125 401.073242188 83.4970703125 452.866210938 152.6484375 c 128,-1,22
 504.66015625 221.80078125 504.66015625 221.80078125 504.66015625 340.501953125 c 0,23,24
 504.66015625 388.416992188 504.66015625 388.416992188 491.083007812 432.522460938 c 128,-1,25
 477.505859375 476.626953125 477.505859375 476.626953125 451.358398438 510.384765625 c 128,-1,26
 425.209960938 544.14453125 425.209960938 544.14453125 387.999023438 564.291015625 c 128,-1,27
 350.788085938 584.4375 350.788085938 584.4375 303.520507812 584.4375 c 0,28,29
 258.263671875 584.4375 258.263671875 584.4375 220.55078125 564.834960938 c 128,-1,30
 182.836914062 545.233398438 182.836914062 545.233398438 155.682617188 512.563476562 c 128,-1,31
 128.529296875 479.893554688 128.529296875 479.893554688 113.443359375 436.333984375 c 128,-1,32
 98.3583984375 392.7734375 98.3583984375 392.7734375 98.3583984375 343.768554688 c 256,33,34
 98.3583984375 294.763671875 98.3583984375 294.763671875 111.935546875 247.936523438 c 128,-1,35
 125.512695312 201.110351562 125.512695312 201.110351562 151.157226562 164.62890625 c 128,-1,36
 176.802734375 128.146484375 176.802734375 128.146484375 214.013671875 105.822265625 c 128,-1,37
 251.224609375 83.4970703125 251.224609375 83.4970703125 299.498046875 83.4970703125 c 0,20,21
EndSplineSet
EndChar

StartChar: p
Encoding: 112 112 85
Width: 600
GlyphClass: 2
Flags: W
LayerCount: 2
Fore
SplineSet
523.299804688 564 m 5,0,-1
 523.299804688 0 l 5,1,-1
 433.099609375 0 l 5,2,-1
 433.099609375 250 l 5,3,-1
 454 222 l 5,4,5
 425.400390625 197 425.400390625 197 381.400390625 181 c 132,-1,6
 337.400390625 165 337.400390625 165 283.5 165 c 4,7,8
 217.5 165 217.5 165 170.200195312 187.5 c 132,-1,9
 122.900390625 210 122.900390625 210 98.150390625 255.5 c 132,-1,10
 73.400390625 301 73.400390625 301 73.400390625 369 c 6,11,-1
 73.400390625 564 l 5,12,-1
 16.2001953125 564 l 5,13,-1
 16.2001953125 637 l 5,14,-1
 583.799804688 637 l 5,15,-1
 583.799804688 564 l 5,16,-1
 523.299804688 564 l 5,0,-1
433.099609375 564 m 5,17,-1
 164.700195312 564 l 5,18,-1
 164.700195312 366 l 6,19,20
 164.700195312 322 164.700195312 322 177.900390625 293.5 c 132,-1,21
 191.099609375 265 191.099609375 265 218.049804688 251.5 c 132,-1,22
 245 238 245 238 281.299804688 238 c 4,23,24
 330.799804688 238 330.799804688 238 376.450195312 263 c 132,-1,25
 422.099609375 288 422.099609375 288 450.700195312 323 c 5,26,-1
 433.099609375 269 l 5,27,-1
 433.099609375 564 l 5,17,-1
EndSplineSet
EndChar

StartChar: q
Encoding: 113 113 86
Width: 600
VWidth: 1000
GlyphClass: 2
Flags: W
LayerCount: 2
Fore
SplineSet
479.549804688 -64 m 5,0,1
 451.830078125 -22 451.830078125 -22 431.669921875 20.5 c 132,-1,2
 411.509765625 63 411.509765625 63 398.91015625 97 c 6,3,-1
 382.530273438 133 l 6,4,5
 372.450195312 155 372.450195312 155 369.9296875 165 c 4,6,7
 366.150390625 180 366.150390625 180 366.150390625 195 c 4,8,9
 366.150390625 224 366.150390625 224 388.830078125 241 c 132,-1,10
 411.509765625 258 411.509765625 258 451.830078125 258 c 4,11,12
 498.450195312 258 498.450195312 258 528.690429688 234 c 132,-1,13
 558.9296875 210 558.9296875 210 558.9296875 179 c 4,14,15
 558.9296875 152 558.9296875 152 538.139648438 131 c 132,-1,16
 517.349609375 110 517.349609375 110 477.030273438 96 c 5,17,-1
 455.610351562 92 l 6,18,19
 425.370117188 84 425.370117188 84 397.650390625 79.5 c 132,-1,20
 369.9296875 75 369.9296875 75 327.08984375 75 c 4,21,22
 271.650390625 75 271.650390625 75 217.469726562 86 c 132,-1,23
 163.290039062 97 163.290039062 97 119.8203125 121 c 132,-1,24
 76.349609375 145 76.349609375 145 50.51953125 183 c 132,-1,25
 24.6904296875 221 24.6904296875 221 24.6904296875 275 c 4,26,27
 24.6904296875 366 24.6904296875 366 103.440429688 410.5 c 132,-1,28
 182.190429688 455 182.190429688 455 334.650390625 455 c 6,29,-1
 424.110351562 455 l 5,30,-1
 403.950195312 420 l 5,31,-1
 403.950195312 551 l 5,32,-1
 43.58984375 551 l 5,33,-1
 43.58984375 622 l 5,34,-1
 570.26953125 622 l 5,35,-1
 570.26953125 551 l 5,36,-1
 506.009765625 551 l 5,37,-1
 506.009765625 385 l 5,38,-1
 349.76953125 385 l 6,39,40
 238.889648438 385 238.889648438 385 182.8203125 357.5 c 132,-1,41
 126.75 330 126.75 330 126.75 271 c 260,42,43
 126.75 212 126.75 212 180.9296875 180 c 132,-1,44
 235.110351562 148 235.110351562 148 325.830078125 148 c 4,45,46
 347.25 148 347.25 148 373.080078125 151 c 132,-1,47
 398.91015625 154 398.91015625 154 426.629882812 164 c 5,48,-1
 483.330078125 112 l 5,49,50
 500.969726562 78 500.969726562 78 522.389648438 45 c 132,-1,51
 543.809570312 12 543.809570312 12 575.309570312 -30 c 5,52,-1
 479.549804688 -64 l 5,0,1
EndSplineSet
EndChar

StartChar: r
Encoding: 114 114 87
Width: 600
GlyphClass: 2
Flags: W
LayerCount: 2
Fore
SplineSet
414.400390625 564 m 1,0,-1
 460.599609375 580 l 1,1,2
 476 554 476 554 482.299804688 528 c 0,3,4
 489 502 489 502 488.599609375 469 c 0,5,6
 489 413 489 413 456.400390625 372.5 c 128,-1,7
 424 332 424 332 366.099609375 302.5 c 128,-1,8
 308 273 308 273 231 251 c 1,9,-1
 233.799804688 261 l 1,10,11
 274 227 274 227 324.799804688 190 c 0,12,13
 375 153 375 153 431.900390625 116 c 128,-1,14
 489 79 489 79 547.400390625 43 c 1,15,-1
 464.799804688 -12 l 1,16,17
 351 61 351 61 270.200195312 122 c 0,18,19
 189 183 189 183 133 240 c 0,20,21
 97 276 97 276 81.900390625 302.5 c 128,-1,22
 67 329 67 329 67.2001953125 351 c 0,23,24
 67 375 67 375 87.5 389 c 128,-1,25
 108 403 108 403 142.799804688 403 c 0,26,27
 182 403 182 403 217.700195312 384 c 0,28,29
 253 365 253 365 289.799804688 331 c 1,30,-1
 218.400390625 343 l 1,31,32
 300 362 300 362 336.700195312 396.5 c 0,33,34
 374 431 374 431 373.799804688 479 c 0,35,36
 374 509 374 509 363.299804688 538 c 0,37,38
 353 567 353 567 337.400390625 579 c 1,39,-1
 401.799804688 564 l 1,40,-1
 22.599609375 564 l 1,41,-1
 22.599609375 637 l 1,42,-1
 577.400390625 637 l 1,43,-1
 577.400390625 564 l 1,44,-1
 414.400390625 564 l 1,0,-1
EndSplineSet
EndChar

StartChar: s
Encoding: 115 115 88
Width: 600
GlyphClass: 2
Flags: W
LayerCount: 2
Fore
SplineSet
254.208007812 -1.4951171875 m 5,0,1
 183.688476562 73.7451171875 183.688476562 73.7451171875 129.653320312 145.520507812 c 132,-1,2
 75.619140625 217.294921875 75.619140625 217.294921875 50.8916015625 266.794921875 c 4,3,4
 38.0693359375 293.525390625 38.0693359375 293.525390625 31.201171875 315.799804688 c 132,-1,5
 24.33203125 338.075195312 24.33203125 338.075195312 24.33203125 356.884765625 c 4,6,7
 24.33203125 383.615234375 24.33203125 383.615234375 38.0693359375 397.474609375 c 132,-1,8
 51.8076171875 411.334960938 51.8076171875 411.334960938 74.703125 411.334960938 c 4,9,10
 99.431640625 411.334960938 99.431640625 411.334960938 122.328125 393.020507812 c 132,-1,11
 145.223632812 374.705078125 145.223632812 374.705078125 168.119140625 343.025390625 c 5,12,-1
 124.159179688 347.974609375 l 5,13,14
 166.287109375 361.834960938 166.287109375 361.834960938 181.3984375 399.455078125 c 132,-1,15
 196.510742188 437.075195312 196.510742188 437.075195312 196.510742188 478.654296875 c 4,16,17
 196.510742188 514.294921875 196.510742188 514.294921875 189.641601562 541.520507812 c 132,-1,18
 182.772460938 568.745117188 182.772460938 568.745117188 174.529296875 584.584960938 c 5,19,-1
 212.995117188 570.724609375 l 5,20,-1
 58.21875 570.724609375 l 5,21,-1
 58.21875 642.995117188 l 5,22,-1
 376.015625 642.995117188 l 5,23,-1
 376.015625 570.724609375 l 5,24,-1
 220.322265625 570.724609375 l 5,25,-1
 252.376953125 586.565429688 l 5,26,27
 262.450195312 561.815429688 262.450195312 561.815429688 267.487304688 533.104492188 c 132,-1,28
 272.524414062 504.395507812 272.524414062 504.395507812 272.524414062 468.754882812 c 4,29,30
 272.524414062 428.165039062 272.524414062 428.165039062 261.993164062 394.009765625 c 132,-1,31
 251.459960938 359.854492188 251.459960938 359.854492188 229.48046875 334.115234375 c 5,32,-1
 225.81640625 326.1953125 l 5,33,34
 209.33203125 304.415039062 209.33203125 304.415039062 184.604492188 288.575195312 c 132,-1,35
 159.876953125 272.734375 159.876953125 272.734375 123.243164062 258.875 c 5,36,-1
 120.495117188 269.765625 l 5,37,38
 144.307617188 235.115234375 144.307617188 235.115234375 173.61328125 200.465820312 c 132,-1,39
 202.920898438 165.815429688 202.920898438 165.815429688 237.264648438 129.184570312 c 132,-1,40
 271.608398438 92.5546875 271.608398438 92.5546875 310.990234375 52.955078125 c 5,41,-1
 254.208007812 -1.4951171875 l 5,0,1
360.446289062 259.865234375 m 260,42,43
 321.979492188 259.865234375 321.979492188 259.865234375 277.561523438 269.270507812 c 132,-1,44
 233.143554688 278.674804688 233.143554688 278.674804688 191.930664062 303.424804688 c 5,45,-1
 217.57421875 363.815429688 l 5,46,47
 256.040039062 346.984375 256.040039062 346.984375 288.551757812 340.0546875 c 132,-1,48
 321.064453125 333.125 321.064453125 333.125 359.529296875 333.125 c 260,49,50
 397.995117188 333.125 397.995117188 333.125 432.796875 340.549804688 c 132,-1,51
 467.598632812 347.974609375 467.598632812 347.974609375 503.31640625 364.8046875 c 5,52,-1
 503.31640625 288.575195312 l 5,53,54
 470.346679688 273.724609375 470.346679688 273.724609375 434.62890625 266.794921875 c 132,-1,55
 398.911132812 259.865234375 398.911132812 259.865234375 360.446289062 259.865234375 c 260,42,43
459.35546875 12.365234375 m 5,56,-1
 459.35546875 570.724609375 l 5,57,-1
 356.78125 570.724609375 l 5,58,-1
 356.78125 642.995117188 l 5,59,-1
 575.66796875 642.995117188 l 5,60,-1
 575.66796875 570.724609375 l 5,61,-1
 535.37109375 570.724609375 l 5,62,-1
 535.37109375 12.365234375 l 5,63,-1
 459.35546875 12.365234375 l 5,56,-1
EndSplineSet
EndChar

StartChar: t
Encoding: 116 116 89
Width: 600
GlyphClass: 2
Flags: W
LayerCount: 2
Fore
SplineSet
568.326171875 541.629882812 m 5,0,-1
 415.013671875 541.629882812 l 5,1,-1
 415.013671875 363.4296875 l 5,2,-1
 325.25390625 363.4296875 l 6,3,4
 225.60546875 363.700195312 225.60546875 363.700195312 172.133789062 329.76953125 c 4,5,6
 119.045898438 297.099609375 119.045898438 297.099609375 118.278320312 219.879882812 c 4,7,8
 118.0859375 148.599609375 118.0859375 148.599609375 167.91015625 111.969726562 c 4,9,10
 216.965820312 75.7001953125 216.965820312 75.7001953125 288.293945312 75.33984375 c 4,11,12
 339.845703125 75.7001953125 339.845703125 75.7001953125 380.693359375 90.189453125 c 4,13,14
 421.446289062 105.400390625 421.446289062 105.400390625 468.870117188 136.719726562 c 5,15,-1
 505.830078125 71.3798828125 l 5,16,17
 461.765625 37.900390625 461.765625 37.900390625 409.733398438 18.91015625 c 4,18,19
 356.166015625 0.099609375 356.166015625 0.099609375 287.23828125 0.099609375 c 4,20,21
 213.125976562 0.099609375 213.125976562 0.099609375 155.23828125 26.830078125 c 4,22,23
 98.8857421875 53.2001953125 98.8857421875 53.2001953125 64.9501953125 103.5546875 c 4,24,25
 31.685546875 151.299804688 31.685546875 151.299804688 31.685546875 220.870117188 c 4,26,27
 30.7255859375 327.700195312 30.7255859375 327.700195312 104.549804688 380.754882812 c 4,28,29
 176.401367188 433.719726562 176.401367188 433.719726562 312.581054688 433.719726562 c 6,30,-1
 357.990234375 433.719726562 l 5,31,-1
 327.366210938 409.959960938 l 5,32,-1
 327.366210938 541.629882812 l 5,33,-1
 47.0458984375 541.629882812 l 5,34,-1
 47.0458984375 613.900390625 l 5,35,-1
 568.326171875 613.900390625 l 5,36,-1
 568.326171875 541.629882812 l 5,0,-1
EndSplineSet
EndChar

StartChar: u
Encoding: 117 117 90
Width: 600
VWidth: 1000
GlyphClass: 2
Flags: W
LayerCount: 2
Fore
SplineSet
256.0078125 -17.599609375 m 4,0,1
 141.505859375 -17.599609375 141.505859375 -17.599609375 86.6650390625 39.400390625 c 132,-1,2
 31.8251953125 96.400390625 31.8251953125 96.400390625 31.8251953125 209.200195312 c 6,3,-1
 31.8251953125 637.599609375 l 5,4,-1
 140.30078125 637.599609375 l 5,5,-1
 140.30078125 226 l 6,6,7
 140.30078125 149.200195312 140.30078125 149.200195312 172.240234375 109.599609375 c 132,-1,8
 204.1796875 70 204.1796875 70 282.5234375 70 c 4,9,10
 350.01953125 70 350.01953125 70 388.587890625 98.2001953125 c 132,-1,11
 427.15625 126.400390625 427.15625 126.400390625 443.427734375 179.200195312 c 132,-1,12
 459.69921875 232 459.69921875 232 459.69921875 306.400390625 c 6,13,-1
 459.69921875 637.599609375 l 5,14,-1
 568.174804688 637.599609375 l 5,15,-1
 568.174804688 -5.599609375 l 5,16,-1
 481.39453125 -5.599609375 l 5,17,-1
 465.7265625 80.7998046875 l 5,18,-1
 459.69921875 80.7998046875 l 5,19,20
 436.799804688 44.7998046875 436.799804688 44.7998046875 406.66796875 23.2001953125 c 132,-1,21
 376.53515625 1.599609375 376.53515625 1.599609375 339.171875 -8 c 132,-1,22
 301.807617188 -17.599609375 301.807617188 -17.599609375 256.0078125 -17.599609375 c 4,0,1
EndSplineSet
EndChar

StartChar: v
Encoding: 118 118 91
Width: 600
VWidth: 1000
GlyphClass: 2
Flags: W
LayerCount: 2
Fore
SplineSet
150.01953125 229 m 1,0,1
 111 256 111 256 86.740234375 286.5 c 0,2,3
 63 317 63 317 62.66015625 354 c 0,4,5
 63 408 63 408 105.219726562 436.5 c 0,6,7
 148 465 148 465 235.139648438 465 c 2,8,-1
 389.700195312 465 l 1,9,-1
 389.700195312 551 l 1,10,-1
 25.7001953125 551 l 1,11,-1
 25.7001953125 622 l 1,12,-1
 577.33984375 622 l 5,13,-1
 577.33984375 551 l 5,14,-1
 480.419921875 551 l 1,15,-1
 480.419921875 394 l 1,16,-1
 247.459960938 394 l 2,17,18
 198 394 198 394 175.219726562 381 c 0,19,20
 152 368 152 368 152.259765625 341 c 0,21,22
 152 322 152 322 166.259765625 304.5 c 0,23,24
 180 287 180 287 201.540039062 274 c 1,25,-1
 150.01953125 229 l 1,0,1
358.33984375 64 m 1,26,27
 397.540039062 79 397.540039062 79 418.259765625 100.5 c 128,-1,28
 438.98046875 122 438.98046875 122 438.98046875 146 c 0,29,30
 438.98046875 179 438.98046875 179 409.299804688 200.5 c 128,-1,31
 379.620117188 222 379.620117188 222 311.299804688 222 c 0,32,33
 234.01953125 222 234.01953125 222 193.139648438 193 c 128,-1,34
 152.259765625 164 152.259765625 164 152.259765625 114 c 0,35,36
 152.259765625 74 152.259765625 74 183.059570312 42.5 c 128,-1,37
 213.860351562 11 213.860351562 11 272.66015625 -16.5 c 128,-1,38
 331.459960938 -44 331.459960938 -44 414.33984375 -74 c 1,39,-1
 369.540039062 -142 l 1,40,41
 282.1796875 -110 282.1796875 -110 212.740234375 -74.5 c 128,-1,42
 143.299804688 -39 143.299804688 -39 102.98046875 7.5 c 128,-1,43
 62.66015625 54 62.66015625 54 62.66015625 117 c 0,44,45
 62.66015625 177 62.66015625 177 96.259765625 216 c 128,-1,46
 129.860351562 255 129.860351562 255 186.419921875 274 c 128,-1,47
 242.98046875 293 242.98046875 293 313.540039062 293 c 0,48,49
 389.700195312 293 389.700195312 293 436.740234375 272.5 c 128,-1,50
 483.780273438 252 483.780273438 252 505.620117188 218.5 c 128,-1,51
 527.459960938 185 527.459960938 185 527.459960938 145 c 0,52,53
 527.459960938 103 527.459960938 103 504.5 68.5 c 128,-1,54
 481.540039062 34 481.540039062 34 422.1796875 6 c 1,55,-1
 358.33984375 64 l 1,26,27
EndSplineSet
EndChar

StartChar: w
Encoding: 119 119 92
Width: 600
VWidth: 1000
GlyphClass: 2
Flags: W
LayerCount: 2
Fore
SplineSet
403 -20 m 0,0,1
 380 -20 380 -20 363.5 -14 c 128,-1,2
 347 -8 347 -8 335.5 3.5 c 128,-1,3
 324 15 324 15 316 31 c 0,4,5
 304 55 304 55 301 67 c 0,6,7
 300 71 300 71 299 77 c 128,-1,8
 298 83 298 83 296.5 89 c 128,-1,9
 295 95 295 95 293.5 99 c 128,-1,10
 292 103 292 103 290 103 c 256,11,12
 288 103 288 103 286 95.5 c 128,-1,13
 284 88 284 88 280 77 c 0,14,15
 270 51 270 51 261 32.5 c 128,-1,16
 252 14 252 14 240.5 2.5 c 128,-1,17
 229 -9 229 -9 215 -14.5 c 128,-1,18
 201 -20 201 -20 181 -20 c 0,19,20
 141 -20 141 -20 111.5 -6.5 c 128,-1,21
 82 7 82 7 63 31.5 c 128,-1,22
 44 56 44 56 35 89.5 c 128,-1,23
 26 123 26 123 26 163 c 2,24,-1
 26 502 l 2,25,26
 26 512 26 512 29 525.5 c 128,-1,27
 32 539 32 539 39 551 c 128,-1,28
 46 563 46 563 57.5 571.5 c 128,-1,29
 69 580 69 580 87 580 c 0,30,31
 116 580 116 580 127 559.5 c 128,-1,32
 137.903320312 539.1796875 137.903320312 539.1796875 138 507 c 2,33,-1
 139 173 l 2,34,35
 139 163 139 163 141 146.5 c 128,-1,36
 143 130 143 130 147.5 114 c 128,-1,37
 152 98 152 98 161 86.5 c 128,-1,38
 170 75 170 75 183 75 c 0,39,40
 206 75 206 75 219.5 80.5 c 128,-1,41
 233 86 233 86 240 142 c 128,-1,42
 247 198 247 198 248.5 203.5 c 128,-1,43
 250 209 250 209 250 285 c 0,44,45
 250 300 250 300 260 324.5 c 128,-1,46
 270 349 270 349 300 349 c 0,47,48
 314 349 314 349 323 344 c 128,-1,49
 332 339 332 339 338 323 c 0,50,51
 342 312 342 312 346.5 277 c 0,52,53
 348 264 348 264 349 256 c 0,54,-1
 349 194 l 0,55,-1
 350.5 159.5 l 0,56,57
 352 125 352 125 354.5 133 c 128,-1,58
 357 141 357 141 362 126 c 0,59,60
 371 97 371 97 381 85.5 c 128,-1,61
 391 74 391 74 404 74 c 0,62,63
 463 74 463 74 463 219 c 2,64,-1
 463 519 l 2,65,66
 463 530 463 530 465 541 c 128,-1,67
 467 552 467 552 472.5 560.5 c 128,-1,68
 478 569 478 569 488 574.5 c 128,-1,69
 498 580 498 580 513 580 c 0,70,71
 545 580 545 580 559.5 562.5 c 128,-1,72
 574 545 574 545 574 519 c 2,73,-1
 574 200 l 2,74,75
 574 158 574 158 562.5 118.5 c 128,-1,76
 551 79 551 79 529.5 48 c 128,-1,77
 508 17 508 17 476 -1.5 c 128,-1,78
 444 -20 444 -20 403 -20 c 0,0,1
51 495 m 0,79,80
 58 495 58 495 60.5 502 c 128,-1,81
 63 509 63 509 64 514 c 0,82,83
 66 528 66 528 75 537.5 c 0,84,85
 90 553 90 553 90 559 c 0,86,87
 90 561 90 561 88 564 c 128,-1,88
 86 567 86 567 83 567 c 0,89,90
 77 567 77 567 70 560.5 c 128,-1,91
 63 554 63 554 57 545 c 128,-1,92
 51 536 51 536 47.5 525.5 c 128,-1,93
 44 515 44 515 44 507 c 0,94,95
 44 503 44 503 45 499 c 128,-1,96
 46 495 46 495 51 495 c 0,79,80
496 513 m 0,97,98
 496 523 496 523 499 531 c 128,-1,99
 502 539 502 539 506 546 c 0,100,101
 511 554 511 554 510 559 c 128,-1,102
 509 564 509 564 506 564 c 0,103,104
 501 564 501 564 494.5 560.5 c 128,-1,105
 488 557 488 557 484 547 c 0,106,107
 479 531 479 531 480.5 516 c 128,-1,108
 482 501 482 501 490 501 c 0,109,110
 492 501 492 501 494 504.5 c 128,-1,111
 496 508 496 508 496 513 c 0,97,98
277 285 m 0,112,113
 277 286 277 286 279 295.5 c 128,-1,114
 281 305 281 305 284 311 c 0,115,116
 291 324 291 324 293 329 c 128,-1,117
 295 334 295 334 292 334 c 0,118,119
 290 334 290 334 284.5 332 c 128,-1,120
 279 330 279 330 274 323 c 0,121,122
 263 308 263 308 263.5 291 c 128,-1,123
 264 274 264 274 272 274 c 0,124,125
 277 274 277 274 277 285 c 0,112,113
128 17 m 0,126,127
 127 22 127 22 114 31 c 128,-1,128
 101 40 101 40 95 47 c 0,129,130
 84 58 84 58 79.5 69 c 128,-1,131
 75 80 75 80 70 79 c 0,132,133
 66 79 66 79 66.5 72 c 128,-1,134
 67 65 67 65 71.5 55 c 128,-1,135
 76 45 76 45 85 34 c 128,-1,136
 94 23 94 23 107 14 c 0,137,138
 116 7 116 7 123 9 c 0,139,140
 128 9 128 9 128 17 c 0,126,127
394 2 m 0,141,142
 394 6 394 6 390.5 7 c 128,-1,143
 387 8 387 8 384 8 c 0,144,145
 379 9 379 9 369 18 c 128,-1,146
 359 27 359 27 353 37 c 0,147,148
 343 52 343 52 335 54 c 0,149,150
 332 54 332 54 332 49 c 0,151,152
 332 47 332 47 335.5 39 c 128,-1,153
 339 31 339 31 346 22 c 128,-1,154
 353 13 353 13 362.5 5.5 c 128,-1,155
 372 -2 372 -2 383 -3 c 0,156,157
 387 -3 387 -3 390 -3 c 128,-1,158
 393 -3 393 -3 394 2 c 0,141,142
EndSplineSet
EndChar

